<svg xmlns="http://www.w3.org/2000/svg" xmlns:xlink="http://www.w3.org/1999/xlink" xmlns:inkscape="http://www.inkscape.org/namespaces/inkscape" version="1.1" width="73" height="31" viewBox="0 0 73 31">
<g>
<path d="M6.215 11.992C6.215 11.672 6.145 11.516 5.727 11.516H5.324C4.945 11.516 4.84 11.645 4.84 11.992V14.41C4.84 15.078 4.492 15.652 3.77 15.652 3.211 15.652 3.152 15.52 3.152 14.98V11.992C3.152 11.672 3.082 11.516 2.664 11.516H2.262C1.895 11.516 1.773 11.621 1.773 11.992V14.887C1.773 15.977 2.355 16.273 3.414 16.273 3.688 16.273 4.398 16.273 4.875 15.414V15.676C4.875 16 4.945 16.164 5.359 16.164H5.727C6.121 16.164 6.215 16.035 6.215 15.676ZM6.215 11.992"/>
<path d="M9.254 15.109H10.574C10.645 15.109 10.941 15.109 10.941 14.82 10.941 14.629 10.762 14.629 10.645 14.629H8.41C8.211 14.629 7.984 14.641 7.617 14.977 7.414 15.168 7.152 15.539 7.152 15.598 7.152 15.684 7.25 15.684 7.273 15.684 7.344 15.684 7.355 15.668 7.402 15.609 7.758 15.109 8.188 15.109 8.352 15.109H8.98L8.281 17.379C8.246 17.5 8.246 17.512 8.246 17.547 8.246 17.738 8.426 17.773 8.484 17.773 8.746 17.773 8.793 17.523 8.816 17.414ZM9.254 15.109"/>
<path d="M16.617 12.328C16.617 12.027 16.379 11.789 16.082 11.789 15.797 11.789 15.547 12.027 15.547 12.328 15.547 12.613 15.797 12.867 16.082 12.867 16.379 12.867 16.617 12.613 16.617 12.328ZM16.617 15.629C16.617 15.328 16.379 15.09 16.082 15.09 15.797 15.09 15.547 15.328 15.547 15.629 15.547 15.926 15.797 16.164 16.082 16.164 16.379 16.164 16.617 15.926 16.617 15.629ZM24.418 12.844C24.574 12.844 24.762 12.844 24.762 12.641 24.762 12.434 24.574 12.434 24.43 12.434H18.387C18.242 12.434 18.055 12.434 18.055 12.641 18.055 12.844 18.242 12.844 18.398 12.844ZM24.43 14.816C24.574 14.816 24.762 14.816 24.762 14.613 24.762 14.41 24.574 14.41 24.418 14.41H18.398C18.242 14.41 18.055 14.41 18.055 14.613 18.055 14.816 18.242 14.816 18.387 14.816ZM24.43 14.816"/>
<path d="M45.07 13.621C45.07 9.688 41.91 6.508 38.016 6.508 34.133 6.508 30.965 9.688 30.965 13.621 30.965 17.555 34.121 20.738 38.016 20.738 41.898 20.738 45.07 17.555 45.07 13.621ZM33.934 8.898C34.941 8.004 36.367 7.355 38.016 7.355 39.645 7.355 41.066 7.992 42.102 8.898L38.016 13.035ZM33.328 17.746C32.043 16.23 31.793 14.625 31.793 13.621 31.793 12.355 32.176 10.848 33.328 9.496L37.422 13.621ZM42.695 9.496C43.988 11.016 44.227 12.617 44.227 13.621 44.227 14.891 43.848 16.395 42.695 17.746L38.609 13.621ZM42.102 18.344C41.094 19.242 39.656 19.887 38.016 19.887 36.391 19.887 34.953 19.254 33.934 18.344L38.016 14.207ZM42.102 18.344"/>
<path d="M30.434 23.867C30.434 23.758 30.348 23.602 30.148 23.602 29.957 23.602 29.754 23.781 29.754 23.984 29.754 24.105 29.84 24.262 30.027 24.262 30.242 24.262 30.434 24.059 30.434 23.867ZM28.984 27.477C28.961 27.574 28.926 27.656 28.926 27.777 28.926 28.109 29.211 28.387 29.602 28.387 30.301 28.387 30.609 27.406 30.609 27.297 30.609 27.203 30.527 27.203 30.504 27.203 30.398 27.203 30.398 27.25 30.359 27.32 30.207 27.895 29.898 28.184 29.613 28.184 29.469 28.184 29.434 28.098 29.434 27.93 29.434 27.777 29.496 27.633 29.555 27.477 29.625 27.285 29.695 27.094 29.777 26.914 29.84 26.746 30.102 26.09 30.125 26.008 30.148 25.934 30.172 25.852 30.172 25.777 30.172 25.445 29.887 25.18 29.496 25.18 28.793 25.18 28.473 26.148 28.473 26.27 28.473 26.352 28.566 26.352 28.59 26.352 28.688 26.352 28.699 26.316 28.723 26.246 28.902 25.637 29.211 25.371 29.469 25.371 29.59 25.371 29.648 25.434 29.648 25.625 29.648 25.793 29.613 25.898 29.434 26.34ZM28.984 27.477"/>
<path d="M35.379 26.711C35.496 26.711 35.664 26.711 35.664 26.531 35.664 26.352 35.508 26.352 35.379 26.352H32.113C32.219 25.324 33.074 24.559 34.18 24.559H35.379C35.496 24.559 35.664 24.559 35.664 24.391 35.664 24.211 35.508 24.211 35.379 24.211H34.145C32.836 24.211 31.758 25.254 31.758 26.531 31.758 27.836 32.848 28.852 34.145 28.852H35.379C35.496 28.852 35.664 28.852 35.664 28.684 35.664 28.504 35.508 28.504 35.379 28.504H34.18C33.074 28.504 32.219 27.738 32.113 26.711ZM39.855 23.891C41.289 23.891 41.625 24.188 41.625 24.656 41.625 25.23 41.195 25.898 39.996 25.934 39.855 25.945 39.77 25.945 39.582 26.055 39.461 26.125 39.344 26.234 39.344 26.305 39.344 26.352 39.367 26.363 39.426 26.379 39.734 26.426 39.902 26.617 40.316 27.383 40.695 28.098 40.922 28.457 41.375 28.457 42.289 28.457 43.18 27.574 43.18 27.43 43.18 27.418 43.18 27.371 43.098 27.371 43.035 27.371 42.762 27.43 42.562 27.668 42.465 27.777 42.254 28.027 41.871 28.027 41.492 28.027 41.242 27.535 40.934 26.965 40.66 26.473 40.543 26.316 40.461 26.211 41.707 25.777 42.277 24.988 42.277 24.332 42.277 23.461 41.172 23.461 39.809 23.461 38.918 23.461 38.488 23.461 37.859 23.699 36.922 24.082 36.707 24.703 36.707 24.812 36.707 24.871 36.754 24.883 36.789 24.883 36.898 24.883 37.277 24.738 37.371 24.488 37.457 24.199 37.551 23.949 38.691 23.891 38.559 25.828 38.027 27.273 37.621 28.242 37.562 28.375 37.562 28.387 37.562 28.398 37.562 28.445 37.598 28.457 37.645 28.457 37.801 28.457 38.098 28.277 38.18 28.16 38.191 28.133 39.129 26.211 39.32 23.891ZM39.855 23.891"/>
<path d="M45.52 27.523H46.574C46.668 27.523 46.719 27.523 46.789 27.477 46.824 27.441 46.871 27.371 46.871 27.297 46.871 27.141 46.719 27.141 46.633 27.141H44.816C44.699 27.141 44.484 27.141 44.199 27.383 44.07 27.488 43.82 27.777 43.82 27.836 43.82 27.906 43.891 27.906 43.914 27.906 43.984 27.906 43.984 27.906 44.035 27.859 44.223 27.598 44.484 27.523 44.746 27.523H45.281L44.863 28.863C44.828 28.984 44.758 29.188 44.758 29.223 44.758 29.332 44.852 29.402 44.949 29.402 45.113 29.402 45.184 29.27 45.211 29.141ZM45.52 27.523"/>
<path d="M53.977 11.66H53.18V14.602C53.18 15.363 52.621 15.723 51.969 15.723 51.258 15.723 51.184 15.449 51.184 15.02V11.66H50.402V15.055C50.402 15.797 50.625 16.273 51.469 16.273 52.004 16.273 52.715 16.117 53.215 15.676V16.164H53.977ZM53.977 11.66"/>
<path d="M57.09 13.242C57.09 13.137 57.008 12.98 56.805 12.98 56.613 12.98 56.414 13.16 56.414 13.363 56.414 13.48 56.496 13.637 56.684 13.637 56.898 13.637 57.09 13.434 57.09 13.242ZM55.641 16.852C55.617 16.949 55.582 17.031 55.582 17.152 55.582 17.488 55.867 17.762 56.258 17.762 56.957 17.762 57.266 16.781 57.266 16.676 57.266 16.578 57.184 16.578 57.16 16.578 57.055 16.578 57.055 16.625 57.02 16.699 56.863 17.273 56.555 17.559 56.27 17.559 56.129 17.559 56.09 17.477 56.09 17.309 56.09 17.152 56.152 17.008 56.211 16.852 56.281 16.664 56.352 16.473 56.438 16.293 56.496 16.125 56.758 15.465 56.781 15.383 56.805 15.312 56.828 15.227 56.828 15.156 56.828 14.82 56.543 14.559 56.152 14.559 55.449 14.559 55.129 15.527 55.129 15.645 55.129 15.73 55.227 15.73 55.25 15.73 55.344 15.73 55.355 15.695 55.379 15.621 55.559 15.012 55.867 14.75 56.129 14.75 56.246 14.75 56.305 14.809 56.305 15 56.305 15.168 56.27 15.273 56.09 15.719ZM55.641 16.852"/>
<path d="M59.195 15.035C59.195 14.785 59.008 14.629 58.793 14.629 58.555 14.629 58.391 14.82 58.391 15.023 58.391 15.273 58.59 15.441 58.793 15.441 59.043 15.441 59.195 15.238 59.195 15.035ZM59.195 17.285C59.195 17.031 59.008 16.879 58.793 16.879 58.555 16.879 58.391 17.07 58.391 17.273 58.391 17.523 58.59 17.691 58.793 17.691 59.043 17.691 59.195 17.488 59.195 17.285ZM59.195 17.285"/>
<path d="M62.227 13.242C62.227 13.137 62.145 12.98 61.941 12.98 61.754 12.98 61.551 13.16 61.551 13.363 61.551 13.48 61.633 13.637 61.824 13.637 62.039 13.637 62.227 13.434 62.227 13.242ZM60.777 16.852C60.754 16.949 60.719 17.031 60.719 17.152 60.719 17.488 61.004 17.762 61.395 17.762 62.098 17.762 62.406 16.781 62.406 16.676 62.406 16.578 62.324 16.578 62.301 16.578 62.191 16.578 62.191 16.625 62.156 16.699 62.004 17.273 61.691 17.559 61.41 17.559 61.266 17.559 61.23 17.477 61.23 17.309 61.23 17.152 61.289 17.008 61.348 16.852 61.422 16.664 61.492 16.473 61.574 16.293 61.633 16.125 61.895 15.465 61.918 15.383 61.941 15.312 61.965 15.227 61.965 15.156 61.965 14.82 61.68 14.559 61.289 14.559 60.59 14.559 60.27 15.527 60.27 15.645 60.27 15.73 60.363 15.73 60.387 15.73 60.48 15.73 60.492 15.695 60.52 15.621 60.695 15.012 61.004 14.75 61.266 14.75 61.383 14.75 61.445 14.809 61.445 15 61.445 15.168 61.41 15.273 61.23 15.719ZM60.777 16.852"/>
<path d="M66.059 16.09H68.234C68.316 16.09 68.492 16.09 68.492 15.91 68.492 15.73 68.328 15.73 68.234 15.73H66.059V13.555C66.059 13.457 66.059 13.289 65.895 13.289 65.715 13.289 65.715 13.445 65.715 13.555V15.73H63.555C63.461 15.73 63.293 15.73 63.293 15.91 63.293 16.09 63.449 16.09 63.555 16.09H65.715V18.266C65.715 18.359 65.715 18.527 65.895 18.527 66.059 18.527 66.059 18.371 66.059 18.266ZM71.352 13.172C71.352 12.98 71.34 12.969 71.141 12.969 70.688 13.41 70.047 13.422 69.762 13.422V13.672C69.93 13.672 70.391 13.672 70.781 13.48V17.105C70.781 17.344 70.781 17.438 70.082 17.438H69.809V17.691C69.941 17.68 70.805 17.668 71.066 17.668 71.281 17.668 72.172 17.68 72.328 17.691V17.438H72.066C71.352 17.438 71.352 17.344 71.352 17.105ZM71.352 13.172"/>
</g>
</svg>
