<svg xmlns="http://www.w3.org/2000/svg" xmlns:xlink="http://www.w3.org/1999/xlink" xmlns:inkscape="http://www.inkscape.org/namespaces/inkscape" version="1.1" width="184" height="270" viewBox="0 0 184 270">
<defs>
<clipPath id="clip_0">
<path transform="matrix(1,0,0,-1,0,270)" d="M0 0H184V270H0Z"/>
</clipPath>
<clipPath id="clip_1">
<path transform="matrix(1,0,0,-1,0,270)" d="M0-.000003984023H184V270H0Z"/>
</clipPath>
</defs>
<g clip-path="url(#clip_0)">
<path transform="matrix(1,0,0,-1,0,270)" d="M0 270H184V0H0Z" fill="#ffffff"/>
</g>
<g clip-path="url(#clip_1)">
<text xml:space="preserve" transform="matrix(2.574549 0 -0 2.576995 -784.3065 1349.002)" font-size="17.2154" font-family="URWPalladioL"><tspan y="-751.195" x="40.597 46.39859 56.417955 62.030176 70.27635 77.07644 87.4229 92.43258 101.04028 114.91589 124.315509 134.35208 141.65142 151.05103 156.0607 165.7874 174.3951 183.9152 188.9249 193.93457 198.94425 204.55646 218.43207 227.03977 237.05913 251.88159 259.52525 268.92485 278.9442 286.24354 294.48973 301.2898 311.0165 319.2627 334.08518 343.7258 354.1067 362.7144 372.73377 378.34599 383.35566 388.96788 393.97755 402.22373 413.8269 418.83659 433.15983 440.80348 445.81315 454.42085 461.72016 469.01948 474.02915 481.6728 490.2805 499.59403 507.23768 512.2474 518.7376 526.3812 536.7621 541.7718 547.38406">Interplayofsolvabilityandconservedquantitiesinclassicalcircuits</tspan></text>
<text xml:space="preserve" transform="matrix(2.574549 0 -0 2.576995 -784.3065 1349.002)" font-size="11.9552" font-family="URWPalladioL"><tspan y="-707.461" x="261.115 267.39149 274.60047 284.54719 295.4025 301.93003 311.44636 320.12583 323.6048">SunWooKim</tspan></text>
<text xml:space="preserve" transform="matrix(2.574549 0 -0 2.576995 -784.3065 1349.002)" font-size="7.9701" font-family="URWPalladioL"><tspan y="-709.727" x="334.161">*</tspan></text>
<text xml:space="preserve" transform="matrix(2.574549 0 -0 2.576995 -784.3065 1349.002)" font-size="11.9552" font-family="URWPalladioL"><tspan y="-676.228" x="257.373 261.35408 267.33168 274.28959 281.49858 287.47618 292.19847 301.83436 307.81196 313.78956 319.76716 325.74476 331.72236">January2,2025</tspan></text>
<text xml:space="preserve" transform="matrix(2.574549 0 -0 2.576995 -784.3065 1349.002)" font-size="10.9091" font-family="URWPalladioL"><tspan y="-639.541" x="35.662 42.349279 48.69837 53.923833 63.000204 66.55657 72.90567 80.8584 84.49113 90.447498 93.62204 96.796588 102.75295 111.85114 115.02569 121.37479 130.16753 135.01117 140.96755 150.60028 157.15665 163.73484 167.2912 172.74575 176.30211 179.47666 185.43303 191.78212 197.23667 203.13849 209.20395 213.51305 218.96759 225.52396 234.60033 239.44397 244.89852 248.07306 252.9167 259.4949 262.66947 268.12403 271.6804 276.90586 284.25859 287.81495 294.16404 302.11677 308.67314 312.78587 318.74223 324.77497 330.22953 336.26228 339.43684 342.6114 345.78596 349.34233 358.13505 364.0914 370.4514 375.90596 384.9823 388.15687 394.50596 399.9605 404.80415 408.3605 411.53507 417.6987 425.65144 429.76417 434.98963 441.05509 444.21876 450.1751 459.25148 465.20783 471.5678 476.19328 479.36784 484.8224">Thenthefollowingcomputationalgraphcalculatestheprobabilityofaninactiveregionofsize</tspan></text>
<text xml:space="preserve" transform="matrix(2.574549 0 -0 2.576995 -784.3065 1349.002)" font-size="10.9091" font-family="CMMI10" font-style="italic"><tspan y="-639.541" x="492.779">l</tspan></text>
<text xml:space="preserve" transform="matrix(2.574549 0 -0 2.576995 -784.3065 1349.002)" font-size="10.9091" font-family="CMSY10" font-style="italic"><tspan y="-639.541" x="498.673">&#x2192;</tspan></text>
<text xml:space="preserve" transform="matrix(2.574549 0 -0 2.576995 -784.3065 1349.002)" font-size="10.9091" font-family="CMMI10" font-style="italic"><tspan y="-639.541" x="509.582">t</tspan></text>
<text xml:space="preserve" transform="matrix(2.574549 0 -0 2.576995 -784.3065 1349.002)" font-size="10.9091" font-family="URWPalladioL"><tspan y="-639.541" x="513.521">:</tspan></text>
<text xml:space="preserve" transform="matrix(2.574549 0 -0 2.576995 -784.3065 1349.002)" font-size="10.9091" font-family="CMMI10" font-style="italic"><tspan y="-471.038" x="81.33">p</tspan></text>
<text xml:space="preserve" transform="matrix(2.574549 0 -0 2.576995 -784.3065 1349.002)" font-size="7.9701" font-family="CMR8"><tspan y="-469.402" x="86.819 89.170978 93.87413 98.10705 101.869739 105.162189 107.51416 111.74708">inactive</tspan></text>
<text xml:space="preserve" transform="matrix(2.574549 0 -0 2.576995 -784.3065 1349.002)" font-size="10.9091" font-family="CMR10"><tspan y="-471.038" x="116.015">(</tspan></text>
<text xml:space="preserve" transform="matrix(2.574549 0 -0 2.576995 -784.3065 1349.002)" font-size="10.9091" font-family="CMMI10" font-style="italic"><tspan y="-471.038" x="120.257 123.73046 128.56757">l,t</tspan></text>
<text xml:space="preserve" transform="matrix(2.574549 0 -0 2.576995 -784.3065 1349.002)" font-size="10.9091" font-family="CMR10"><tspan y="-471.038" x="132.515">;</tspan></text>
<text xml:space="preserve" transform="matrix(2.574549 0 -0 2.576995 -784.3065 1349.002)" font-size="10.9091" font-family="CMMI10" font-style="italic"><tspan y="-471.038" x="137.363 144.78774 149.63793">L,T</tspan></text>
<text xml:space="preserve" transform="matrix(2.574549 0 -0 2.576995 -784.3065 1349.002)" font-size="10.9091" font-family="CMR10"><tspan y="-471.038" x="157.526 164.80129">)=</tspan></text>
<text xml:space="preserve" transform="matrix(2.574549 0 -0 2.576995 -784.3065 1349.002)" font-size="10.9091" font-family="CMR10"><tspan y="-478.418" x="180.75">1</tspan></text>
<path transform="matrix(2.574549,0,0,-2.576995,-327.2984,128.1096)" stroke-width=".436" stroke-linecap="butt" stroke-miterlimit="10" stroke-linejoin="miter" fill="none" stroke="#000000" d="M0 0H11.935"/>
<text xml:space="preserve" transform="matrix(2.574549 0 -0 2.576995 -784.3065 1349.002)" font-size="10.9091" font-family="CMMI10" font-style="italic"><tspan y="-463.555" x="177.51">d</tspan></text>
<text xml:space="preserve" transform="matrix(2.574549 0 -0 2.576995 -784.3065 1349.002)" font-size="7.9701" font-family="CMMI8" font-style="italic"><tspan y="-466.707" x="183.188">L</tspan></text>
<text xml:space="preserve" transform="matrix(2.574549 0 -0 2.576995 -784.3065 1349.002)" font-size="10.9091" font-family="CMSY10" font-style="italic"><tspan y="-471.038" x="193.065">&#x2192;</tspan></text>
<path transform="matrix(2.574549,0,0,-2.576995,-236.2469,507.6906)" stroke-width=".79701" stroke-linecap="butt" stroke-dasharray=".79701,1.99255" stroke-miterlimit="10" stroke-linejoin="miter" fill="none" stroke="#bfbfbf" d="M-8.50412-8.50412H297.6445M-8.50412 25.51236H297.6445M-8.50412 59.52888H297.6445M-8.50412 93.5454H297.6445M-8.50412 127.5619H297.6445M-8.50412 161.5785H297.6445M-8.50412 195.595H297.6445M-8.50412 229.6115H297.6445M-8.50412 263.628H297.6445M-8.50412 297.6445H297.6445M-8.50412-8.50412V297.6445M25.51236-8.50412V297.6445M59.52888-8.50412V297.6445M93.5454-8.50412V297.6445M127.5619-8.50412V297.6445M161.5785-8.50412V297.6445M195.595-8.50412V297.6445M229.6115-8.50412V297.6445M263.628-8.50412V297.6445M297.6445-8.50412V297.6445"/>
<path transform="matrix(0,-2.576995,-2.574549,-0,-258.1412,138.2406)" stroke-width="1.27522" stroke-linecap="round" stroke-linejoin="round" fill="none" stroke="#bfbfbf" d="M-2.27148 3.02866C-2.0822 1.8929 0 .18927 .56786 0 0-.18927-2.0822-1.8929-2.27148-3.02866"/>
<path transform="matrix(0,-2.576995,-2.574549,-0,530.0534,138.2406)" stroke-width="1.27522" stroke-linecap="round" stroke-linejoin="round" fill="none" stroke="#bfbfbf" d="M-2.27148 3.02866C-2.0822 1.8929 0 .18927 .56786 0 0-.18927-2.0822-1.8929-2.27148-3.02866"/>
<path transform="matrix(2.574549,0,0,-2.576995,-236.2469,507.6906)" d="M63.78096 63.78096 59.52888 59.52888M72.28508 63.78096 76.53716 59.52888M63.78096 72.28508 59.52888 76.53716M72.28508 72.28508 76.53716 76.53716M63.78096 64.77724V71.2888C63.78096 71.83904 64.227 72.28508 64.77724 72.28508H71.2888C71.83904 72.28508 72.28508 71.83904 72.28508 71.2888V64.77724C72.28508 64.227 71.83904 63.78096 71.2888 63.78096H64.77724C64.227 63.78096 63.78096 64.227 63.78096 64.77724ZM72.28508 72.28508" fill="#ffffff"/>
<path transform="matrix(2.574549,0,0,-2.576995,-236.2469,507.6906)" stroke-width=".79701" stroke-linecap="butt" stroke-miterlimit="10" stroke-linejoin="miter" fill="none" stroke="#000000" d="M63.78096 63.78096 59.52888 59.52888M72.28508 63.78096 76.53716 59.52888M63.78096 72.28508 59.52888 76.53716M72.28508 72.28508 76.53716 76.53716M63.78096 64.77724V71.2888C63.78096 71.83904 64.227 72.28508 64.77724 72.28508H71.2888C71.83904 72.28508 72.28508 71.83904 72.28508 71.2888V64.77724C72.28508 64.227 71.83904 63.78096 71.2888 63.78096H64.77724C64.227 63.78096 63.78096 64.227 63.78096 64.77724ZM72.28508 72.28508"/>
<path transform="matrix(2.574549,0,0,-2.576995,-236.2469,507.6906)" stroke-width=".79701" stroke-linecap="butt" stroke-miterlimit="10" stroke-linejoin="miter" fill="none" stroke="#000000" d="M68.03302 71.26463H70.26836C70.81859 71.26463 71.26463 70.81859 71.26463 70.26836V68.03302"/>
<path transform="matrix(2.574549,0,0,-2.576995,-236.2469,507.6906)" d="M80.78922 80.78922 76.53716 76.53716M89.29335 80.78922 93.5454 76.53716M80.78922 89.29335 76.53716 93.5454M89.29335 89.29335 93.5454 93.5454M80.78922 81.78549V88.29707C80.78922 88.8473 81.23526 89.29335 81.78549 89.29335H88.29707C88.8473 89.29335 89.29335 88.8473 89.29335 88.29707V81.78549C89.29335 81.23526 88.8473 80.78922 88.29707 80.78922H81.78549C81.23526 80.78922 80.78922 81.23526 80.78922 81.78549ZM89.29335 89.29335" fill="#ffffff"/>
<path transform="matrix(2.574549,0,0,-2.576995,-236.2469,507.6906)" stroke-width=".79701" stroke-linecap="butt" stroke-miterlimit="10" stroke-linejoin="miter" fill="none" stroke="#000000" d="M80.78922 80.78922 76.53716 76.53716M89.29335 80.78922 93.5454 76.53716M80.78922 89.29335 76.53716 93.5454M89.29335 89.29335 93.5454 93.5454M80.78922 81.78549V88.29707C80.78922 88.8473 81.23526 89.29335 81.78549 89.29335H88.29707C88.8473 89.29335 89.29335 88.8473 89.29335 88.29707V81.78549C89.29335 81.23526 88.8473 80.78922 88.29707 80.78922H81.78549C81.23526 80.78922 80.78922 81.23526 80.78922 81.78549ZM89.29335 89.29335"/>
<path transform="matrix(2.574549,0,0,-2.576995,-236.2469,507.6906)" stroke-width=".79701" stroke-linecap="butt" stroke-miterlimit="10" stroke-linejoin="miter" fill="none" stroke="#000000" d="M85.04128 88.27287H87.2766C87.82684 88.27287 88.27287 87.82684 88.27287 87.2766V85.04128"/>
<path transform="matrix(2.574549,0,0,-2.576995,-236.2469,507.6906)" d="M97.79747 63.78096 93.5454 59.52888M106.3016 63.78096 110.5537 59.52888M97.79747 72.28508 93.5454 76.53716M106.3016 72.28508 110.5537 76.53716M97.79747 64.77724V71.2888C97.79747 71.83904 98.2435 72.28508 98.79375 72.28508H105.3053C105.8556 72.28508 106.3016 71.83904 106.3016 71.2888V64.77724C106.3016 64.227 105.8556 63.78096 105.3053 63.78096H98.79375C98.2435 63.78096 97.79747 64.227 97.79747 64.77724ZM106.3016 72.28508" fill="#ffffff"/>
<path transform="matrix(2.574549,0,0,-2.576995,-236.2469,507.6906)" stroke-width=".79701" stroke-linecap="butt" stroke-miterlimit="10" stroke-linejoin="miter" fill="none" stroke="#000000" d="M97.79747 63.78096 93.5454 59.52888M106.3016 63.78096 110.5537 59.52888M97.79747 72.28508 93.5454 76.53716M106.3016 72.28508 110.5537 76.53716M97.79747 64.77724V71.2888C97.79747 71.83904 98.2435 72.28508 98.79375 72.28508H105.3053C105.8556 72.28508 106.3016 71.83904 106.3016 71.2888V64.77724C106.3016 64.227 105.8556 63.78096 105.3053 63.78096H98.79375C98.2435 63.78096 97.79747 64.227 97.79747 64.77724ZM106.3016 72.28508"/>
<path transform="matrix(2.574549,0,0,-2.576995,-236.2469,507.6906)" stroke-width=".79701" stroke-linecap="butt" stroke-miterlimit="10" stroke-linejoin="miter" fill="none" stroke="#000000" d="M102.0495 71.26463H104.2849C104.8351 71.26463 105.2811 70.81859 105.2811 70.26836V68.03302"/>
<path transform="matrix(2.574549,0,0,-2.576995,-236.2469,507.6906)" d="M114.8057 80.78922 110.5537 76.53716M123.3098 80.78922 127.5619 76.53716M114.8057 89.29335 110.5537 93.5454M123.3098 89.29335 127.5619 93.5454M114.8057 81.78549V88.29707C114.8057 88.8473 115.2518 89.29335 115.802 89.29335H122.3136C122.8638 89.29335 123.3098 88.8473 123.3098 88.29707V81.78549C123.3098 81.23526 122.8638 80.78922 122.3136 80.78922H115.802C115.2518 80.78922 114.8057 81.23526 114.8057 81.78549ZM123.3098 89.29335" fill="#ffffff"/>
<path transform="matrix(2.574549,0,0,-2.576995,-236.2469,507.6906)" stroke-width=".79701" stroke-linecap="butt" stroke-miterlimit="10" stroke-linejoin="miter" fill="none" stroke="#000000" d="M114.8057 80.78922 110.5537 76.53716M123.3098 80.78922 127.5619 76.53716M114.8057 89.29335 110.5537 93.5454M123.3098 89.29335 127.5619 93.5454M114.8057 81.78549V88.29707C114.8057 88.8473 115.2518 89.29335 115.802 89.29335H122.3136C122.8638 89.29335 123.3098 88.8473 123.3098 88.29707V81.78549C123.3098 81.23526 122.8638 80.78922 122.3136 80.78922H115.802C115.2518 80.78922 114.8057 81.23526 114.8057 81.78549ZM123.3098 89.29335"/>
<path transform="matrix(2.574549,0,0,-2.576995,-236.2469,507.6906)" stroke-width=".79701" stroke-linecap="butt" stroke-miterlimit="10" stroke-linejoin="miter" fill="none" stroke="#000000" d="M119.0578 88.27287H121.2931C121.8434 88.27287 122.2894 87.82684 122.2894 87.2766V85.04128"/>
<path transform="matrix(2.574549,0,0,-2.576995,-236.2469,507.6906)" d="M131.814 63.78096 127.5619 59.52888M140.3181 63.78096 144.5702 59.52888M131.814 72.28508 127.5619 76.53716M140.3181 72.28508 144.5702 76.53716M131.814 64.77724V71.2888C131.814 71.83904 132.26 72.28508 132.8103 72.28508H139.3218C139.8721 72.28508 140.3181 71.83904 140.3181 71.2888V64.77724C140.3181 64.227 139.8721 63.78096 139.3218 63.78096H132.8103C132.26 63.78096 131.814 64.227 131.814 64.77724ZM140.3181 72.28508" fill="#ffffff"/>
<path transform="matrix(2.574549,0,0,-2.576995,-236.2469,507.6906)" stroke-width=".79701" stroke-linecap="butt" stroke-miterlimit="10" stroke-linejoin="miter" fill="none" stroke="#000000" d="M131.814 63.78096 127.5619 59.52888M140.3181 63.78096 144.5702 59.52888M131.814 72.28508 127.5619 76.53716M140.3181 72.28508 144.5702 76.53716M131.814 64.77724V71.2888C131.814 71.83904 132.26 72.28508 132.8103 72.28508H139.3218C139.8721 72.28508 140.3181 71.83904 140.3181 71.2888V64.77724C140.3181 64.227 139.8721 63.78096 139.3218 63.78096H132.8103C132.26 63.78096 131.814 64.227 131.814 64.77724ZM140.3181 72.28508"/>
<path transform="matrix(2.574549,0,0,-2.576995,-236.2469,507.6906)" stroke-width=".79701" stroke-linecap="butt" stroke-miterlimit="10" stroke-linejoin="miter" fill="none" stroke="#000000" d="M136.0661 71.26463H138.3014C138.8516 71.26463 139.2977 70.81859 139.2977 70.26836V68.03302"/>
<path transform="matrix(2.574549,0,0,-2.576995,-236.2469,507.6906)" d="M148.8223 80.78922 144.5702 76.53716M157.3264 80.78922 161.5785 76.53716M148.8223 89.29335 144.5702 93.5454M157.3264 89.29335 161.5785 93.5454M148.8223 81.78549V88.29707C148.8223 88.8473 149.2683 89.29335 149.8185 89.29335H156.3301C156.8803 89.29335 157.3264 88.8473 157.3264 88.29707V81.78549C157.3264 81.23526 156.8803 80.78922 156.3301 80.78922H149.8185C149.2683 80.78922 148.8223 81.23526 148.8223 81.78549ZM157.3264 89.29335" fill="#ffffff"/>
<path transform="matrix(2.574549,0,0,-2.576995,-236.2469,507.6906)" stroke-width=".79701" stroke-linecap="butt" stroke-miterlimit="10" stroke-linejoin="miter" fill="none" stroke="#000000" d="M148.8223 80.78922 144.5702 76.53716M157.3264 80.78922 161.5785 76.53716M148.8223 89.29335 144.5702 93.5454M157.3264 89.29335 161.5785 93.5454M148.8223 81.78549V88.29707C148.8223 88.8473 149.2683 89.29335 149.8185 89.29335H156.3301C156.8803 89.29335 157.3264 88.8473 157.3264 88.29707V81.78549C157.3264 81.23526 156.8803 80.78922 156.3301 80.78922H149.8185C149.2683 80.78922 148.8223 81.23526 148.8223 81.78549ZM157.3264 89.29335"/>
<path transform="matrix(2.574549,0,0,-2.576995,-236.2469,507.6906)" stroke-width=".79701" stroke-linecap="butt" stroke-miterlimit="10" stroke-linejoin="miter" fill="none" stroke="#000000" d="M153.0743 88.27287H155.3096C155.8599 88.27287 156.3059 87.82684 156.3059 87.2766V85.04128"/>
<path transform="matrix(2.574549,0,0,-2.576995,-236.2469,507.6906)" d="M165.8305 63.78096 161.5785 59.52888M174.3346 63.78096 178.5867 59.52888M165.8305 72.28508 161.5785 76.53716M174.3346 72.28508 178.5867 76.53716M165.8305 64.77724V71.2888C165.8305 71.83904 166.2765 72.28508 166.8268 72.28508H173.3384C173.8886 72.28508 174.3346 71.83904 174.3346 71.2888V64.77724C174.3346 64.227 173.8886 63.78096 173.3384 63.78096H166.8268C166.2765 63.78096 165.8305 64.227 165.8305 64.77724ZM174.3346 72.28508" fill="#ffffff"/>
<path transform="matrix(2.574549,0,0,-2.576995,-236.2469,507.6906)" stroke-width=".79701" stroke-linecap="butt" stroke-miterlimit="10" stroke-linejoin="miter" fill="none" stroke="#000000" d="M165.8305 63.78096 161.5785 59.52888M174.3346 63.78096 178.5867 59.52888M165.8305 72.28508 161.5785 76.53716M174.3346 72.28508 178.5867 76.53716M165.8305 64.77724V71.2888C165.8305 71.83904 166.2765 72.28508 166.8268 72.28508H173.3384C173.8886 72.28508 174.3346 71.83904 174.3346 71.2888V64.77724C174.3346 64.227 173.8886 63.78096 173.3384 63.78096H166.8268C166.2765 63.78096 165.8305 64.227 165.8305 64.77724ZM174.3346 72.28508"/>
<path transform="matrix(2.574549,0,0,-2.576995,-236.2469,507.6906)" stroke-width=".79701" stroke-linecap="butt" stroke-miterlimit="10" stroke-linejoin="miter" fill="none" stroke="#000000" d="M170.0826 71.26463H172.3179C172.8681 71.26463 173.3142 70.81859 173.3142 70.26836V68.03302"/>
<path transform="matrix(2.574549,0,0,-2.576995,-236.2469,507.6906)" d="M182.8388 80.78922 178.5867 76.53716M191.3429 80.78922 195.595 76.53716M182.8388 89.29335 178.5867 93.5454M191.3429 89.29335 195.595 93.5454M182.8388 81.78549V88.29707C182.8388 88.8473 183.2848 89.29335 183.835 89.29335H190.3466C190.8969 89.29335 191.3429 88.8473 191.3429 88.29707V81.78549C191.3429 81.23526 190.8969 80.78922 190.3466 80.78922H183.835C183.2848 80.78922 182.8388 81.23526 182.8388 81.78549ZM191.3429 89.29335" fill="#ffffff"/>
<path transform="matrix(2.574549,0,0,-2.576995,-236.2469,507.6906)" stroke-width=".79701" stroke-linecap="butt" stroke-miterlimit="10" stroke-linejoin="miter" fill="none" stroke="#000000" d="M182.8388 80.78922 178.5867 76.53716M191.3429 80.78922 195.595 76.53716M182.8388 89.29335 178.5867 93.5454M191.3429 89.29335 195.595 93.5454M182.8388 81.78549V88.29707C182.8388 88.8473 183.2848 89.29335 183.835 89.29335H190.3466C190.8969 89.29335 191.3429 88.8473 191.3429 88.29707V81.78549C191.3429 81.23526 190.8969 80.78922 190.3466 80.78922H183.835C183.2848 80.78922 182.8388 81.23526 182.8388 81.78549ZM191.3429 89.29335"/>
<path transform="matrix(2.574549,0,0,-2.576995,-236.2469,507.6906)" stroke-width=".79701" stroke-linecap="butt" stroke-miterlimit="10" stroke-linejoin="miter" fill="none" stroke="#000000" d="M187.0908 88.27287H189.3262C189.8764 88.27287 190.3224 87.82684 190.3224 87.2766V85.04128"/>
<path transform="matrix(2.574549,0,0,-2.576995,-236.2469,507.6906)" d="M63.78096 97.79747 59.52888 93.5454M72.28508 97.79747 76.53716 93.5454M63.78096 106.3016 59.52888 110.5537M72.28508 106.3016 76.53716 110.5537M63.78096 98.79375V105.3053C63.78096 105.8555 64.227 106.3016 64.77724 106.3016H71.2888C71.83904 106.3016 72.28508 105.8555 72.28508 105.3053V98.79375C72.28508 98.2435 71.83904 97.79747 71.2888 97.79747H64.77724C64.227 97.79747 63.78096 98.2435 63.78096 98.79375ZM72.28508 106.3016" fill="#ffffff"/>
<path transform="matrix(2.574549,0,0,-2.576995,-236.2469,507.6906)" stroke-width=".79701" stroke-linecap="butt" stroke-miterlimit="10" stroke-linejoin="miter" fill="none" stroke="#000000" d="M63.78096 97.79747 59.52888 93.5454M72.28508 97.79747 76.53716 93.5454M63.78096 106.3016 59.52888 110.5537M72.28508 106.3016 76.53716 110.5537M63.78096 98.79375V105.3053C63.78096 105.8555 64.227 106.3016 64.77724 106.3016H71.2888C71.83904 106.3016 72.28508 105.8555 72.28508 105.3053V98.79375C72.28508 98.2435 71.83904 97.79747 71.2888 97.79747H64.77724C64.227 97.79747 63.78096 98.2435 63.78096 98.79375ZM72.28508 106.3016"/>
<path transform="matrix(2.574549,0,0,-2.576995,-236.2469,507.6906)" stroke-width=".79701" stroke-linecap="butt" stroke-miterlimit="10" stroke-linejoin="miter" fill="none" stroke="#000000" d="M68.03302 105.2811H70.26836C70.81859 105.2811 71.26463 104.8351 71.26463 104.2849V102.0495"/>
<path transform="matrix(2.574549,0,0,-2.576995,-236.2469,507.6906)" d="M80.78922 114.8057 76.53716 110.5537M89.29335 114.8057 93.5454 110.5537M80.78922 123.3098 76.53716 127.5619M89.29335 123.3098 93.5454 127.5619M80.78922 115.802V122.3136C80.78922 122.8638 81.23526 123.3098 81.78549 123.3098H88.29707C88.8473 123.3098 89.29335 122.8638 89.29335 122.3136V115.802C89.29335 115.2518 88.8473 114.8057 88.29707 114.8057H81.78549C81.23526 114.8057 80.78922 115.2518 80.78922 115.802ZM89.29335 123.3098" fill="#ffffff"/>
<path transform="matrix(2.574549,0,0,-2.576995,-236.2469,507.6906)" stroke-width=".79701" stroke-linecap="butt" stroke-miterlimit="10" stroke-linejoin="miter" fill="none" stroke="#000000" d="M80.78922 114.8057 76.53716 110.5537M89.29335 114.8057 93.5454 110.5537M80.78922 123.3098 76.53716 127.5619M89.29335 123.3098 93.5454 127.5619M80.78922 115.802V122.3136C80.78922 122.8638 81.23526 123.3098 81.78549 123.3098H88.29707C88.8473 123.3098 89.29335 122.8638 89.29335 122.3136V115.802C89.29335 115.2518 88.8473 114.8057 88.29707 114.8057H81.78549C81.23526 114.8057 80.78922 115.2518 80.78922 115.802ZM89.29335 123.3098"/>
<path transform="matrix(2.574549,0,0,-2.576995,-236.2469,507.6906)" stroke-width=".79701" stroke-linecap="butt" stroke-miterlimit="10" stroke-linejoin="miter" fill="none" stroke="#000000" d="M85.04128 122.2894H87.2766C87.82684 122.2894 88.27287 121.8434 88.27287 121.2931V119.0578"/>
<path transform="matrix(2.574549,0,0,-2.576995,-236.2469,507.6906)" d="M97.79747 97.79747 93.5454 93.5454M106.3016 97.79747 110.5537 93.5454M97.79747 106.3016 93.5454 110.5537M106.3016 106.3016 110.5537 110.5537M97.79747 98.79375V105.3053C97.79747 105.8555 98.2435 106.3016 98.79375 106.3016H105.3053C105.8556 106.3016 106.3016 105.8555 106.3016 105.3053V98.79375C106.3016 98.2435 105.8556 97.79747 105.3053 97.79747H98.79375C98.2435 97.79747 97.79747 98.2435 97.79747 98.79375ZM106.3016 106.3016" fill="#ffffff"/>
<path transform="matrix(2.574549,0,0,-2.576995,-236.2469,507.6906)" stroke-width=".79701" stroke-linecap="butt" stroke-miterlimit="10" stroke-linejoin="miter" fill="none" stroke="#000000" d="M97.79747 97.79747 93.5454 93.5454M106.3016 97.79747 110.5537 93.5454M97.79747 106.3016 93.5454 110.5537M106.3016 106.3016 110.5537 110.5537M97.79747 98.79375V105.3053C97.79747 105.8555 98.2435 106.3016 98.79375 106.3016H105.3053C105.8556 106.3016 106.3016 105.8555 106.3016 105.3053V98.79375C106.3016 98.2435 105.8556 97.79747 105.3053 97.79747H98.79375C98.2435 97.79747 97.79747 98.2435 97.79747 98.79375ZM106.3016 106.3016"/>
<path transform="matrix(2.574549,0,0,-2.576995,-236.2469,507.6906)" stroke-width=".79701" stroke-linecap="butt" stroke-miterlimit="10" stroke-linejoin="miter" fill="none" stroke="#000000" d="M102.0495 105.2811H104.2849C104.8351 105.2811 105.2811 104.8351 105.2811 104.2849V102.0495"/>
<path transform="matrix(2.574549,0,0,-2.576995,-236.2469,507.6906)" d="M114.8057 114.8057 110.5537 110.5537M123.3098 114.8057 127.5619 110.5537M114.8057 123.3098 110.5537 127.5619M123.3098 123.3098 127.5619 127.5619M114.8057 115.802V122.3136C114.8057 122.8638 115.2518 123.3098 115.802 123.3098H122.3136C122.8638 123.3098 123.3098 122.8638 123.3098 122.3136V115.802C123.3098 115.2518 122.8638 114.8057 122.3136 114.8057H115.802C115.2518 114.8057 114.8057 115.2518 114.8057 115.802ZM123.3098 123.3098" fill="#ffffff"/>
<path transform="matrix(2.574549,0,0,-2.576995,-236.2469,507.6906)" stroke-width=".79701" stroke-linecap="butt" stroke-miterlimit="10" stroke-linejoin="miter" fill="none" stroke="#000000" d="M114.8057 114.8057 110.5537 110.5537M123.3098 114.8057 127.5619 110.5537M114.8057 123.3098 110.5537 127.5619M123.3098 123.3098 127.5619 127.5619M114.8057 115.802V122.3136C114.8057 122.8638 115.2518 123.3098 115.802 123.3098H122.3136C122.8638 123.3098 123.3098 122.8638 123.3098 122.3136V115.802C123.3098 115.2518 122.8638 114.8057 122.3136 114.8057H115.802C115.2518 114.8057 114.8057 115.2518 114.8057 115.802ZM123.3098 123.3098"/>
<path transform="matrix(2.574549,0,0,-2.576995,-236.2469,507.6906)" stroke-width=".79701" stroke-linecap="butt" stroke-miterlimit="10" stroke-linejoin="miter" fill="none" stroke="#000000" d="M119.0578 122.2894H121.2931C121.8434 122.2894 122.2894 121.8434 122.2894 121.2931V119.0578"/>
<path transform="matrix(2.574549,0,0,-2.576995,-236.2469,507.6906)" d="M131.814 97.79747 127.5619 93.5454M140.3181 97.79747 144.5702 93.5454M131.814 106.3016 127.5619 110.5537M140.3181 106.3016 144.5702 110.5537M131.814 98.79375V105.3053C131.814 105.8555 132.26 106.3016 132.8103 106.3016H139.3218C139.8721 106.3016 140.3181 105.8555 140.3181 105.3053V98.79375C140.3181 98.2435 139.8721 97.79747 139.3218 97.79747H132.8103C132.26 97.79747 131.814 98.2435 131.814 98.79375ZM140.3181 106.3016" fill="#ffffff"/>
<path transform="matrix(2.574549,0,0,-2.576995,-236.2469,507.6906)" stroke-width=".79701" stroke-linecap="butt" stroke-miterlimit="10" stroke-linejoin="miter" fill="none" stroke="#000000" d="M131.814 97.79747 127.5619 93.5454M140.3181 97.79747 144.5702 93.5454M131.814 106.3016 127.5619 110.5537M140.3181 106.3016 144.5702 110.5537M131.814 98.79375V105.3053C131.814 105.8555 132.26 106.3016 132.8103 106.3016H139.3218C139.8721 106.3016 140.3181 105.8555 140.3181 105.3053V98.79375C140.3181 98.2435 139.8721 97.79747 139.3218 97.79747H132.8103C132.26 97.79747 131.814 98.2435 131.814 98.79375ZM140.3181 106.3016"/>
<path transform="matrix(2.574549,0,0,-2.576995,-236.2469,507.6906)" stroke-width=".79701" stroke-linecap="butt" stroke-miterlimit="10" stroke-linejoin="miter" fill="none" stroke="#000000" d="M136.0661 105.2811H138.3014C138.8516 105.2811 139.2977 104.8351 139.2977 104.2849V102.0495"/>
<path transform="matrix(2.574549,0,0,-2.576995,-236.2469,507.6906)" d="M148.8223 114.8057 144.5702 110.5537M157.3264 114.8057 161.5785 110.5537M148.8223 123.3098 144.5702 127.5619M157.3264 123.3098 161.5785 127.5619M148.8223 115.802V122.3136C148.8223 122.8638 149.2683 123.3098 149.8185 123.3098H156.3301C156.8803 123.3098 157.3264 122.8638 157.3264 122.3136V115.802C157.3264 115.2518 156.8803 114.8057 156.3301 114.8057H149.8185C149.2683 114.8057 148.8223 115.2518 148.8223 115.802ZM157.3264 123.3098" fill="#ffffff"/>
<path transform="matrix(2.574549,0,0,-2.576995,-236.2469,507.6906)" stroke-width=".79701" stroke-linecap="butt" stroke-miterlimit="10" stroke-linejoin="miter" fill="none" stroke="#000000" d="M148.8223 114.8057 144.5702 110.5537M157.3264 114.8057 161.5785 110.5537M148.8223 123.3098 144.5702 127.5619M157.3264 123.3098 161.5785 127.5619M148.8223 115.802V122.3136C148.8223 122.8638 149.2683 123.3098 149.8185 123.3098H156.3301C156.8803 123.3098 157.3264 122.8638 157.3264 122.3136V115.802C157.3264 115.2518 156.8803 114.8057 156.3301 114.8057H149.8185C149.2683 114.8057 148.8223 115.2518 148.8223 115.802ZM157.3264 123.3098"/>
<path transform="matrix(2.574549,0,0,-2.576995,-236.2469,507.6906)" stroke-width=".79701" stroke-linecap="butt" stroke-miterlimit="10" stroke-linejoin="miter" fill="none" stroke="#000000" d="M153.0743 122.2894H155.3096C155.8599 122.2894 156.3059 121.8434 156.3059 121.2931V119.0578"/>
<path transform="matrix(2.574549,0,0,-2.576995,-236.2469,507.6906)" d="M165.8305 97.79747 161.5785 93.5454M174.3346 97.79747 178.5867 93.5454M165.8305 106.3016 161.5785 110.5537M174.3346 106.3016 178.5867 110.5537M165.8305 98.79375V105.3053C165.8305 105.8555 166.2765 106.3016 166.8268 106.3016H173.3384C173.8886 106.3016 174.3346 105.8555 174.3346 105.3053V98.79375C174.3346 98.2435 173.8886 97.79747 173.3384 97.79747H166.8268C166.2765 97.79747 165.8305 98.2435 165.8305 98.79375ZM174.3346 106.3016" fill="#ffffff"/>
<path transform="matrix(2.574549,0,0,-2.576995,-236.2469,507.6906)" stroke-width=".79701" stroke-linecap="butt" stroke-miterlimit="10" stroke-linejoin="miter" fill="none" stroke="#000000" d="M165.8305 97.79747 161.5785 93.5454M174.3346 97.79747 178.5867 93.5454M165.8305 106.3016 161.5785 110.5537M174.3346 106.3016 178.5867 110.5537M165.8305 98.79375V105.3053C165.8305 105.8555 166.2765 106.3016 166.8268 106.3016H173.3384C173.8886 106.3016 174.3346 105.8555 174.3346 105.3053V98.79375C174.3346 98.2435 173.8886 97.79747 173.3384 97.79747H166.8268C166.2765 97.79747 165.8305 98.2435 165.8305 98.79375ZM174.3346 106.3016"/>
<path transform="matrix(2.574549,0,0,-2.576995,-236.2469,507.6906)" stroke-width=".79701" stroke-linecap="butt" stroke-miterlimit="10" stroke-linejoin="miter" fill="none" stroke="#000000" d="M170.0826 105.2811H172.3179C172.8681 105.2811 173.3142 104.8351 173.3142 104.2849V102.0495"/>
<path transform="matrix(2.574549,0,0,-2.576995,-236.2469,507.6906)" d="M182.8388 114.8057 178.5867 110.5537M191.3429 114.8057 195.595 110.5537M182.8388 123.3098 178.5867 127.5619M191.3429 123.3098 195.595 127.5619M182.8388 115.802V122.3136C182.8388 122.8638 183.2848 123.3098 183.835 123.3098H190.3466C190.8969 123.3098 191.3429 122.8638 191.3429 122.3136V115.802C191.3429 115.2518 190.8969 114.8057 190.3466 114.8057H183.835C183.2848 114.8057 182.8388 115.2518 182.8388 115.802ZM191.3429 123.3098" fill="#ffffff"/>
<path transform="matrix(2.574549,0,0,-2.576995,-236.2469,507.6906)" stroke-width=".79701" stroke-linecap="butt" stroke-miterlimit="10" stroke-linejoin="miter" fill="none" stroke="#000000" d="M182.8388 114.8057 178.5867 110.5537M191.3429 114.8057 195.595 110.5537M182.8388 123.3098 178.5867 127.5619M191.3429 123.3098 195.595 127.5619M182.8388 115.802V122.3136C182.8388 122.8638 183.2848 123.3098 183.835 123.3098H190.3466C190.8969 123.3098 191.3429 122.8638 191.3429 122.3136V115.802C191.3429 115.2518 190.8969 114.8057 190.3466 114.8057H183.835C183.2848 114.8057 182.8388 115.2518 182.8388 115.802ZM191.3429 123.3098"/>
<path transform="matrix(2.574549,0,0,-2.576995,-236.2469,507.6906)" stroke-width=".79701" stroke-linecap="butt" stroke-miterlimit="10" stroke-linejoin="miter" fill="none" stroke="#000000" d="M187.0908 122.2894H189.3262C189.8764 122.2894 190.3224 121.8434 190.3224 121.2931V119.0578"/>
<path transform="matrix(2.574549,0,0,-2.576995,-236.2469,507.6906)" d="M63.78096 131.814 59.52888 127.5619M72.28508 131.814 76.53716 127.5619M63.78096 140.3181 59.52888 144.5702M72.28508 140.3181 76.53716 144.5702M63.78096 132.8103V139.3218C63.78096 139.8721 64.227 140.3181 64.77724 140.3181H71.2888C71.83904 140.3181 72.28508 139.8721 72.28508 139.3218V132.8103C72.28508 132.26 71.83904 131.814 71.2888 131.814H64.77724C64.227 131.814 63.78096 132.26 63.78096 132.8103ZM72.28508 140.3181" fill="#ffffff"/>
<path transform="matrix(2.574549,0,0,-2.576995,-236.2469,507.6906)" stroke-width=".79701" stroke-linecap="butt" stroke-miterlimit="10" stroke-linejoin="miter" fill="none" stroke="#000000" d="M63.78096 131.814 59.52888 127.5619M72.28508 131.814 76.53716 127.5619M63.78096 140.3181 59.52888 144.5702M72.28508 140.3181 76.53716 144.5702M63.78096 132.8103V139.3218C63.78096 139.8721 64.227 140.3181 64.77724 140.3181H71.2888C71.83904 140.3181 72.28508 139.8721 72.28508 139.3218V132.8103C72.28508 132.26 71.83904 131.814 71.2888 131.814H64.77724C64.227 131.814 63.78096 132.26 63.78096 132.8103ZM72.28508 140.3181"/>
<path transform="matrix(2.574549,0,0,-2.576995,-236.2469,507.6906)" stroke-width=".79701" stroke-linecap="butt" stroke-miterlimit="10" stroke-linejoin="miter" fill="none" stroke="#000000" d="M68.03302 139.2977H70.26836C70.81859 139.2977 71.26463 138.8516 71.26463 138.3014V136.0661"/>
<path transform="matrix(2.574549,0,0,-2.576995,-236.2469,507.6906)" d="M80.78922 148.8223 76.53716 144.5702M89.29335 148.8223 93.5454 144.5702M80.78922 157.3264 76.53716 161.5785M89.29335 157.3264 93.5454 161.5785M80.78922 149.8185V156.3301C80.78922 156.8803 81.23526 157.3264 81.78549 157.3264H88.29707C88.8473 157.3264 89.29335 156.8803 89.29335 156.3301V149.8185C89.29335 149.2683 88.8473 148.8223 88.29707 148.8223H81.78549C81.23526 148.8223 80.78922 149.2683 80.78922 149.8185ZM89.29335 157.3264" fill="#ffffff"/>
<path transform="matrix(2.574549,0,0,-2.576995,-236.2469,507.6906)" stroke-width=".79701" stroke-linecap="butt" stroke-miterlimit="10" stroke-linejoin="miter" fill="none" stroke="#000000" d="M80.78922 148.8223 76.53716 144.5702M89.29335 148.8223 93.5454 144.5702M80.78922 157.3264 76.53716 161.5785M89.29335 157.3264 93.5454 161.5785M80.78922 149.8185V156.3301C80.78922 156.8803 81.23526 157.3264 81.78549 157.3264H88.29707C88.8473 157.3264 89.29335 156.8803 89.29335 156.3301V149.8185C89.29335 149.2683 88.8473 148.8223 88.29707 148.8223H81.78549C81.23526 148.8223 80.78922 149.2683 80.78922 149.8185ZM89.29335 157.3264"/>
<path transform="matrix(2.574549,0,0,-2.576995,-236.2469,507.6906)" stroke-width=".79701" stroke-linecap="butt" stroke-miterlimit="10" stroke-linejoin="miter" fill="none" stroke="#000000" d="M85.04128 156.3059H87.2766C87.82684 156.3059 88.27287 155.8599 88.27287 155.3096V153.0743"/>
<path transform="matrix(2.574549,0,0,-2.576995,-236.2469,507.6906)" d="M97.79747 131.814 93.5454 127.5619M106.3016 131.814 110.5537 127.5619M97.79747 140.3181 93.5454 144.5702M106.3016 140.3181 110.5537 144.5702M97.79747 132.8103V139.3218C97.79747 139.8721 98.2435 140.3181 98.79375 140.3181H105.3053C105.8556 140.3181 106.3016 139.8721 106.3016 139.3218V132.8103C106.3016 132.26 105.8556 131.814 105.3053 131.814H98.79375C98.2435 131.814 97.79747 132.26 97.79747 132.8103ZM106.3016 140.3181" fill="#ffffff"/>
<path transform="matrix(2.574549,0,0,-2.576995,-236.2469,507.6906)" stroke-width=".79701" stroke-linecap="butt" stroke-miterlimit="10" stroke-linejoin="miter" fill="none" stroke="#000000" d="M97.79747 131.814 93.5454 127.5619M106.3016 131.814 110.5537 127.5619M97.79747 140.3181 93.5454 144.5702M106.3016 140.3181 110.5537 144.5702M97.79747 132.8103V139.3218C97.79747 139.8721 98.2435 140.3181 98.79375 140.3181H105.3053C105.8556 140.3181 106.3016 139.8721 106.3016 139.3218V132.8103C106.3016 132.26 105.8556 131.814 105.3053 131.814H98.79375C98.2435 131.814 97.79747 132.26 97.79747 132.8103ZM106.3016 140.3181"/>
<path transform="matrix(2.574549,0,0,-2.576995,-236.2469,507.6906)" stroke-width=".79701" stroke-linecap="butt" stroke-miterlimit="10" stroke-linejoin="miter" fill="none" stroke="#000000" d="M102.0495 139.2977H104.2849C104.8351 139.2977 105.2811 138.8516 105.2811 138.3014V136.0661"/>
<path transform="matrix(2.574549,0,0,-2.576995,-236.2469,507.6906)" d="M114.8057 148.8223 110.5537 144.5702M123.3098 148.8223 127.5619 144.5702M114.8057 157.3264 110.5537 161.5785M123.3098 157.3264 127.5619 161.5785M114.8057 149.8185V156.3301C114.8057 156.8803 115.2518 157.3264 115.802 157.3264H122.3136C122.8638 157.3264 123.3098 156.8803 123.3098 156.3301V149.8185C123.3098 149.2683 122.8638 148.8223 122.3136 148.8223H115.802C115.2518 148.8223 114.8057 149.2683 114.8057 149.8185ZM123.3098 157.3264" fill="#ffffff"/>
<path transform="matrix(2.574549,0,0,-2.576995,-236.2469,507.6906)" stroke-width=".79701" stroke-linecap="butt" stroke-miterlimit="10" stroke-linejoin="miter" fill="none" stroke="#000000" d="M114.8057 148.8223 110.5537 144.5702M123.3098 148.8223 127.5619 144.5702M114.8057 157.3264 110.5537 161.5785M123.3098 157.3264 127.5619 161.5785M114.8057 149.8185V156.3301C114.8057 156.8803 115.2518 157.3264 115.802 157.3264H122.3136C122.8638 157.3264 123.3098 156.8803 123.3098 156.3301V149.8185C123.3098 149.2683 122.8638 148.8223 122.3136 148.8223H115.802C115.2518 148.8223 114.8057 149.2683 114.8057 149.8185ZM123.3098 157.3264"/>
<path transform="matrix(2.574549,0,0,-2.576995,-236.2469,507.6906)" stroke-width=".79701" stroke-linecap="butt" stroke-miterlimit="10" stroke-linejoin="miter" fill="none" stroke="#000000" d="M119.0578 156.3059H121.2931C121.8434 156.3059 122.2894 155.8599 122.2894 155.3096V153.0743"/>
<path transform="matrix(2.574549,0,0,-2.576995,-236.2469,507.6906)" d="M131.814 131.814 127.5619 127.5619M140.3181 131.814 144.5702 127.5619M131.814 140.3181 127.5619 144.5702M140.3181 140.3181 144.5702 144.5702M131.814 132.8103V139.3218C131.814 139.8721 132.26 140.3181 132.8103 140.3181H139.3218C139.8721 140.3181 140.3181 139.8721 140.3181 139.3218V132.8103C140.3181 132.26 139.8721 131.814 139.3218 131.814H132.8103C132.26 131.814 131.814 132.26 131.814 132.8103ZM140.3181 140.3181" fill="#ffffff"/>
<path transform="matrix(2.574549,0,0,-2.576995,-236.2469,507.6906)" stroke-width=".79701" stroke-linecap="butt" stroke-miterlimit="10" stroke-linejoin="miter" fill="none" stroke="#000000" d="M131.814 131.814 127.5619 127.5619M140.3181 131.814 144.5702 127.5619M131.814 140.3181 127.5619 144.5702M140.3181 140.3181 144.5702 144.5702M131.814 132.8103V139.3218C131.814 139.8721 132.26 140.3181 132.8103 140.3181H139.3218C139.8721 140.3181 140.3181 139.8721 140.3181 139.3218V132.8103C140.3181 132.26 139.8721 131.814 139.3218 131.814H132.8103C132.26 131.814 131.814 132.26 131.814 132.8103ZM140.3181 140.3181"/>
<path transform="matrix(2.574549,0,0,-2.576995,-236.2469,507.6906)" stroke-width=".79701" stroke-linecap="butt" stroke-miterlimit="10" stroke-linejoin="miter" fill="none" stroke="#000000" d="M136.0661 139.2977H138.3014C138.8516 139.2977 139.2977 138.8516 139.2977 138.3014V136.0661"/>
<path transform="matrix(2.574549,0,0,-2.576995,-236.2469,507.6906)" d="M148.8223 148.8223 144.5702 144.5702M157.3264 148.8223 161.5785 144.5702M148.8223 157.3264 144.5702 161.5785M157.3264 157.3264 161.5785 161.5785M148.8223 149.8185V156.3301C148.8223 156.8803 149.2683 157.3264 149.8185 157.3264H156.3301C156.8803 157.3264 157.3264 156.8803 157.3264 156.3301V149.8185C157.3264 149.2683 156.8803 148.8223 156.3301 148.8223H149.8185C149.2683 148.8223 148.8223 149.2683 148.8223 149.8185ZM157.3264 157.3264" fill="#ffffff"/>
<path transform="matrix(2.574549,0,0,-2.576995,-236.2469,507.6906)" stroke-width=".79701" stroke-linecap="butt" stroke-miterlimit="10" stroke-linejoin="miter" fill="none" stroke="#000000" d="M148.8223 148.8223 144.5702 144.5702M157.3264 148.8223 161.5785 144.5702M148.8223 157.3264 144.5702 161.5785M157.3264 157.3264 161.5785 161.5785M148.8223 149.8185V156.3301C148.8223 156.8803 149.2683 157.3264 149.8185 157.3264H156.3301C156.8803 157.3264 157.3264 156.8803 157.3264 156.3301V149.8185C157.3264 149.2683 156.8803 148.8223 156.3301 148.8223H149.8185C149.2683 148.8223 148.8223 149.2683 148.8223 149.8185ZM157.3264 157.3264"/>
<path transform="matrix(2.574549,0,0,-2.576995,-236.2469,507.6906)" stroke-width=".79701" stroke-linecap="butt" stroke-miterlimit="10" stroke-linejoin="miter" fill="none" stroke="#000000" d="M153.0743 156.3059H155.3096C155.8599 156.3059 156.3059 155.8599 156.3059 155.3096V153.0743"/>
<path transform="matrix(2.574549,0,0,-2.576995,-236.2469,507.6906)" d="M165.8305 131.814 161.5785 127.5619M174.3346 131.814 178.5867 127.5619M165.8305 140.3181 161.5785 144.5702M174.3346 140.3181 178.5867 144.5702M165.8305 132.8103V139.3218C165.8305 139.8721 166.2765 140.3181 166.8268 140.3181H173.3384C173.8886 140.3181 174.3346 139.8721 174.3346 139.3218V132.8103C174.3346 132.26 173.8886 131.814 173.3384 131.814H166.8268C166.2765 131.814 165.8305 132.26 165.8305 132.8103ZM174.3346 140.3181" fill="#ffffff"/>
<path transform="matrix(2.574549,0,0,-2.576995,-236.2469,507.6906)" stroke-width=".79701" stroke-linecap="butt" stroke-miterlimit="10" stroke-linejoin="miter" fill="none" stroke="#000000" d="M165.8305 131.814 161.5785 127.5619M174.3346 131.814 178.5867 127.5619M165.8305 140.3181 161.5785 144.5702M174.3346 140.3181 178.5867 144.5702M165.8305 132.8103V139.3218C165.8305 139.8721 166.2765 140.3181 166.8268 140.3181H173.3384C173.8886 140.3181 174.3346 139.8721 174.3346 139.3218V132.8103C174.3346 132.26 173.8886 131.814 173.3384 131.814H166.8268C166.2765 131.814 165.8305 132.26 165.8305 132.8103ZM174.3346 140.3181"/>
<path transform="matrix(2.574549,0,0,-2.576995,-236.2469,507.6906)" stroke-width=".79701" stroke-linecap="butt" stroke-miterlimit="10" stroke-linejoin="miter" fill="none" stroke="#000000" d="M170.0826 139.2977H172.3179C172.8681 139.2977 173.3142 138.8516 173.3142 138.3014V136.0661"/>
<path transform="matrix(2.574549,0,0,-2.576995,-236.2469,507.6906)" d="M182.8388 148.8223 178.5867 144.5702M191.3429 148.8223 195.595 144.5702M182.8388 157.3264 178.5867 161.5785M191.3429 157.3264 195.595 161.5785M182.8388 149.8185V156.3301C182.8388 156.8803 183.2848 157.3264 183.835 157.3264H190.3466C190.8969 157.3264 191.3429 156.8803 191.3429 156.3301V149.8185C191.3429 149.2683 190.8969 148.8223 190.3466 148.8223H183.835C183.2848 148.8223 182.8388 149.2683 182.8388 149.8185ZM191.3429 157.3264" fill="#ffffff"/>
<path transform="matrix(2.574549,0,0,-2.576995,-236.2469,507.6906)" stroke-width=".79701" stroke-linecap="butt" stroke-miterlimit="10" stroke-linejoin="miter" fill="none" stroke="#000000" d="M182.8388 148.8223 178.5867 144.5702M191.3429 148.8223 195.595 144.5702M182.8388 157.3264 178.5867 161.5785M191.3429 157.3264 195.595 161.5785M182.8388 149.8185V156.3301C182.8388 156.8803 183.2848 157.3264 183.835 157.3264H190.3466C190.8969 157.3264 191.3429 156.8803 191.3429 156.3301V149.8185C191.3429 149.2683 190.8969 148.8223 190.3466 148.8223H183.835C183.2848 148.8223 182.8388 149.2683 182.8388 149.8185ZM191.3429 157.3264"/>
<path transform="matrix(2.574549,0,0,-2.576995,-236.2469,507.6906)" stroke-width=".79701" stroke-linecap="butt" stroke-miterlimit="10" stroke-linejoin="miter" fill="none" stroke="#000000" d="M187.0908 156.3059H189.3262C189.8764 156.3059 190.3224 155.8599 190.3224 155.3096V153.0743"/>
<path transform="matrix(2.574549,0,0,-2.576995,-236.2469,507.6906)" d="M63.78096 165.8305 59.52888 161.5785M72.28508 165.8305 76.53716 161.5785M63.78096 174.3346 59.52888 178.5867M72.28508 174.3346 76.53716 178.5867M63.78096 166.8268V173.3384C63.78096 173.8886 64.227 174.3346 64.77724 174.3346H71.2888C71.83904 174.3346 72.28508 173.8886 72.28508 173.3384V166.8268C72.28508 166.2765 71.83904 165.8305 71.2888 165.8305H64.77724C64.227 165.8305 63.78096 166.2765 63.78096 166.8268ZM72.28508 174.3346" fill="#ffffff"/>
<path transform="matrix(2.574549,0,0,-2.576995,-236.2469,507.6906)" stroke-width=".79701" stroke-linecap="butt" stroke-miterlimit="10" stroke-linejoin="miter" fill="none" stroke="#000000" d="M63.78096 165.8305 59.52888 161.5785M72.28508 165.8305 76.53716 161.5785M63.78096 174.3346 59.52888 178.5867M72.28508 174.3346 76.53716 178.5867M63.78096 166.8268V173.3384C63.78096 173.8886 64.227 174.3346 64.77724 174.3346H71.2888C71.83904 174.3346 72.28508 173.8886 72.28508 173.3384V166.8268C72.28508 166.2765 71.83904 165.8305 71.2888 165.8305H64.77724C64.227 165.8305 63.78096 166.2765 63.78096 166.8268ZM72.28508 174.3346"/>
<path transform="matrix(2.574549,0,0,-2.576995,-236.2469,507.6906)" stroke-width=".79701" stroke-linecap="butt" stroke-miterlimit="10" stroke-linejoin="miter" fill="none" stroke="#000000" d="M68.03302 173.3142H70.26836C70.81859 173.3142 71.26463 172.8681 71.26463 172.3179V170.0826"/>
<path transform="matrix(2.574549,0,0,-2.576995,-236.2469,507.6906)" d="M80.78922 182.8388 76.53716 178.5867M89.29335 182.8388 93.5454 178.5867M80.78922 191.3429 76.53716 195.595M89.29335 191.3429 93.5454 195.595M80.78922 183.835V190.3466C80.78922 190.8969 81.23526 191.3429 81.78549 191.3429H88.29707C88.8473 191.3429 89.29335 190.8969 89.29335 190.3466V183.835C89.29335 183.2848 88.8473 182.8388 88.29707 182.8388H81.78549C81.23526 182.8388 80.78922 183.2848 80.78922 183.835ZM89.29335 191.3429" fill="#ffffff"/>
<path transform="matrix(2.574549,0,0,-2.576995,-236.2469,507.6906)" stroke-width=".79701" stroke-linecap="butt" stroke-miterlimit="10" stroke-linejoin="miter" fill="none" stroke="#000000" d="M80.78922 182.8388 76.53716 178.5867M89.29335 182.8388 93.5454 178.5867M80.78922 191.3429 76.53716 195.595M89.29335 191.3429 93.5454 195.595M80.78922 183.835V190.3466C80.78922 190.8969 81.23526 191.3429 81.78549 191.3429H88.29707C88.8473 191.3429 89.29335 190.8969 89.29335 190.3466V183.835C89.29335 183.2848 88.8473 182.8388 88.29707 182.8388H81.78549C81.23526 182.8388 80.78922 183.2848 80.78922 183.835ZM89.29335 191.3429"/>
<path transform="matrix(2.574549,0,0,-2.576995,-236.2469,507.6906)" stroke-width=".79701" stroke-linecap="butt" stroke-miterlimit="10" stroke-linejoin="miter" fill="none" stroke="#000000" d="M85.04128 190.3224H87.2766C87.82684 190.3224 88.27287 189.8764 88.27287 189.3262V187.0908"/>
<path transform="matrix(2.574549,0,0,-2.576995,-236.2469,507.6906)" d="M97.79747 165.8305 93.5454 161.5785M106.3016 165.8305 110.5537 161.5785M97.79747 174.3346 93.5454 178.5867M106.3016 174.3346 110.5537 178.5867M97.79747 166.8268V173.3384C97.79747 173.8886 98.2435 174.3346 98.79375 174.3346H105.3053C105.8556 174.3346 106.3016 173.8886 106.3016 173.3384V166.8268C106.3016 166.2765 105.8556 165.8305 105.3053 165.8305H98.79375C98.2435 165.8305 97.79747 166.2765 97.79747 166.8268ZM106.3016 174.3346" fill="#ffffff"/>
<path transform="matrix(2.574549,0,0,-2.576995,-236.2469,507.6906)" stroke-width=".79701" stroke-linecap="butt" stroke-miterlimit="10" stroke-linejoin="miter" fill="none" stroke="#000000" d="M97.79747 165.8305 93.5454 161.5785M106.3016 165.8305 110.5537 161.5785M97.79747 174.3346 93.5454 178.5867M106.3016 174.3346 110.5537 178.5867M97.79747 166.8268V173.3384C97.79747 173.8886 98.2435 174.3346 98.79375 174.3346H105.3053C105.8556 174.3346 106.3016 173.8886 106.3016 173.3384V166.8268C106.3016 166.2765 105.8556 165.8305 105.3053 165.8305H98.79375C98.2435 165.8305 97.79747 166.2765 97.79747 166.8268ZM106.3016 174.3346"/>
<path transform="matrix(2.574549,0,0,-2.576995,-236.2469,507.6906)" stroke-width=".79701" stroke-linecap="butt" stroke-miterlimit="10" stroke-linejoin="miter" fill="none" stroke="#000000" d="M102.0495 173.3142H104.2849C104.8351 173.3142 105.2811 172.8681 105.2811 172.3179V170.0826"/>
<path transform="matrix(2.574549,0,0,-2.576995,-236.2469,507.6906)" d="M114.8057 182.8388 110.5537 178.5867M123.3098 182.8388 127.5619 178.5867M114.8057 191.3429 110.5537 195.595M123.3098 191.3429 127.5619 195.595M114.8057 183.835V190.3466C114.8057 190.8969 115.2518 191.3429 115.802 191.3429H122.3136C122.8638 191.3429 123.3098 190.8969 123.3098 190.3466V183.835C123.3098 183.2848 122.8638 182.8388 122.3136 182.8388H115.802C115.2518 182.8388 114.8057 183.2848 114.8057 183.835ZM123.3098 191.3429" fill="#ffffff"/>
<path transform="matrix(2.574549,0,0,-2.576995,-236.2469,507.6906)" stroke-width=".79701" stroke-linecap="butt" stroke-miterlimit="10" stroke-linejoin="miter" fill="none" stroke="#000000" d="M114.8057 182.8388 110.5537 178.5867M123.3098 182.8388 127.5619 178.5867M114.8057 191.3429 110.5537 195.595M123.3098 191.3429 127.5619 195.595M114.8057 183.835V190.3466C114.8057 190.8969 115.2518 191.3429 115.802 191.3429H122.3136C122.8638 191.3429 123.3098 190.8969 123.3098 190.3466V183.835C123.3098 183.2848 122.8638 182.8388 122.3136 182.8388H115.802C115.2518 182.8388 114.8057 183.2848 114.8057 183.835ZM123.3098 191.3429"/>
<path transform="matrix(2.574549,0,0,-2.576995,-236.2469,507.6906)" stroke-width=".79701" stroke-linecap="butt" stroke-miterlimit="10" stroke-linejoin="miter" fill="none" stroke="#000000" d="M119.0578 190.3224H121.2931C121.8434 190.3224 122.2894 189.8764 122.2894 189.3262V187.0908"/>
<path transform="matrix(2.574549,0,0,-2.576995,-236.2469,507.6906)" d="M131.814 165.8305 127.5619 161.5785M140.3181 165.8305 144.5702 161.5785M131.814 174.3346 127.5619 178.5867M140.3181 174.3346 144.5702 178.5867M131.814 166.8268V173.3384C131.814 173.8886 132.26 174.3346 132.8103 174.3346H139.3218C139.8721 174.3346 140.3181 173.8886 140.3181 173.3384V166.8268C140.3181 166.2765 139.8721 165.8305 139.3218 165.8305H132.8103C132.26 165.8305 131.814 166.2765 131.814 166.8268ZM140.3181 174.3346" fill="#ffffff"/>
<path transform="matrix(2.574549,0,0,-2.576995,-236.2469,507.6906)" stroke-width=".79701" stroke-linecap="butt" stroke-miterlimit="10" stroke-linejoin="miter" fill="none" stroke="#000000" d="M131.814 165.8305 127.5619 161.5785M140.3181 165.8305 144.5702 161.5785M131.814 174.3346 127.5619 178.5867M140.3181 174.3346 144.5702 178.5867M131.814 166.8268V173.3384C131.814 173.8886 132.26 174.3346 132.8103 174.3346H139.3218C139.8721 174.3346 140.3181 173.8886 140.3181 173.3384V166.8268C140.3181 166.2765 139.8721 165.8305 139.3218 165.8305H132.8103C132.26 165.8305 131.814 166.2765 131.814 166.8268ZM140.3181 174.3346"/>
<path transform="matrix(2.574549,0,0,-2.576995,-236.2469,507.6906)" stroke-width=".79701" stroke-linecap="butt" stroke-miterlimit="10" stroke-linejoin="miter" fill="none" stroke="#000000" d="M136.0661 173.3142H138.3014C138.8516 173.3142 139.2977 172.8681 139.2977 172.3179V170.0826"/>
<path transform="matrix(2.574549,0,0,-2.576995,-236.2469,507.6906)" d="M148.8223 182.8388 144.5702 178.5867M157.3264 182.8388 161.5785 178.5867M148.8223 191.3429 144.5702 195.595M157.3264 191.3429 161.5785 195.595M148.8223 183.835V190.3466C148.8223 190.8969 149.2683 191.3429 149.8185 191.3429H156.3301C156.8803 191.3429 157.3264 190.8969 157.3264 190.3466V183.835C157.3264 183.2848 156.8803 182.8388 156.3301 182.8388H149.8185C149.2683 182.8388 148.8223 183.2848 148.8223 183.835ZM157.3264 191.3429" fill="#ffffff"/>
<path transform="matrix(2.574549,0,0,-2.576995,-236.2469,507.6906)" stroke-width=".79701" stroke-linecap="butt" stroke-miterlimit="10" stroke-linejoin="miter" fill="none" stroke="#000000" d="M148.8223 182.8388 144.5702 178.5867M157.3264 182.8388 161.5785 178.5867M148.8223 191.3429 144.5702 195.595M157.3264 191.3429 161.5785 195.595M148.8223 183.835V190.3466C148.8223 190.8969 149.2683 191.3429 149.8185 191.3429H156.3301C156.8803 191.3429 157.3264 190.8969 157.3264 190.3466V183.835C157.3264 183.2848 156.8803 182.8388 156.3301 182.8388H149.8185C149.2683 182.8388 148.8223 183.2848 148.8223 183.835ZM157.3264 191.3429"/>
<path transform="matrix(2.574549,0,0,-2.576995,-236.2469,507.6906)" stroke-width=".79701" stroke-linecap="butt" stroke-miterlimit="10" stroke-linejoin="miter" fill="none" stroke="#000000" d="M153.0743 190.3224H155.3096C155.8599 190.3224 156.3059 189.8764 156.3059 189.3262V187.0908"/>
<path transform="matrix(2.574549,0,0,-2.576995,-236.2469,507.6906)" d="M165.8305 165.8305 161.5785 161.5785M174.3346 165.8305 178.5867 161.5785M165.8305 174.3346 161.5785 178.5867M174.3346 174.3346 178.5867 178.5867M165.8305 166.8268V173.3384C165.8305 173.8886 166.2765 174.3346 166.8268 174.3346H173.3384C173.8886 174.3346 174.3346 173.8886 174.3346 173.3384V166.8268C174.3346 166.2765 173.8886 165.8305 173.3384 165.8305H166.8268C166.2765 165.8305 165.8305 166.2765 165.8305 166.8268ZM174.3346 174.3346" fill="#ffffff"/>
<path transform="matrix(2.574549,0,0,-2.576995,-236.2469,507.6906)" stroke-width=".79701" stroke-linecap="butt" stroke-miterlimit="10" stroke-linejoin="miter" fill="none" stroke="#000000" d="M165.8305 165.8305 161.5785 161.5785M174.3346 165.8305 178.5867 161.5785M165.8305 174.3346 161.5785 178.5867M174.3346 174.3346 178.5867 178.5867M165.8305 166.8268V173.3384C165.8305 173.8886 166.2765 174.3346 166.8268 174.3346H173.3384C173.8886 174.3346 174.3346 173.8886 174.3346 173.3384V166.8268C174.3346 166.2765 173.8886 165.8305 173.3384 165.8305H166.8268C166.2765 165.8305 165.8305 166.2765 165.8305 166.8268ZM174.3346 174.3346"/>
<path transform="matrix(2.574549,0,0,-2.576995,-236.2469,507.6906)" stroke-width=".79701" stroke-linecap="butt" stroke-miterlimit="10" stroke-linejoin="miter" fill="none" stroke="#000000" d="M170.0826 173.3142H172.3179C172.8681 173.3142 173.3142 172.8681 173.3142 172.3179V170.0826"/>
<path transform="matrix(2.574549,0,0,-2.576995,-236.2469,507.6906)" d="M182.8388 182.8388 178.5867 178.5867M191.3429 182.8388 195.595 178.5867M182.8388 191.3429 178.5867 195.595M191.3429 191.3429 195.595 195.595M182.8388 183.835V190.3466C182.8388 190.8969 183.2848 191.3429 183.835 191.3429H190.3466C190.8969 191.3429 191.3429 190.8969 191.3429 190.3466V183.835C191.3429 183.2848 190.8969 182.8388 190.3466 182.8388H183.835C183.2848 182.8388 182.8388 183.2848 182.8388 183.835ZM191.3429 191.3429" fill="#ffffff"/>
<path transform="matrix(2.574549,0,0,-2.576995,-236.2469,507.6906)" stroke-width=".79701" stroke-linecap="butt" stroke-miterlimit="10" stroke-linejoin="miter" fill="none" stroke="#000000" d="M182.8388 182.8388 178.5867 178.5867M191.3429 182.8388 195.595 178.5867M182.8388 191.3429 178.5867 195.595M191.3429 191.3429 195.595 195.595M182.8388 183.835V190.3466C182.8388 190.8969 183.2848 191.3429 183.835 191.3429H190.3466C190.8969 191.3429 191.3429 190.8969 191.3429 190.3466V183.835C191.3429 183.2848 190.8969 182.8388 190.3466 182.8388H183.835C183.2848 182.8388 182.8388 183.2848 182.8388 183.835ZM191.3429 191.3429"/>
<path transform="matrix(2.574549,0,0,-2.576995,-236.2469,507.6906)" stroke-width=".79701" stroke-linecap="butt" stroke-miterlimit="10" stroke-linejoin="miter" fill="none" stroke="#000000" d="M187.0908 190.3224H189.3262C189.8764 190.3224 190.3224 189.8764 190.3224 189.3262V187.0908"/>
<path transform="matrix(2.574549,0,0,-2.576995,-236.2469,507.6906)" d="M63.78096 199.847 59.52888 195.595M72.28508 199.847 76.53716 195.595M63.78096 208.3512 59.52888 212.6032M72.28508 208.3512 76.53716 212.6032M63.78096 200.8433V207.3549C63.78096 207.9051 64.227 208.3512 64.77724 208.3512H71.2888C71.83904 208.3512 72.28508 207.9051 72.28508 207.3549V200.8433C72.28508 200.2931 71.83904 199.847 71.2888 199.847H64.77724C64.227 199.847 63.78096 200.2931 63.78096 200.8433ZM72.28508 208.3512" fill="#ffffff"/>
<path transform="matrix(2.574549,0,0,-2.576995,-236.2469,507.6906)" stroke-width=".79701" stroke-linecap="butt" stroke-miterlimit="10" stroke-linejoin="miter" fill="none" stroke="#000000" d="M63.78096 199.847 59.52888 195.595M72.28508 199.847 76.53716 195.595M63.78096 208.3512 59.52888 212.6032M72.28508 208.3512 76.53716 212.6032M63.78096 200.8433V207.3549C63.78096 207.9051 64.227 208.3512 64.77724 208.3512H71.2888C71.83904 208.3512 72.28508 207.9051 72.28508 207.3549V200.8433C72.28508 200.2931 71.83904 199.847 71.2888 199.847H64.77724C64.227 199.847 63.78096 200.2931 63.78096 200.8433ZM72.28508 208.3512"/>
<path transform="matrix(2.574549,0,0,-2.576995,-236.2469,507.6906)" stroke-width=".79701" stroke-linecap="butt" stroke-miterlimit="10" stroke-linejoin="miter" fill="none" stroke="#000000" d="M68.03302 207.3307H70.26836C70.81859 207.3307 71.26463 206.8847 71.26463 206.3344V204.0991"/>
<path transform="matrix(2.574549,0,0,-2.576995,-236.2469,507.6906)" d="M80.78922 216.8553 76.53716 212.6032M89.29335 216.8553 93.5454 212.6032M80.78922 225.3594 76.53716 229.6115M89.29335 225.3594 93.5454 229.6115M80.78922 217.8516V224.3631C80.78922 224.9134 81.23526 225.3594 81.78549 225.3594H88.29707C88.8473 225.3594 89.29335 224.9134 89.29335 224.3631V217.8516C89.29335 217.3013 88.8473 216.8553 88.29707 216.8553H81.78549C81.23526 216.8553 80.78922 217.3013 80.78922 217.8516ZM89.29335 225.3594" fill="#ffffff"/>
<path transform="matrix(2.574549,0,0,-2.576995,-236.2469,507.6906)" stroke-width=".79701" stroke-linecap="butt" stroke-miterlimit="10" stroke-linejoin="miter" fill="none" stroke="#000000" d="M80.78922 216.8553 76.53716 212.6032M89.29335 216.8553 93.5454 212.6032M80.78922 225.3594 76.53716 229.6115M89.29335 225.3594 93.5454 229.6115M80.78922 217.8516V224.3631C80.78922 224.9134 81.23526 225.3594 81.78549 225.3594H88.29707C88.8473 225.3594 89.29335 224.9134 89.29335 224.3631V217.8516C89.29335 217.3013 88.8473 216.8553 88.29707 216.8553H81.78549C81.23526 216.8553 80.78922 217.3013 80.78922 217.8516ZM89.29335 225.3594"/>
<path transform="matrix(2.574549,0,0,-2.576995,-236.2469,507.6906)" stroke-width=".79701" stroke-linecap="butt" stroke-miterlimit="10" stroke-linejoin="miter" fill="none" stroke="#000000" d="M85.04128 224.339H87.2766C87.82684 224.339 88.27287 223.8929 88.27287 223.3427V221.1074"/>
<path transform="matrix(2.574549,0,0,-2.576995,-236.2469,507.6906)" d="M97.79747 199.847 93.5454 195.595M106.3016 199.847 110.5537 195.595M97.79747 208.3512 93.5454 212.6032M106.3016 208.3512 110.5537 212.6032M97.79747 200.8433V207.3549C97.79747 207.9051 98.2435 208.3512 98.79375 208.3512H105.3053C105.8556 208.3512 106.3016 207.9051 106.3016 207.3549V200.8433C106.3016 200.2931 105.8556 199.847 105.3053 199.847H98.79375C98.2435 199.847 97.79747 200.2931 97.79747 200.8433ZM106.3016 208.3512" fill="#ffffff"/>
<path transform="matrix(2.574549,0,0,-2.576995,-236.2469,507.6906)" stroke-width=".79701" stroke-linecap="butt" stroke-miterlimit="10" stroke-linejoin="miter" fill="none" stroke="#000000" d="M97.79747 199.847 93.5454 195.595M106.3016 199.847 110.5537 195.595M97.79747 208.3512 93.5454 212.6032M106.3016 208.3512 110.5537 212.6032M97.79747 200.8433V207.3549C97.79747 207.9051 98.2435 208.3512 98.79375 208.3512H105.3053C105.8556 208.3512 106.3016 207.9051 106.3016 207.3549V200.8433C106.3016 200.2931 105.8556 199.847 105.3053 199.847H98.79375C98.2435 199.847 97.79747 200.2931 97.79747 200.8433ZM106.3016 208.3512"/>
<path transform="matrix(2.574549,0,0,-2.576995,-236.2469,507.6906)" stroke-width=".79701" stroke-linecap="butt" stroke-miterlimit="10" stroke-linejoin="miter" fill="none" stroke="#000000" d="M102.0495 207.3307H104.2849C104.8351 207.3307 105.2811 206.8847 105.2811 206.3344V204.0991"/>
<path transform="matrix(2.574549,0,0,-2.576995,-236.2469,507.6906)" d="M114.8057 216.8553 110.5537 212.6032M123.3098 216.8553 127.5619 212.6032M114.8057 225.3594 110.5537 229.6115M123.3098 225.3594 127.5619 229.6115M114.8057 217.8516V224.3631C114.8057 224.9134 115.2518 225.3594 115.802 225.3594H122.3136C122.8638 225.3594 123.3098 224.9134 123.3098 224.3631V217.8516C123.3098 217.3013 122.8638 216.8553 122.3136 216.8553H115.802C115.2518 216.8553 114.8057 217.3013 114.8057 217.8516ZM123.3098 225.3594" fill="#ffffff"/>
<path transform="matrix(2.574549,0,0,-2.576995,-236.2469,507.6906)" stroke-width=".79701" stroke-linecap="butt" stroke-miterlimit="10" stroke-linejoin="miter" fill="none" stroke="#000000" d="M114.8057 216.8553 110.5537 212.6032M123.3098 216.8553 127.5619 212.6032M114.8057 225.3594 110.5537 229.6115M123.3098 225.3594 127.5619 229.6115M114.8057 217.8516V224.3631C114.8057 224.9134 115.2518 225.3594 115.802 225.3594H122.3136C122.8638 225.3594 123.3098 224.9134 123.3098 224.3631V217.8516C123.3098 217.3013 122.8638 216.8553 122.3136 216.8553H115.802C115.2518 216.8553 114.8057 217.3013 114.8057 217.8516ZM123.3098 225.3594"/>
<path transform="matrix(2.574549,0,0,-2.576995,-236.2469,507.6906)" stroke-width=".79701" stroke-linecap="butt" stroke-miterlimit="10" stroke-linejoin="miter" fill="none" stroke="#000000" d="M119.0578 224.339H121.2931C121.8434 224.339 122.2894 223.8929 122.2894 223.3427V221.1074"/>
<path transform="matrix(2.574549,0,0,-2.576995,-236.2469,507.6906)" d="M131.814 199.847 127.5619 195.595M140.3181 199.847 144.5702 195.595M131.814 208.3512 127.5619 212.6032M140.3181 208.3512 144.5702 212.6032M131.814 200.8433V207.3549C131.814 207.9051 132.26 208.3512 132.8103 208.3512H139.3218C139.8721 208.3512 140.3181 207.9051 140.3181 207.3549V200.8433C140.3181 200.2931 139.8721 199.847 139.3218 199.847H132.8103C132.26 199.847 131.814 200.2931 131.814 200.8433ZM140.3181 208.3512" fill="#ffffff"/>
<path transform="matrix(2.574549,0,0,-2.576995,-236.2469,507.6906)" stroke-width=".79701" stroke-linecap="butt" stroke-miterlimit="10" stroke-linejoin="miter" fill="none" stroke="#000000" d="M131.814 199.847 127.5619 195.595M140.3181 199.847 144.5702 195.595M131.814 208.3512 127.5619 212.6032M140.3181 208.3512 144.5702 212.6032M131.814 200.8433V207.3549C131.814 207.9051 132.26 208.3512 132.8103 208.3512H139.3218C139.8721 208.3512 140.3181 207.9051 140.3181 207.3549V200.8433C140.3181 200.2931 139.8721 199.847 139.3218 199.847H132.8103C132.26 199.847 131.814 200.2931 131.814 200.8433ZM140.3181 208.3512"/>
<path transform="matrix(2.574549,0,0,-2.576995,-236.2469,507.6906)" stroke-width=".79701" stroke-linecap="butt" stroke-miterlimit="10" stroke-linejoin="miter" fill="none" stroke="#000000" d="M136.0661 207.3307H138.3014C138.8516 207.3307 139.2977 206.8847 139.2977 206.3344V204.0991"/>
<path transform="matrix(2.574549,0,0,-2.576995,-236.2469,507.6906)" d="M148.8223 216.8553 144.5702 212.6032M157.3264 216.8553 161.5785 212.6032M148.8223 225.3594 144.5702 229.6115M157.3264 225.3594 161.5785 229.6115M148.8223 217.8516V224.3631C148.8223 224.9134 149.2683 225.3594 149.8185 225.3594H156.3301C156.8803 225.3594 157.3264 224.9134 157.3264 224.3631V217.8516C157.3264 217.3013 156.8803 216.8553 156.3301 216.8553H149.8185C149.2683 216.8553 148.8223 217.3013 148.8223 217.8516ZM157.3264 225.3594" fill="#ffffff"/>
<path transform="matrix(2.574549,0,0,-2.576995,-236.2469,507.6906)" stroke-width=".79701" stroke-linecap="butt" stroke-miterlimit="10" stroke-linejoin="miter" fill="none" stroke="#000000" d="M148.8223 216.8553 144.5702 212.6032M157.3264 216.8553 161.5785 212.6032M148.8223 225.3594 144.5702 229.6115M157.3264 225.3594 161.5785 229.6115M148.8223 217.8516V224.3631C148.8223 224.9134 149.2683 225.3594 149.8185 225.3594H156.3301C156.8803 225.3594 157.3264 224.9134 157.3264 224.3631V217.8516C157.3264 217.3013 156.8803 216.8553 156.3301 216.8553H149.8185C149.2683 216.8553 148.8223 217.3013 148.8223 217.8516ZM157.3264 225.3594"/>
<path transform="matrix(2.574549,0,0,-2.576995,-236.2469,507.6906)" stroke-width=".79701" stroke-linecap="butt" stroke-miterlimit="10" stroke-linejoin="miter" fill="none" stroke="#000000" d="M153.0743 224.339H155.3096C155.8599 224.339 156.3059 223.8929 156.3059 223.3427V221.1074"/>
<path transform="matrix(2.574549,0,0,-2.576995,-236.2469,507.6906)" d="M165.8305 199.847 161.5785 195.595M174.3346 199.847 178.5867 195.595M165.8305 208.3512 161.5785 212.6032M174.3346 208.3512 178.5867 212.6032M165.8305 200.8433V207.3549C165.8305 207.9051 166.2765 208.3512 166.8268 208.3512H173.3384C173.8886 208.3512 174.3346 207.9051 174.3346 207.3549V200.8433C174.3346 200.2931 173.8886 199.847 173.3384 199.847H166.8268C166.2765 199.847 165.8305 200.2931 165.8305 200.8433ZM174.3346 208.3512" fill="#ffffff"/>
<path transform="matrix(2.574549,0,0,-2.576995,-236.2469,507.6906)" stroke-width=".79701" stroke-linecap="butt" stroke-miterlimit="10" stroke-linejoin="miter" fill="none" stroke="#000000" d="M165.8305 199.847 161.5785 195.595M174.3346 199.847 178.5867 195.595M165.8305 208.3512 161.5785 212.6032M174.3346 208.3512 178.5867 212.6032M165.8305 200.8433V207.3549C165.8305 207.9051 166.2765 208.3512 166.8268 208.3512H173.3384C173.8886 208.3512 174.3346 207.9051 174.3346 207.3549V200.8433C174.3346 200.2931 173.8886 199.847 173.3384 199.847H166.8268C166.2765 199.847 165.8305 200.2931 165.8305 200.8433ZM174.3346 208.3512"/>
<path transform="matrix(2.574549,0,0,-2.576995,-236.2469,507.6906)" stroke-width=".79701" stroke-linecap="butt" stroke-miterlimit="10" stroke-linejoin="miter" fill="none" stroke="#000000" d="M170.0826 207.3307H172.3179C172.8681 207.3307 173.3142 206.8847 173.3142 206.3344V204.0991"/>
<path transform="matrix(2.574549,0,0,-2.576995,-236.2469,507.6906)" d="M182.8388 216.8553 178.5867 212.6032M191.3429 216.8553 195.595 212.6032M182.8388 225.3594 178.5867 229.6115M191.3429 225.3594 195.595 229.6115M182.8388 217.8516V224.3631C182.8388 224.9134 183.2848 225.3594 183.835 225.3594H190.3466C190.8969 225.3594 191.3429 224.9134 191.3429 224.3631V217.8516C191.3429 217.3013 190.8969 216.8553 190.3466 216.8553H183.835C183.2848 216.8553 182.8388 217.3013 182.8388 217.8516ZM191.3429 225.3594" fill="#ffffff"/>
<path transform="matrix(2.574549,0,0,-2.576995,-236.2469,507.6906)" stroke-width=".79701" stroke-linecap="butt" stroke-miterlimit="10" stroke-linejoin="miter" fill="none" stroke="#000000" d="M182.8388 216.8553 178.5867 212.6032M191.3429 216.8553 195.595 212.6032M182.8388 225.3594 178.5867 229.6115M191.3429 225.3594 195.595 229.6115M182.8388 217.8516V224.3631C182.8388 224.9134 183.2848 225.3594 183.835 225.3594H190.3466C190.8969 225.3594 191.3429 224.9134 191.3429 224.3631V217.8516C191.3429 217.3013 190.8969 216.8553 190.3466 216.8553H183.835C183.2848 216.8553 182.8388 217.3013 182.8388 217.8516ZM191.3429 225.3594"/>
<path transform="matrix(2.574549,0,0,-2.576995,-236.2469,507.6906)" stroke-width=".79701" stroke-linecap="butt" stroke-miterlimit="10" stroke-linejoin="miter" fill="none" stroke="#000000" d="M187.0908 224.339H189.3262C189.8764 224.339 190.3224 223.8929 190.3224 223.3427V221.1074"/>
<text xml:space="preserve" transform="matrix(2.574549 0 -0 2.576995 -784.3065 1349.002)" font-size="10.9091" font-family="CMMI10" font-style="italic"><tspan y="-471.038" x="510.915">.</tspan></text>
<path transform="matrix(2.574549,0,0,-2.576995,-691.6228,1229.2026)" stroke-width=".398" stroke-linecap="butt" stroke-miterlimit="10" stroke-linejoin="miter" fill="none" stroke="#000000" d="M0 0H209.307"/>
<text xml:space="preserve" transform="matrix(2.574549 0 -0 2.576995 -784.3065 1349.002)" font-size="5.9776" font-family="URWPalladioL"><tspan y="-38.282" x="49.316">*</tspan></text>
<text xml:space="preserve" transform="matrix(2.574549 0 -0 2.576995 -784.3065 1349.002)" font-size="8.9664" font-family="URWPalladioL"><tspan y="-36.027" x="52.139 55.940755 63.41873 68.40405 72.88725 77.37045 84.06835 88.04943 92.53263 97.751079 100.674129 105.157329 110.115749 112.357349 116.840549 120.821628 123.063228 128.46997">swk34@cantab.ac.uk</tspan></text>
<text xml:space="preserve" transform="matrix(2.574549 0 -0 2.576995 -784.3065 1349.002)" font-size="10.9091" font-family="URWPalladioL"><tspan y="-6.112" x="294.91">1</tspan></text>
</g>
</svg>
