<svg xmlns="http://www.w3.org/2000/svg" xmlns:xlink="http://www.w3.org/1999/xlink" xmlns:inkscape="http://www.inkscape.org/namespaces/inkscape" version="1.1" width="124" height="272" viewBox="0 0 124 272">
<defs>
<clipPath id="clip_0">
<path d="M0 0H124V272H0Z"/>
</clipPath>
<clipPath id="clip_1">
<path d="M0 0H124V272H0Z"/>
</clipPath>
<clipPath id="clip_2">
<path d="M0 0H124V272H0Z"/>
</clipPath>
<clipPath id="clip_3">
<path d="M0 0H124V272H0Z"/>
</clipPath>
<clipPath id="clip_4">
<path d="M0 0H124V272H0Z"/>
</clipPath>
<clipPath id="clip_5">
<path d="M0 0H124V272H0Z"/>
</clipPath>
<clipPath id="clip_6">
<path d="M0 0H124V272H0Z"/>
</clipPath>
<clipPath id="clip_7">
<path d="M0 0H124V272H0Z"/>
</clipPath>
<clipPath id="clip_8">
<path d="M0 0H124V272H0Z"/>
</clipPath>
<clipPath id="clip_9">
<path d="M0 0H124V272H0Z"/>
</clipPath>
<clipPath id="clip_10">
<path d="M0 0H124V272H0Z"/>
</clipPath>
<clipPath id="clip_11">
<path d="M0 0H124V272H0Z"/>
</clipPath>
<clipPath id="clip_12">
<path d="M0 0H124V272H0Z"/>
</clipPath>
<clipPath id="clip_13">
<path d="M0 0H124V272H0Z"/>
</clipPath>
<clipPath id="clip_14">
<path d="M0 0H124V272H0Z"/>
</clipPath>
<clipPath id="clip_15">
<path d="M0 0H124V272H0Z"/>
</clipPath>
<clipPath id="clip_16">
<path d="M0 0H124V272H0Z"/>
</clipPath>
<clipPath id="clip_17">
<path d="M0 0H124V272H0Z"/>
</clipPath>
<clipPath id="clip_18">
<path d="M0 0H124V272H0Z"/>
</clipPath>
<clipPath id="clip_19">
<path d="M0 0H124V272H0Z"/>
</clipPath>
<clipPath id="clip_20">
<path d="M0 0H124V272H0Z"/>
</clipPath>
<clipPath id="clip_21">
<path d="M0 0H124V272H0Z"/>
</clipPath>
<clipPath id="clip_22">
<path d="M0 0H124V272H0Z"/>
</clipPath>
<clipPath id="clip_23">
<path d="M0 0H124V272H0Z"/>
</clipPath>
<clipPath id="clip_24">
<path d="M0 0H124V272H0Z"/>
</clipPath>
<clipPath id="clip_25">
<path d="M0 0H124V272H0Z"/>
</clipPath>
<clipPath id="clip_26">
<path d="M0 0H124V272H0Z"/>
</clipPath>
<clipPath id="clip_27">
<path d="M0 0H124V272H0Z"/>
</clipPath>
<clipPath id="clip_28">
<path d="M0 0H124V272H0Z"/>
</clipPath>
<clipPath id="clip_29">
<path d="M0 0H124V272H0Z"/>
</clipPath>
<clipPath id="clip_30">
<path d="M0 0H124V272H0Z"/>
</clipPath>
<clipPath id="clip_31">
<path d="M0 0H124V272H0Z"/>
</clipPath>
<clipPath id="clip_32">
<path d="M0 0H124V272H0Z"/>
</clipPath>
<clipPath id="clip_33">
<path d="M0 0H124V272H0Z"/>
</clipPath>
<clipPath id="clip_34">
<path d="M0 0H124V272H0Z"/>
</clipPath>
<clipPath id="clip_35">
<path d="M0 0H124V272H0Z"/>
</clipPath>
<clipPath id="clip_36">
<path d="M0 0H124V272H0Z"/>
</clipPath>
<clipPath id="clip_37">
<path d="M0 0H124V272H0Z"/>
</clipPath>
<clipPath id="clip_38">
<path d="M0 0H124V272H0Z"/>
</clipPath>
<clipPath id="clip_39">
<path d="M0 0H124V272H0Z"/>
</clipPath>
<clipPath id="clip_40">
<path d="M0 0H124V272H0Z"/>
</clipPath>
<clipPath id="clip_41">
<path d="M0 0H124V272H0Z"/>
</clipPath>
<clipPath id="clip_42">
<path d="M0 0H124V272H0Z"/>
</clipPath>
<clipPath id="clip_43">
<path d="M0 0H124V272H0Z"/>
</clipPath>
<clipPath id="clip_44">
<path d="M0 0H124V272H0Z"/>
</clipPath>
<clipPath id="clip_45">
<path d="M0 0H124V272H0Z"/>
</clipPath>
</defs>
<g>
<g clip-path="url(#clip_0)">
<path d="M0 0H124V272H0Z" fill="#ffffff"/>
</g>
<g clip-path="url(#clip_1)">
<path d="M20.648 18.426C20.648 18.086 20.648 17.754 20.281 17.754 19.902 17.754 19.902 18.086 19.902 18.426V35.727C19.902 36.066 19.902 36.398 20.281 36.398 20.648 36.398 20.648 36.066 20.648 35.727ZM20.648 18.426"/>
</g>
<g clip-path="url(#clip_2)">
<path d="M31.508 25.766C31.508 24.281 31.426 22.789 30.766 21.402 29.902 19.613 28.367 19.32 27.574 19.32 26.453 19.32 25.082 19.801 24.312 21.531 23.711 22.824 23.617 24.281 23.617 25.766 23.617 27.164 23.688 28.848 24.453 30.27 25.27 31.773 26.641 32.152 27.551 32.152 28.566 32.152 29.996 31.762 30.824 29.988 31.426 28.695 31.508 27.246 31.508 25.766ZM27.551 31.738C26.816 31.738 25.719 31.27 25.375 29.48 25.176 28.363 25.176 26.648 25.176 25.543 25.176 24.352 25.176 23.117 25.316 22.117 25.684 19.895 27.09 19.73 27.551 19.73 28.176 19.73 29.418 20.059 29.77 21.906 29.961 22.953 29.961 24.375 29.961 25.543 29.961 26.941 29.961 28.211 29.746 29.41 29.465 31.176 28.402 31.738 27.551 31.738ZM40.887 25.766C40.887 24.281 40.805 22.789 40.145 21.402 39.281 19.613 37.746 19.32 36.953 19.32 35.832 19.32 34.461 19.801 33.695 21.531 33.09 22.824 32.996 24.281 32.996 25.766 32.996 27.164 33.066 28.848 33.836 30.27 34.652 31.773 36.02 32.152 36.93 32.152 37.945 32.152 39.375 31.762 40.203 29.988 40.805 28.695 40.887 27.246 40.887 25.766ZM36.93 31.738C36.199 31.738 35.098 31.27 34.758 29.48 34.555 28.363 34.555 26.648 34.555 25.543 34.555 24.352 34.555 23.117 34.699 22.117 35.062 19.895 36.469 19.73 36.93 19.73 37.559 19.73 38.797 20.059 39.152 21.906 39.34 22.953 39.34 24.375 39.34 25.543 39.34 26.941 39.34 28.211 39.129 29.41 38.844 31.176 37.781 31.738 36.93 31.738ZM36.93 31.738"/>
</g>
<g clip-path="url(#clip_3)">
<path d="M46.773 27.387C46.855 27.164 46.855 27.129 46.855 27.082 46.855 27.023 46.855 26.988 46.773 26.766L43.488 18.18C43.371 17.859 43.262 17.754 43.051 17.754 42.848 17.754 42.672 17.918 42.672 18.121 42.672 18.18 42.672 18.215 42.766 18.426L46.086 27.082 42.766 35.691C42.672 35.902 42.672 35.938 42.672 36.031 42.672 36.234 42.848 36.398 43.051 36.398 43.297 36.398 43.371 36.223 43.441 36.031ZM69.797 27.445C68.77 28.234 68.262 29 68.109 29.234 67.27 30.527 67.117 31.703 67.117 31.715 67.117 31.941 67.34 31.941 67.492 31.941 67.812 31.941 67.836 31.906 67.906 31.574 68.344 29.738 69.441 28.176 71.57 27.316 71.793 27.246 71.84 27.211 71.84 27.082 71.84 26.941 71.734 26.895 71.699 26.871 70.871 26.551 68.605 25.625 67.883 22.484 67.836 22.258 67.812 22.211 67.492 22.211 67.34 22.211 67.117 22.211 67.117 22.438 67.117 22.473 67.293 23.648 68.074 24.895 68.449 25.457 68.992 26.105 69.797 26.707H55.867C55.527 26.707 55.184 26.707 55.184 27.082 55.184 27.445 55.527 27.445 55.867 27.445ZM69.797 27.445"/>
<path d="M81.109 18.426C81.109 18.086 81.109 17.754 80.742 17.754 80.363 17.754 80.363 18.086 80.363 18.426V35.727C80.363 36.066 80.363 36.398 80.742 36.398 81.109 36.398 81.109 36.066 81.109 35.727ZM81.109 18.426"/>
</g>
<g clip-path="url(#clip_4)">
<path d="M91.961 25.766C91.961 24.281 91.879 22.789 91.215 21.402 90.355 19.613 88.816 19.32 88.027 19.32 86.902 19.32 85.535 19.801 84.766 21.531 84.164 22.824 84.07 24.281 84.07 25.766 84.07 27.164 84.141 28.848 84.906 30.27 85.723 31.773 87.094 32.152 88.004 32.152 89.02 32.152 90.449 31.762 91.273 29.988 91.879 28.695 91.961 27.246 91.961 25.766ZM88.004 31.738C87.27 31.738 86.172 31.27 85.828 29.48 85.629 28.363 85.629 26.648 85.629 25.543 85.629 24.352 85.629 23.117 85.77 22.117 86.137 19.895 87.543 19.73 88.004 19.73 88.629 19.73 89.871 20.059 90.223 21.906 90.414 22.953 90.414 24.375 90.414 25.543 90.414 26.941 90.414 28.211 90.199 29.41 89.918 31.176 88.852 31.738 88.004 31.738ZM101.34 25.766C101.34 24.281 101.258 22.789 100.598 21.402 99.734 19.613 98.199 19.32 97.406 19.32 96.285 19.32 94.914 19.801 94.145 21.531 93.543 22.824 93.449 24.281 93.449 25.766 93.449 27.164 93.52 28.848 94.289 30.27 95.102 31.773 96.473 32.152 97.383 32.152 98.398 32.152 99.828 31.762 100.656 29.988 101.258 28.695 101.34 27.246 101.34 25.766ZM97.383 31.738C96.652 31.738 95.551 31.27 95.211 29.48 95.008 28.363 95.008 26.648 95.008 25.543 95.008 24.352 95.008 23.117 95.148 22.117 95.516 19.895 96.922 19.73 97.383 19.73 98.008 19.73 99.25 20.059 99.605 21.906 99.793 22.953 99.793 24.375 99.793 25.543 99.793 26.941 99.793 28.211 99.582 29.41 99.297 31.176 98.234 31.738 97.383 31.738ZM97.383 31.738"/>
</g>
<g clip-path="url(#clip_5)">
<path d="M107.227 27.387C107.309 27.164 107.309 27.129 107.309 27.082 107.309 27.023 107.309 26.988 107.227 26.766L103.941 18.18C103.824 17.859 103.719 17.754 103.504 17.754 103.305 17.754 103.129 17.918 103.129 18.121 103.129 18.18 103.129 18.215 103.223 18.426L106.543 27.082 103.223 35.691C103.129 35.902 103.129 35.938 103.129 36.031 103.129 36.234 103.305 36.398 103.504 36.398 103.754 36.398 103.824 36.223 103.895 36.031ZM107.227 27.387"/>
</g>
<g clip-path="url(#clip_6)">
<path d="M20.648 45.477C20.648 45.137 20.648 44.809 20.281 44.809 19.902 44.809 19.902 45.137 19.902 45.477V62.781C19.902 63.121 19.902 63.449 20.281 63.449 20.648 63.449 20.648 63.121 20.648 62.781ZM20.648 45.477"/>
</g>
<g clip-path="url(#clip_7)">
<path d="M31.508 52.816C31.508 51.336 31.426 49.84 30.766 48.453 29.902 46.664 28.367 46.371 27.574 46.371 26.453 46.371 25.082 46.855 24.312 48.582 23.711 49.875 23.617 51.336 23.617 52.816 23.617 54.219 23.688 55.898 24.453 57.32 25.27 58.828 26.641 59.203 27.551 59.203 28.566 59.203 29.996 58.816 30.824 57.039 31.426 55.746 31.508 54.301 31.508 52.816ZM27.551 58.793C26.816 58.793 25.719 58.32 25.375 56.535 25.176 55.418 25.176 53.699 25.176 52.594 25.176 51.406 25.176 50.172 25.316 49.172 25.684 46.949 27.09 46.785 27.551 46.785 28.176 46.785 29.418 47.113 29.77 48.961 29.961 50.008 29.961 51.43 29.961 52.594 29.961 53.992 29.961 55.266 29.746 56.465 29.465 58.227 28.402 58.793 27.551 58.793ZM37.781 46.855C37.781 46.406 37.781 46.371 37.344 46.371 36.188 47.559 34.531 47.559 33.93 47.559V48.137C34.309 48.137 35.418 48.137 36.387 47.652V57.32C36.387 57.992 36.34 58.215 34.652 58.215H34.047V58.793C34.699 58.734 36.34 58.734 37.086 58.734 37.84 58.734 39.469 58.734 40.121 58.793V58.215H39.531C37.84 58.215 37.781 58.004 37.781 57.32ZM37.781 46.855"/>
</g>
<g clip-path="url(#clip_8)">
<path d="M46.773 54.441C46.855 54.219 46.855 54.18 46.855 54.133 46.855 54.074 46.855 54.039 46.773 53.816L43.488 45.23C43.371 44.914 43.262 44.809 43.051 44.809 42.848 44.809 42.672 44.973 42.672 45.172 42.672 45.23 42.672 45.266 42.766 45.477L46.086 54.133 42.766 62.746C42.672 62.957 42.672 62.992 42.672 63.086 42.672 63.285 42.848 63.449 43.051 63.449 43.297 63.449 43.371 63.273 43.441 63.086ZM69.797 54.5C68.77 55.289 68.262 56.051 68.109 56.285 67.27 57.582 67.117 58.758 67.117 58.77 67.117 58.992 67.34 58.992 67.492 58.992 67.812 58.992 67.836 58.957 67.906 58.629 68.344 56.793 69.441 55.227 71.57 54.371 71.793 54.301 71.84 54.266 71.84 54.133 71.84 53.992 71.734 53.945 71.699 53.922 70.871 53.605 68.605 52.676 67.883 49.535 67.836 49.312 67.812 49.266 67.492 49.266 67.34 49.266 67.117 49.266 67.117 49.488 67.117 49.523 67.293 50.699 68.074 51.945 68.449 52.512 68.992 53.16 69.797 53.758H55.867C55.527 53.758 55.184 53.758 55.184 54.133 55.184 54.5 55.527 54.5 55.867 54.5ZM69.797 54.5"/>
<path d="M81.109 45.477C81.109 45.137 81.109 44.809 80.742 44.809 80.363 44.809 80.363 45.137 80.363 45.477V62.781C80.363 63.121 80.363 63.449 80.742 63.449 81.109 63.449 81.109 63.121 81.109 62.781ZM81.109 45.477"/>
</g>
<g clip-path="url(#clip_9)">
<path d="M91.961 52.816C91.961 51.336 91.879 49.84 91.215 48.453 90.355 46.664 88.816 46.371 88.027 46.371 86.902 46.371 85.535 46.855 84.766 48.582 84.164 49.875 84.07 51.336 84.07 52.816 84.07 54.219 84.141 55.898 84.906 57.32 85.723 58.828 87.094 59.203 88.004 59.203 89.02 59.203 90.449 58.816 91.273 57.039 91.879 55.746 91.961 54.301 91.961 52.816ZM88.004 58.793C87.27 58.793 86.172 58.32 85.828 56.535 85.629 55.418 85.629 53.699 85.629 52.594 85.629 51.406 85.629 50.172 85.77 49.172 86.137 46.949 87.543 46.785 88.004 46.785 88.629 46.785 89.871 47.113 90.223 48.961 90.414 50.008 90.414 51.43 90.414 52.594 90.414 53.992 90.414 55.266 90.199 56.465 89.918 58.227 88.852 58.793 88.004 58.793ZM98.234 46.855C98.234 46.406 98.234 46.371 97.797 46.371 96.641 47.559 94.984 47.559 94.383 47.559V48.137C94.762 48.137 95.871 48.137 96.84 47.652V57.32C96.84 57.992 96.793 58.215 95.102 58.215H94.5V58.793C95.148 58.734 96.793 58.734 97.535 58.734 98.293 58.734 99.922 58.734 100.574 58.793V58.215H99.98C98.293 58.215 98.234 58.004 98.234 57.32ZM98.234 46.855"/>
</g>
<g clip-path="url(#clip_10)">
<path d="M107.227 54.441C107.309 54.219 107.309 54.18 107.309 54.133 107.309 54.074 107.309 54.039 107.227 53.816L103.941 45.23C103.824 44.914 103.719 44.809 103.504 44.809 103.305 44.809 103.129 44.973 103.129 45.172 103.129 45.23 103.129 45.266 103.223 45.477L106.543 54.133 103.223 62.746C103.129 62.957 103.129 62.992 103.129 63.086 103.129 63.285 103.305 63.449 103.504 63.449 103.754 63.449 103.824 63.273 103.895 63.086ZM107.227 54.441"/>
</g>
<g clip-path="url(#clip_11)">
<path d="M20.648 72.527C20.648 72.188 20.648 71.855 20.281 71.855 19.902 71.855 19.902 72.188 19.902 72.527V89.828C19.902 90.172 19.902 90.5 20.281 90.5 20.648 90.5 20.648 90.172 20.648 89.828ZM20.648 72.527"/>
</g>
<g clip-path="url(#clip_12)">
<path d="M31.508 79.867C31.508 78.387 31.426 76.891 30.766 75.504 29.902 73.715 28.367 73.422 27.574 73.422 26.453 73.422 25.082 73.902 24.312 75.633 23.711 76.926 23.617 78.387 23.617 79.867 23.617 81.266 23.688 82.949 24.453 84.371 25.27 85.879 26.641 86.254 27.551 86.254 28.566 86.254 29.996 85.867 30.824 84.09 31.426 82.797 31.508 81.348 31.508 79.867ZM27.551 85.844C26.816 85.844 25.719 85.371 25.375 83.582 25.176 82.465 25.176 80.75 25.176 79.645 25.176 78.457 25.176 77.219 25.316 76.219 25.684 73.996 27.09 73.832 27.551 73.832 28.176 73.832 29.418 74.164 29.77 76.008 29.961 77.055 29.961 78.48 29.961 79.645 29.961 81.043 29.961 82.312 29.746 83.512 29.465 85.277 28.402 85.844 27.551 85.844ZM34.652 84.406 36.637 82.488C39.566 79.914 40.688 78.902 40.688 77.031 40.688 74.914 39 73.422 36.707 73.422 34.59 73.422 33.199 75.137 33.199 76.797 33.199 77.844 34.141 77.844 34.203 77.844 34.52 77.844 35.172 77.621 35.172 76.855 35.172 76.363 34.84 75.879 34.18 75.879 34.023 75.879 33.988 75.879 33.93 75.902 34.367 74.691 35.383 73.996 36.469 73.996 38.172 73.996 38.984 75.504 38.984 77.031 38.984 78.527 38.043 80.008 37.012 81.16L33.41 85.148C33.199 85.359 33.199 85.395 33.199 85.844H40.168L40.688 82.594H40.215C40.121 83.16 39.992 83.973 39.801 84.254 39.672 84.406 38.43 84.406 38.031 84.406ZM34.652 84.406"/>
</g>
<g clip-path="url(#clip_13)">
<path d="M46.773 81.488C46.855 81.266 46.855 81.23 46.855 81.184 46.855 81.125 46.855 81.09 46.773 80.867L43.488 72.281C43.371 71.961 43.262 71.855 43.051 71.855 42.848 71.855 42.672 72.023 42.672 72.223 42.672 72.281 42.672 72.316 42.766 72.527L46.086 81.184 42.766 89.793C42.672 90.004 42.672 90.039 42.672 90.137 42.672 90.336 42.848 90.5 43.051 90.5 43.297 90.5 43.371 90.324 43.441 90.137ZM69.797 81.551C68.77 82.336 68.262 83.102 68.109 83.336 67.27 84.629 67.117 85.809 67.117 85.82 67.117 86.043 67.34 86.043 67.492 86.043 67.812 86.043 67.836 86.008 67.906 85.676 68.344 83.844 69.441 82.277 71.57 81.418 71.793 81.348 71.84 81.312 71.84 81.184 71.84 81.043 71.734 80.996 71.699 80.973 70.871 80.656 68.605 79.727 67.883 76.586 67.836 76.363 67.812 76.316 67.492 76.316 67.34 76.316 67.117 76.316 67.117 76.539 67.117 76.574 67.293 77.75 68.074 78.996 68.449 79.562 68.992 80.207 69.797 80.809H55.867C55.527 80.809 55.184 80.809 55.184 81.184 55.184 81.551 55.527 81.551 55.867 81.551ZM69.797 81.551"/>
<path d="M81.109 72.527C81.109 72.188 81.109 71.855 80.742 71.855 80.363 71.855 80.363 72.188 80.363 72.527V89.828C80.363 90.172 80.363 90.5 80.742 90.5 81.109 90.5 81.109 90.172 81.109 89.828ZM81.109 72.527"/>
</g>
<g clip-path="url(#clip_14)">
<path d="M88.852 73.902C88.852 73.457 88.852 73.422 88.418 73.422 87.258 74.609 85.605 74.609 85 74.609V75.188C85.379 75.188 86.492 75.188 87.461 74.703V84.371C87.461 85.043 87.41 85.266 85.723 85.266H85.121V85.844C85.77 85.781 87.41 85.781 88.156 85.781 88.914 85.781 90.543 85.781 91.191 85.844V85.266H90.602C88.914 85.266 88.852 85.055 88.852 84.371ZM101.34 79.867C101.34 78.387 101.258 76.891 100.598 75.504 99.734 73.715 98.199 73.422 97.406 73.422 96.285 73.422 94.914 73.902 94.145 75.633 93.543 76.926 93.449 78.387 93.449 79.867 93.449 81.266 93.52 82.949 94.289 84.371 95.102 85.879 96.473 86.254 97.383 86.254 98.398 86.254 99.828 85.867 100.656 84.09 101.258 82.797 101.34 81.348 101.34 79.867ZM97.383 85.844C96.652 85.844 95.551 85.371 95.211 83.582 95.008 82.465 95.008 80.75 95.008 79.645 95.008 78.457 95.008 77.219 95.148 76.219 95.516 73.996 96.922 73.832 97.383 73.832 98.008 73.832 99.25 74.164 99.605 76.008 99.793 77.055 99.793 78.48 99.793 79.645 99.793 81.043 99.793 82.312 99.582 83.512 99.297 85.277 98.234 85.844 97.383 85.844ZM97.383 85.844"/>
</g>
<g clip-path="url(#clip_15)">
<path d="M107.227 81.488C107.309 81.266 107.309 81.23 107.309 81.184 107.309 81.125 107.309 81.09 107.227 80.867L103.941 72.281C103.824 71.961 103.719 71.855 103.504 71.855 103.305 71.855 103.129 72.023 103.129 72.223 103.129 72.281 103.129 72.316 103.223 72.527L106.543 81.184 103.223 89.793C103.129 90.004 103.129 90.039 103.129 90.137 103.129 90.336 103.305 90.5 103.504 90.5 103.754 90.5 103.824 90.324 103.895 90.137ZM107.227 81.488"/>
</g>
<g clip-path="url(#clip_16)">
<path d="M20.648 99.578C20.648 99.238 20.648 98.91 20.281 98.91 19.902 98.91 19.902 99.238 19.902 99.578V116.883C19.902 117.223 19.902 117.551 20.281 117.551 20.648 117.551 20.648 117.223 20.648 116.883ZM20.648 99.578"/>
</g>
<g clip-path="url(#clip_17)">
<path d="M28.402 100.957C28.402 100.508 28.402 100.473 27.965 100.473 26.805 101.66 25.152 101.66 24.551 101.66V102.238C24.926 102.238 26.039 102.238 27.008 101.758V111.426C27.008 112.094 26.961 112.316 25.27 112.316H24.668V112.895C25.316 112.836 26.961 112.836 27.703 112.836 28.461 112.836 30.09 112.836 30.738 112.895V112.316H30.148C28.461 112.316 28.402 112.105 28.402 111.426ZM40.887 106.918C40.887 105.438 40.805 103.945 40.145 102.555 39.281 100.77 37.746 100.473 36.953 100.473 35.832 100.473 34.461 100.957 33.695 102.684 33.09 103.98 32.996 105.438 32.996 106.918 32.996 108.32 33.066 110 33.836 111.426 34.652 112.93 36.02 113.305 36.93 113.305 37.945 113.305 39.375 112.918 40.203 111.141 40.805 109.848 40.887 108.402 40.887 106.918ZM36.93 112.895C36.199 112.895 35.098 112.426 34.758 110.637 34.555 109.52 34.555 107.801 34.555 106.695 34.555 105.508 34.555 104.273 34.699 103.273 35.062 101.051 36.469 100.887 36.93 100.887 37.559 100.887 38.797 101.215 39.152 103.062 39.34 104.109 39.34 105.531 39.34 106.695 39.34 108.094 39.34 109.367 39.129 110.566 38.844 112.328 37.781 112.895 36.93 112.895ZM36.93 112.895"/>
</g>
<g clip-path="url(#clip_18)">
<path d="M46.773 108.543C46.855 108.32 46.855 108.285 46.855 108.238 46.855 108.18 46.855 108.145 46.773 107.918L43.488 99.332C43.371 99.016 43.262 98.91 43.051 98.91 42.848 98.91 42.672 99.074 42.672 99.273 42.672 99.332 42.672 99.367 42.766 99.578L46.086 108.238 42.766 116.848C42.672 117.059 42.672 117.094 42.672 117.188 42.672 117.387 42.848 117.551 43.051 117.551 43.297 117.551 43.371 117.375 43.441 117.188ZM69.797 108.602C68.77 109.391 68.262 110.152 68.109 110.391 67.27 111.684 67.117 112.859 67.117 112.871 67.117 113.094 67.34 113.094 67.492 113.094 67.812 113.094 67.836 113.059 67.906 112.73 68.344 110.895 69.441 109.332 71.57 108.473 71.793 108.402 71.84 108.367 71.84 108.238 71.84 108.094 71.734 108.047 71.699 108.023 70.871 107.707 68.605 106.777 67.883 103.637 67.836 103.414 67.812 103.367 67.492 103.367 67.34 103.367 67.117 103.367 67.117 103.59 67.117 103.625 67.293 104.801 68.074 106.051 68.449 106.613 68.992 107.262 69.797 107.859H55.867C55.527 107.859 55.184 107.859 55.184 108.238 55.184 108.602 55.527 108.602 55.867 108.602ZM69.797 108.602"/>
<path d="M81.109 99.578C81.109 99.238 81.109 98.91 80.742 98.91 80.363 98.91 80.363 99.238 80.363 99.578V116.883C80.363 117.223 80.363 117.551 80.742 117.551 81.109 117.551 81.109 117.223 81.109 116.883ZM81.109 99.578"/>
</g>
<g clip-path="url(#clip_19)">
<path d="M88.852 100.957C88.852 100.508 88.852 100.473 88.418 100.473 87.258 101.66 85.605 101.66 85 101.66V102.238C85.379 102.238 86.492 102.238 87.461 101.758V111.426C87.461 112.094 87.41 112.316 85.723 112.316H85.121V112.895C85.77 112.836 87.41 112.836 88.156 112.836 88.914 112.836 90.543 112.836 91.191 112.895V112.316H90.602C88.914 112.316 88.852 112.105 88.852 111.426ZM95.102 111.461 97.086 109.543C100.016 106.965 101.141 105.953 101.141 104.086 101.141 101.969 99.449 100.473 97.16 100.473 95.043 100.473 93.648 102.191 93.648 103.848 93.648 104.895 94.594 104.895 94.652 104.895 94.973 104.895 95.621 104.672 95.621 103.91 95.621 103.414 95.293 102.934 94.629 102.934 94.477 102.934 94.441 102.934 94.383 102.957 94.82 101.746 95.836 101.051 96.922 101.051 98.625 101.051 99.438 102.555 99.438 104.086 99.438 105.578 98.492 107.062 97.465 108.215L93.863 112.199C93.648 112.414 93.648 112.449 93.648 112.895H100.621L101.141 109.648H100.668C100.574 110.211 100.441 111.023 100.254 111.309 100.125 111.461 98.883 111.461 98.48 111.461ZM95.102 111.461"/>
</g>
<g clip-path="url(#clip_20)">
<path d="M107.227 108.543C107.309 108.32 107.309 108.285 107.309 108.238 107.309 108.18 107.309 108.145 107.227 107.918L103.941 99.332C103.824 99.016 103.719 98.91 103.504 98.91 103.305 98.91 103.129 99.074 103.129 99.273 103.129 99.332 103.129 99.367 103.223 99.578L106.543 108.238 103.223 116.848C103.129 117.059 103.129 117.094 103.129 117.188 103.129 117.387 103.305 117.551 103.504 117.551 103.754 117.551 103.824 117.375 103.895 117.188ZM107.227 108.543"/>
</g>
<g clip-path="url(#clip_21)">
<path d="M20.648 126.633C20.648 126.293 20.648 125.961 20.281 125.961 19.902 125.961 19.902 126.293 19.902 126.633V143.934C19.902 144.277 19.902 144.605 20.281 144.605 20.648 144.605 20.648 144.277 20.648 143.934ZM20.648 126.633"/>
</g>
<g clip-path="url(#clip_22)">
<path d="M28.402 128.008C28.402 127.562 28.402 127.527 27.965 127.527 26.805 128.715 25.152 128.715 24.551 128.715V129.289C24.926 129.289 26.039 129.289 27.008 128.809V138.477C27.008 139.148 26.961 139.371 25.27 139.371H24.668V139.945C25.316 139.887 26.961 139.887 27.703 139.887 28.461 139.887 30.09 139.887 30.738 139.945V139.371H30.148C28.461 139.371 28.402 139.16 28.402 138.477ZM37.781 128.008C37.781 127.562 37.781 127.527 37.344 127.527 36.188 128.715 34.531 128.715 33.93 128.715V129.289C34.309 129.289 35.418 129.289 36.387 128.809V138.477C36.387 139.148 36.34 139.371 34.652 139.371H34.047V139.945C34.699 139.887 36.34 139.887 37.086 139.887 37.84 139.887 39.469 139.887 40.121 139.945V139.371H39.531C37.84 139.371 37.781 139.16 37.781 138.477ZM37.781 128.008"/>
</g>
<g clip-path="url(#clip_23)">
<path d="M46.773 135.594C46.855 135.371 46.855 135.336 46.855 135.289 46.855 135.23 46.855 135.195 46.773 134.973L43.488 126.387C43.371 126.066 43.262 125.961 43.051 125.961 42.848 125.961 42.672 126.125 42.672 126.328 42.672 126.387 42.672 126.422 42.766 126.633L46.086 135.289 42.766 143.898C42.672 144.109 42.672 144.145 42.672 144.242 42.672 144.441 42.848 144.605 43.051 144.605 43.297 144.605 43.371 144.43 43.441 144.242ZM69.797 135.652C68.77 136.441 68.262 137.207 68.109 137.441 67.27 138.734 67.117 139.91 67.117 139.922 67.117 140.148 67.34 140.148 67.492 140.148 67.812 140.148 67.836 140.113 67.906 139.781 68.344 137.949 69.441 136.383 71.57 135.523 71.793 135.453 71.84 135.418 71.84 135.289 71.84 135.148 71.734 135.102 71.699 135.078 70.871 134.762 68.605 133.832 67.883 130.691 67.836 130.469 67.812 130.418 67.492 130.418 67.34 130.418 67.117 130.418 67.117 130.645 67.117 130.68 67.293 131.855 68.074 133.102 68.449 133.668 68.992 134.312 69.797 134.914H55.867C55.527 134.914 55.184 134.914 55.184 135.289 55.184 135.652 55.527 135.652 55.867 135.652ZM69.797 135.652"/>
<path d="M81.109 126.633C81.109 126.293 81.109 125.961 80.742 125.961 80.363 125.961 80.363 126.293 80.363 126.633V143.934C80.363 144.277 80.363 144.605 80.742 144.605 81.109 144.605 81.109 144.277 81.109 143.934ZM81.109 126.633"/>
</g>
<g clip-path="url(#clip_24)">
<path d="M88.852 128.008C88.852 127.562 88.852 127.527 88.418 127.527 87.258 128.715 85.605 128.715 85 128.715V129.289C85.379 129.289 86.492 129.289 87.461 128.809V138.477C87.461 139.148 87.41 139.371 85.723 139.371H85.121V139.945C85.77 139.887 87.41 139.887 88.156 139.887 88.914 139.887 90.543 139.887 91.191 139.945V139.371H90.602C88.914 139.371 88.852 139.16 88.852 138.477ZM98.234 128.008C98.234 127.562 98.234 127.527 97.797 127.527 96.641 128.715 94.984 128.715 94.383 128.715V129.289C94.762 129.289 95.871 129.289 96.84 128.809V138.477C96.84 139.148 96.793 139.371 95.102 139.371H94.5V139.945C95.148 139.887 96.793 139.887 97.535 139.887 98.293 139.887 99.922 139.887 100.574 139.945V139.371H99.98C98.293 139.371 98.234 139.16 98.234 138.477ZM98.234 128.008"/>
</g>
<g clip-path="url(#clip_25)">
<path d="M107.227 135.594C107.309 135.371 107.309 135.336 107.309 135.289 107.309 135.23 107.309 135.195 107.227 134.973L103.941 126.387C103.824 126.066 103.719 125.961 103.504 125.961 103.305 125.961 103.129 126.125 103.129 126.328 103.129 126.387 103.129 126.422 103.223 126.633L106.543 135.289 103.223 143.898C103.129 144.109 103.129 144.145 103.129 144.242 103.129 144.441 103.305 144.605 103.504 144.605 103.754 144.605 103.824 144.43 103.895 144.242ZM107.227 135.594"/>
</g>
<g clip-path="url(#clip_26)">
<path d="M20.648 153.688C20.648 153.348 20.648 153.02 20.281 153.02 19.902 153.02 19.902 153.348 19.902 153.688V170.988C19.902 171.332 19.902 171.66 20.281 171.66 20.648 171.66 20.648 171.332 20.648 170.988ZM20.648 153.688"/>
</g>
<g clip-path="url(#clip_27)">
<path d="M28.402 155.062C28.402 154.617 28.402 154.582 27.965 154.582 26.805 155.77 25.152 155.77 24.551 155.77V156.348C24.926 156.348 26.039 156.348 27.008 155.863V165.531C27.008 166.203 26.961 166.426 25.27 166.426H24.668V167.004C25.316 166.945 26.961 166.945 27.703 166.945 28.461 166.945 30.09 166.945 30.738 167.004V166.426H30.148C28.461 166.426 28.402 166.215 28.402 165.531ZM34.652 165.566 36.637 163.652C39.566 161.074 40.688 160.062 40.688 158.191 40.688 156.074 39 154.582 36.707 154.582 34.59 154.582 33.199 156.301 33.199 157.957 33.199 159.004 34.141 159.004 34.203 159.004 34.52 159.004 35.172 158.781 35.172 158.016 35.172 157.523 34.84 157.039 34.18 157.039 34.023 157.039 33.988 157.039 33.93 157.062 34.367 155.852 35.383 155.16 36.469 155.16 38.172 155.16 38.984 156.664 38.984 158.191 38.984 159.688 38.043 161.168 37.012 162.32L33.41 166.309C33.199 166.52 33.199 166.555 33.199 167.004H40.168L40.688 163.758H40.215C40.121 164.32 39.992 165.133 39.801 165.414 39.672 165.566 38.43 165.566 38.031 165.566ZM34.652 165.566"/>
</g>
<g clip-path="url(#clip_28)">
<path d="M46.773 162.652C46.855 162.426 46.855 162.391 46.855 162.344 46.855 162.285 46.855 162.25 46.773 162.027L43.488 153.441C43.371 153.125 43.262 153.02 43.051 153.02 42.848 153.02 42.672 153.184 42.672 153.383 42.672 153.441 42.672 153.477 42.766 153.688L46.086 162.344 42.766 170.953C42.672 171.168 42.672 171.203 42.672 171.297 42.672 171.496 42.848 171.66 43.051 171.66 43.297 171.66 43.371 171.484 43.441 171.297ZM69.797 162.711C68.77 163.496 68.262 164.262 68.109 164.496 67.27 165.793 67.117 166.969 67.117 166.98 67.117 167.203 67.34 167.203 67.492 167.203 67.812 167.203 67.836 167.168 67.906 166.84 68.344 165.004 69.441 163.438 71.57 162.582 71.793 162.508 71.84 162.473 71.84 162.344 71.84 162.203 71.734 162.156 71.699 162.133 70.871 161.816 68.605 160.887 67.883 157.746 67.836 157.523 67.812 157.477 67.492 157.477 67.34 157.477 67.117 157.477 67.117 157.699 67.117 157.734 67.293 158.91 68.074 160.156 68.449 160.723 68.992 161.367 69.797 161.969H55.867C55.527 161.969 55.184 161.969 55.184 162.344 55.184 162.711 55.527 162.711 55.867 162.711ZM69.797 162.711"/>
<path d="M81.109 153.688C81.109 153.348 81.109 153.02 80.742 153.02 80.363 153.02 80.363 153.348 80.363 153.688V170.988C80.363 171.332 80.363 171.66 80.742 171.66 81.109 171.66 81.109 171.332 81.109 170.988ZM81.109 153.688"/>
</g>
<g clip-path="url(#clip_29)">
<path d="M85.723 165.566 87.707 163.652C90.637 161.074 91.758 160.062 91.758 158.191 91.758 156.074 90.07 154.582 87.777 154.582 85.664 154.582 84.27 156.301 84.27 157.957 84.27 159.004 85.215 159.004 85.273 159.004 85.594 159.004 86.242 158.781 86.242 158.016 86.242 157.523 85.91 157.039 85.25 157.039 85.098 157.039 85.062 157.039 85 157.062 85.438 155.852 86.453 155.16 87.543 155.16 89.242 155.16 90.059 156.664 90.059 158.191 90.059 159.688 89.113 161.168 88.086 162.32L84.48 166.309C84.27 166.52 84.27 166.555 84.27 167.004H91.238L91.758 163.758H91.285C91.191 164.32 91.062 165.133 90.875 165.414 90.742 165.566 89.504 165.566 89.102 165.566ZM98.234 155.062C98.234 154.617 98.234 154.582 97.797 154.582 96.641 155.77 94.984 155.77 94.383 155.77V156.348C94.762 156.348 95.871 156.348 96.84 155.863V165.531C96.84 166.203 96.793 166.426 95.102 166.426H94.5V167.004C95.148 166.945 96.793 166.945 97.535 166.945 98.293 166.945 99.922 166.945 100.574 167.004V166.426H99.98C98.293 166.426 98.234 166.215 98.234 165.531ZM98.234 155.062"/>
</g>
<g clip-path="url(#clip_30)">
<path d="M107.227 162.652C107.309 162.426 107.309 162.391 107.309 162.344 107.309 162.285 107.309 162.25 107.227 162.027L103.941 153.441C103.824 153.125 103.719 153.02 103.504 153.02 103.305 153.02 103.129 153.184 103.129 153.383 103.129 153.441 103.129 153.477 103.223 153.688L106.543 162.344 103.223 170.953C103.129 171.168 103.129 171.203 103.129 171.297 103.129 171.496 103.305 171.66 103.504 171.66 103.754 171.66 103.824 171.484 103.895 171.297ZM107.227 162.652"/>
</g>
<g clip-path="url(#clip_31)">
<path d="M20.648 180.742C20.648 180.398 20.648 180.07 20.281 180.07 19.902 180.07 19.902 180.398 19.902 180.742V198.043C19.902 198.383 19.902 198.715 20.281 198.715 20.648 198.715 20.648 198.383 20.648 198.043ZM20.648 180.742"/>
</g>
<g clip-path="url(#clip_32)">
<path d="M25.27 192.621 27.254 190.703C30.184 188.129 31.309 187.117 31.309 185.246 31.309 183.129 29.617 181.633 27.324 181.633 25.211 181.633 23.816 183.352 23.816 185.012 23.816 186.059 24.762 186.059 24.82 186.059 25.141 186.059 25.789 185.832 25.789 185.07 25.789 184.574 25.461 184.094 24.797 184.094 24.645 184.094 24.609 184.094 24.551 184.117 24.988 182.906 26.004 182.211 27.09 182.211 28.789 182.211 29.605 183.715 29.605 185.246 29.605 186.738 28.66 188.223 27.633 189.375L24.031 193.359C23.816 193.574 23.816 193.609 23.816 194.055H30.789L31.309 190.809H30.836C30.738 191.375 30.609 192.184 30.422 192.469 30.293 192.621 29.051 192.621 28.648 192.621ZM40.887 188.082C40.887 186.598 40.805 185.105 40.145 183.715 39.281 181.93 37.746 181.633 36.953 181.633 35.832 181.633 34.461 182.117 33.695 183.848 33.09 185.141 32.996 186.598 32.996 188.082 32.996 189.48 33.066 191.16 33.836 192.586 34.652 194.09 36.02 194.469 36.93 194.469 37.945 194.469 39.375 194.078 40.203 192.301 40.805 191.008 40.887 189.562 40.887 188.082ZM36.93 194.055C36.199 194.055 35.098 193.586 34.758 191.797 34.555 190.68 34.555 188.961 34.555 187.855 34.555 186.668 34.555 185.434 34.699 184.434 35.062 182.211 36.469 182.047 36.93 182.047 37.559 182.047 38.797 182.375 39.152 184.223 39.34 185.27 39.34 186.691 39.34 187.855 39.34 189.258 39.34 190.527 39.129 191.727 38.844 193.492 37.781 194.055 36.93 194.055ZM36.93 194.055"/>
</g>
<g clip-path="url(#clip_33)">
<path d="M46.773 189.703C46.855 189.48 46.855 189.445 46.855 189.398 46.855 189.34 46.855 189.305 46.773 189.078L43.488 180.492C43.371 180.176 43.262 180.07 43.051 180.07 42.848 180.07 42.672 180.234 42.672 180.434 42.672 180.492 42.672 180.527 42.766 180.742L46.086 189.398 42.766 198.008C42.672 198.219 42.672 198.254 42.672 198.348 42.672 198.547 42.848 198.715 43.051 198.715 43.297 198.715 43.371 198.535 43.441 198.348ZM69.797 189.762C68.77 190.551 68.262 191.316 68.109 191.551 67.27 192.844 67.117 194.02 67.117 194.031 67.117 194.254 67.34 194.254 67.492 194.254 67.812 194.254 67.836 194.219 67.906 193.891 68.344 192.055 69.441 190.492 71.57 189.633 71.793 189.562 71.84 189.527 71.84 189.398 71.84 189.258 71.734 189.211 71.699 189.188 70.871 188.867 68.605 187.938 67.883 184.797 67.836 184.574 67.812 184.527 67.492 184.527 67.34 184.527 67.117 184.527 67.117 184.75 67.117 184.785 67.293 185.965 68.074 187.211 68.449 187.773 68.992 188.422 69.797 189.02H55.867C55.527 189.02 55.184 189.02 55.184 189.398 55.184 189.762 55.527 189.762 55.867 189.762ZM69.797 189.762"/>
<path d="M81.109 180.742C81.109 180.398 81.109 180.07 80.742 180.07 80.363 180.07 80.363 180.398 80.363 180.742V198.043C80.363 198.383 80.363 198.715 80.742 198.715 81.109 198.715 81.109 198.383 81.109 198.043ZM81.109 180.742"/>
</g>
<g clip-path="url(#clip_34)">
<path d="M91.961 188.082C91.961 186.598 91.879 185.105 91.215 183.715 90.355 181.93 88.816 181.633 88.027 181.633 86.902 181.633 85.535 182.117 84.766 183.848 84.164 185.141 84.07 186.598 84.07 188.082 84.07 189.48 84.141 191.16 84.906 192.586 85.723 194.09 87.094 194.469 88.004 194.469 89.02 194.469 90.449 194.078 91.273 192.301 91.879 191.008 91.961 189.562 91.961 188.082ZM88.004 194.055C87.27 194.055 86.172 193.586 85.828 191.797 85.629 190.68 85.629 188.961 85.629 187.855 85.629 186.668 85.629 185.434 85.77 184.434 86.137 182.211 87.543 182.047 88.004 182.047 88.629 182.047 89.871 182.375 90.223 184.223 90.414 185.27 90.414 186.691 90.414 187.855 90.414 189.258 90.414 190.527 90.199 191.727 89.918 193.492 88.852 194.055 88.004 194.055ZM95.102 192.621 97.086 190.703C100.016 188.129 101.141 187.117 101.141 185.246 101.141 183.129 99.449 181.633 97.16 181.633 95.043 181.633 93.648 183.352 93.648 185.012 93.648 186.059 94.594 186.059 94.652 186.059 94.973 186.059 95.621 185.832 95.621 185.07 95.621 184.574 95.293 184.094 94.629 184.094 94.477 184.094 94.441 184.094 94.383 184.117 94.82 182.906 95.836 182.211 96.922 182.211 98.625 182.211 99.438 183.715 99.438 185.246 99.438 186.738 98.492 188.223 97.465 189.375L93.863 193.359C93.648 193.574 93.648 193.609 93.648 194.055H100.621L101.141 190.809H100.668C100.574 191.375 100.441 192.184 100.254 192.469 100.125 192.621 98.883 192.621 98.48 192.621ZM95.102 192.621"/>
</g>
<g clip-path="url(#clip_35)">
<path d="M107.227 189.703C107.309 189.48 107.309 189.445 107.309 189.398 107.309 189.34 107.309 189.305 107.227 189.078L103.941 180.492C103.824 180.176 103.719 180.07 103.504 180.07 103.305 180.07 103.129 180.234 103.129 180.434 103.129 180.492 103.129 180.527 103.223 180.742L106.543 189.398 103.223 198.008C103.129 198.219 103.129 198.254 103.129 198.348 103.129 198.547 103.305 198.715 103.504 198.715 103.754 198.715 103.824 198.535 103.895 198.348ZM107.227 189.703"/>
</g>
<g clip-path="url(#clip_36)">
<path d="M20.648 207.793C20.648 207.453 20.648 207.121 20.281 207.121 19.902 207.121 19.902 207.453 19.902 207.793V225.094C19.902 225.438 19.902 225.766 20.281 225.766 20.648 225.766 20.648 225.438 20.648 225.094ZM20.648 207.793"/>
</g>
<g clip-path="url(#clip_37)">
<path d="M25.27 219.672 27.254 217.754C30.184 215.18 31.309 214.168 31.309 212.297 31.309 210.18 29.617 208.688 27.324 208.688 25.211 208.688 23.816 210.406 23.816 212.062 23.816 213.109 24.762 213.109 24.82 213.109 25.141 213.109 25.789 212.887 25.789 212.121 25.789 211.629 25.461 211.145 24.797 211.145 24.645 211.145 24.609 211.145 24.551 211.168 24.988 209.957 26.004 209.262 27.09 209.262 28.789 209.262 29.605 210.77 29.605 212.297 29.605 213.793 28.66 215.273 27.633 216.426L24.031 220.414C23.816 220.625 23.816 220.66 23.816 221.109H30.789L31.309 217.863H30.836C30.738 218.426 30.609 219.238 30.422 219.52 30.293 219.672 29.051 219.672 28.648 219.672ZM37.781 209.168C37.781 208.723 37.781 208.688 37.344 208.688 36.188 209.875 34.531 209.875 33.93 209.875V210.453C34.309 210.453 35.418 210.453 36.387 209.969V219.637C36.387 220.309 36.34 220.531 34.652 220.531H34.047V221.109C34.699 221.051 36.34 221.051 37.086 221.051 37.84 221.051 39.469 221.051 40.121 221.109V220.531H39.531C37.84 220.531 37.781 220.32 37.781 219.637ZM37.781 209.168"/>
</g>
<g clip-path="url(#clip_38)">
<path d="M46.773 216.758C46.855 216.531 46.855 216.496 46.855 216.449 46.855 216.391 46.855 216.355 46.773 216.133L43.488 207.547C43.371 207.23 43.262 207.121 43.051 207.121 42.848 207.121 42.672 207.289 42.672 207.488 42.672 207.547 42.672 207.582 42.766 207.793L46.086 216.449 42.766 225.059C42.672 225.273 42.672 225.309 42.672 225.402 42.672 225.602 42.848 225.766 43.051 225.766 43.297 225.766 43.371 225.59 43.441 225.402ZM69.797 216.816C68.77 217.602 68.262 218.367 68.109 218.602 67.27 219.895 67.117 221.074 67.117 221.086 67.117 221.309 67.34 221.309 67.492 221.309 67.812 221.309 67.836 221.273 67.906 220.941 68.344 219.109 69.441 217.543 71.57 216.684 71.793 216.613 71.84 216.578 71.84 216.449 71.84 216.309 71.734 216.262 71.699 216.238 70.871 215.922 68.605 214.992 67.883 211.852 67.836 211.629 67.812 211.582 67.492 211.582 67.34 211.582 67.117 211.582 67.117 211.805 67.117 211.84 67.293 213.016 68.074 214.262 68.449 214.828 68.992 215.473 69.797 216.074H55.867C55.527 216.074 55.184 216.074 55.184 216.449 55.184 216.816 55.527 216.816 55.867 216.816ZM69.797 216.816"/>
<path d="M81.109 207.793C81.109 207.453 81.109 207.121 80.742 207.121 80.363 207.121 80.363 207.453 80.363 207.793V225.094C80.363 225.438 80.363 225.766 80.742 225.766 81.109 225.766 81.109 225.438 81.109 225.094ZM81.109 207.793"/>
</g>
<g clip-path="url(#clip_39)">
<path d="M85.723 219.672 87.707 217.754C90.637 215.18 91.758 214.168 91.758 212.297 91.758 210.18 90.07 208.688 87.777 208.688 85.664 208.688 84.27 210.406 84.27 212.062 84.27 213.109 85.215 213.109 85.273 213.109 85.594 213.109 86.242 212.887 86.242 212.121 86.242 211.629 85.91 211.145 85.25 211.145 85.098 211.145 85.062 211.145 85 211.168 85.438 209.957 86.453 209.262 87.543 209.262 89.242 209.262 90.059 210.77 90.059 212.297 90.059 213.793 89.113 215.273 88.086 216.426L84.48 220.414C84.27 220.625 84.27 220.66 84.27 221.109H91.238L91.758 217.863H91.285C91.191 218.426 91.062 219.238 90.875 219.52 90.742 219.672 89.504 219.672 89.102 219.672ZM101.34 215.133C101.34 213.652 101.258 212.156 100.598 210.77 99.734 208.98 98.199 208.688 97.406 208.688 96.285 208.688 94.914 209.168 94.145 210.898 93.543 212.191 93.449 213.652 93.449 215.133 93.449 216.531 93.52 218.215 94.289 219.637 95.102 221.145 96.473 221.52 97.383 221.52 98.398 221.52 99.828 221.133 100.656 219.355 101.258 218.062 101.34 216.613 101.34 215.133ZM97.383 221.109C96.652 221.109 95.551 220.637 95.211 218.848 95.008 217.73 95.008 216.016 95.008 214.91 95.008 213.723 95.008 212.484 95.148 211.488 95.516 209.262 96.922 209.098 97.383 209.098 98.008 209.098 99.25 209.43 99.605 211.273 99.793 212.32 99.793 213.746 99.793 214.91 99.793 216.309 99.793 217.578 99.582 218.777 99.297 220.543 98.234 221.109 97.383 221.109ZM97.383 221.109"/>
</g>
<g clip-path="url(#clip_40)">
<path d="M107.227 216.758C107.309 216.531 107.309 216.496 107.309 216.449 107.309 216.391 107.309 216.355 107.227 216.133L103.941 207.547C103.824 207.23 103.719 207.121 103.504 207.121 103.305 207.121 103.129 207.289 103.129 207.488 103.129 207.547 103.129 207.582 103.223 207.793L106.543 216.449 103.223 225.059C103.129 225.273 103.129 225.309 103.129 225.402 103.129 225.602 103.305 225.766 103.504 225.766 103.754 225.766 103.824 225.59 103.895 225.402ZM107.227 216.758"/>
</g>
<g clip-path="url(#clip_41)">
<path d="M20.648 234.844C20.648 234.5 20.648 234.172 20.281 234.172 19.902 234.172 19.902 234.5 19.902 234.844V252.145C19.902 252.484 19.902 252.816 20.281 252.816 20.648 252.816 20.648 252.484 20.648 252.145ZM20.648 234.844"/>
</g>
<g clip-path="url(#clip_42)">
<path d="M25.27 246.723 27.254 244.805C30.184 242.23 31.309 241.219 31.309 239.348 31.309 237.23 29.617 235.738 27.324 235.738 25.211 235.738 23.816 237.453 23.816 239.113 23.816 240.16 24.762 240.16 24.82 240.16 25.141 240.16 25.789 239.938 25.789 239.172 25.789 238.676 25.461 238.195 24.797 238.195 24.645 238.195 24.609 238.195 24.551 238.219 24.988 237.008 26.004 236.312 27.09 236.312 28.789 236.312 29.605 237.82 29.605 239.348 29.605 240.84 28.66 242.324 27.633 243.477L24.031 247.465C23.816 247.676 23.816 247.711 23.816 248.156H30.789L31.309 244.91H30.836C30.738 245.477 30.609 246.289 30.422 246.57 30.293 246.723 29.051 246.723 28.648 246.723ZM34.652 246.723 36.637 244.805C39.566 242.23 40.688 241.219 40.688 239.348 40.688 237.23 39 235.738 36.707 235.738 34.59 235.738 33.199 237.453 33.199 239.113 33.199 240.16 34.141 240.16 34.203 240.16 34.52 240.16 35.172 239.938 35.172 239.172 35.172 238.676 34.84 238.195 34.18 238.195 34.023 238.195 33.988 238.195 33.93 238.219 34.367 237.008 35.383 236.312 36.469 236.312 38.172 236.312 38.984 237.82 38.984 239.348 38.984 240.84 38.043 242.324 37.012 243.477L33.41 247.465C33.199 247.676 33.199 247.711 33.199 248.156H40.168L40.688 244.91H40.215C40.121 245.477 39.992 246.289 39.801 246.57 39.672 246.723 38.43 246.723 38.031 246.723ZM34.652 246.723"/>
</g>
<g clip-path="url(#clip_43)">
<path d="M46.773 243.805C46.855 243.582 46.855 243.547 46.855 243.5 46.855 243.441 46.855 243.406 46.773 243.184L43.488 234.598C43.371 234.277 43.262 234.172 43.051 234.172 42.848 234.172 42.672 234.336 42.672 234.535 42.672 234.598 42.672 234.633 42.766 234.844L46.086 243.5 42.766 252.109C42.672 252.32 42.672 252.355 42.672 252.449 42.672 252.652 42.848 252.816 43.051 252.816 43.297 252.816 43.371 252.641 43.441 252.449ZM69.797 243.863C68.77 244.652 68.262 245.418 68.109 245.652 67.27 246.945 67.117 248.121 67.117 248.133 67.117 248.355 67.34 248.355 67.492 248.355 67.812 248.355 67.836 248.32 67.906 247.992 68.344 246.156 69.441 244.594 71.57 243.734 71.793 243.664 71.84 243.629 71.84 243.5 71.84 243.359 71.734 243.312 71.699 243.289 70.871 242.969 68.605 242.043 67.883 238.902 67.836 238.676 67.812 238.629 67.492 238.629 67.34 238.629 67.117 238.629 67.117 238.855 67.117 238.891 67.293 240.066 68.074 241.312 68.449 241.875 68.992 242.523 69.797 243.125H55.867C55.527 243.125 55.184 243.125 55.184 243.5 55.184 243.863 55.527 243.863 55.867 243.863ZM69.797 243.863"/>
<path d="M81.109 234.844C81.109 234.5 81.109 234.172 80.742 234.172 80.363 234.172 80.363 234.5 80.363 234.844V252.145C80.363 252.484 80.363 252.816 80.742 252.816 81.109 252.816 81.109 252.484 81.109 252.145ZM81.109 234.844"/>
</g>
<g clip-path="url(#clip_44)">
<path d="M85.723 246.723 87.707 244.805C90.637 242.23 91.758 241.219 91.758 239.348 91.758 237.23 90.07 235.738 87.777 235.738 85.664 235.738 84.27 237.453 84.27 239.113 84.27 240.16 85.215 240.16 85.273 240.16 85.594 240.16 86.242 239.938 86.242 239.172 86.242 238.676 85.91 238.195 85.25 238.195 85.098 238.195 85.062 238.195 85 238.219 85.438 237.008 86.453 236.312 87.543 236.312 89.242 236.312 90.059 237.82 90.059 239.348 90.059 240.84 89.113 242.324 88.086 243.477L84.48 247.465C84.27 247.676 84.27 247.711 84.27 248.156H91.238L91.758 244.91H91.285C91.191 245.477 91.062 246.289 90.875 246.57 90.742 246.723 89.504 246.723 89.102 246.723ZM95.102 246.723 97.086 244.805C100.016 242.23 101.141 241.219 101.141 239.348 101.141 237.23 99.449 235.738 97.16 235.738 95.043 235.738 93.648 237.453 93.648 239.113 93.648 240.16 94.594 240.16 94.652 240.16 94.973 240.16 95.621 239.938 95.621 239.172 95.621 238.676 95.293 238.195 94.629 238.195 94.477 238.195 94.441 238.195 94.383 238.219 94.82 237.008 95.836 236.312 96.922 236.312 98.625 236.312 99.438 237.82 99.438 239.348 99.438 240.84 98.492 242.324 97.465 243.477L93.863 247.465C93.648 247.676 93.648 247.711 93.648 248.156H100.621L101.141 244.91H100.668C100.574 245.477 100.441 246.289 100.254 246.57 100.125 246.723 98.883 246.723 98.48 246.723ZM95.102 246.723"/>
</g>
<g clip-path="url(#clip_45)">
<path d="M107.227 243.805C107.309 243.582 107.309 243.547 107.309 243.5 107.309 243.441 107.309 243.406 107.227 243.184L103.941 234.598C103.824 234.277 103.719 234.172 103.504 234.172 103.305 234.172 103.129 234.336 103.129 234.535 103.129 234.598 103.129 234.633 103.223 234.844L106.543 243.5 103.223 252.109C103.129 252.32 103.129 252.355 103.129 252.449 103.129 252.652 103.305 252.816 103.504 252.816 103.754 252.816 103.824 252.641 103.895 252.449ZM107.227 243.805"/>
</g>
</g>
</svg>
