<?xml version="1.0" encoding="utf-8" standalone="no"?>
<!DOCTYPE svg PUBLIC "-//W3C//DTD SVG 1.1//EN"
  "http://www.w3.org/Graphics/SVG/1.1/DTD/svg11.dtd">
<svg xmlns:xlink="http://www.w3.org/1999/xlink" width="288pt" height="288pt" viewBox="0 0 288 288" xmlns="http://www.w3.org/2000/svg" version="1.1">
 <metadata>
  <rdf:RDF xmlns:dc="http://purl.org/dc/elements/1.1/" xmlns:cc="http://creativecommons.org/ns#" xmlns:rdf="http://www.w3.org/1999/02/22-rdf-syntax-ns#">
   <cc:Work>
    <dc:type rdf:resource="http://purl.org/dc/dcmitype/StillImage"/>
    <dc:date>2024-04-11T17:59:30.103952</dc:date>
    <dc:format>image/svg+xml</dc:format>
    <dc:creator>
     <cc:Agent>
      <dc:title>Matplotlib v3.8.0, https://matplotlib.org/</dc:title>
     </cc:Agent>
    </dc:creator>
   </cc:Work>
  </rdf:RDF>
 </metadata>
 <defs>
  <style type="text/css">*{stroke-linejoin: round; stroke-linecap: butt}</style>
 </defs>
 <g id="figure_1">
  <g id="patch_1">
   <path d="M 0 288 
L 288 288 
L 288 0 
L 0 0 
z
" style="fill: #ffffff"/>
  </g>
  <g id="axes_1">
   <g id="patch_2">
    <path d="M 36 256.32 
L 259.2 256.32 
L 259.2 34.56 
L 36 34.56 
z
" style="fill: #ffffff"/>
   </g>
   <g id="matplotlib.axis_1">
    <g id="xtick_1">
     <g id="line2d_1">
      <defs>
       <path id="m0311ea28a0" d="M 0 0 
L 0 3.5 
" style="stroke: #000000; stroke-width: 0.8"/>
      </defs>
      <g>
       <use xlink:href="#m0311ea28a0" x="36" y="256.32" style="stroke: #000000; stroke-width: 0.8"/>
      </g>
     </g>
     <g id="text_1">
      <!-- $\mathdefault{0.0}$ -->
      <g transform="translate(29.77335 270.448237) scale(0.1 -0.1)">
       <defs>
        <path id="URWPalladioL-Roma-30" d="M 1683 4416 
C 691 4416 186 3628 186 2077 
C 186 1326 320 680 544 366 
C 768 51 1126 -128 1523 -128 
C 2490 -128 2976 705 2976 2346 
C 2976 3749 2560 4416 1683 4416 
z
M 1568 4192 
C 2189 4192 2438 3564 2438 2025 
C 2438 661 2195 96 1606 96 
C 986 96 723 744 723 2308 
C 723 3660 960 4192 1568 4192 
z
" transform="scale(0.015625)"/>
        <path id="URWPalladioL-Roma-2e" d="M 794 744 
C 602 744 429 564 429 372 
C 429 179 602 0 787 0 
C 992 0 1171 173 1171 372 
C 1171 564 992 744 794 744 
z
" transform="scale(0.015625)"/>
       </defs>
       <use xlink:href="#URWPalladioL-Roma-30" transform="scale(0.996264)"/>
       <use xlink:href="#URWPalladioL-Roma-2e" transform="translate(49.8132 0) scale(0.996264)"/>
       <use xlink:href="#URWPalladioL-Roma-30" transform="translate(74.719801 0) scale(0.996264)"/>
      </g>
     </g>
    </g>
    <g id="xtick_2">
     <g id="line2d_2">
      <g>
       <use xlink:href="#m0311ea28a0" x="259.2" y="256.32" style="stroke: #000000; stroke-width: 0.8"/>
      </g>
     </g>
     <g id="text_2">
      <!-- $\mathdefault{0.5}$ -->
      <g transform="translate(252.97335 270.448237) scale(0.1 -0.1)">
       <defs>
        <path id="URWPalladioL-Roma-35" d="M 813 3877 
C 1638 3877 1997 3877 2765 3877 
L 2797 3907 
C 2784 4016 2784 4064 2784 4144 
C 2784 4229 2784 4277 2797 4386 
L 2765 4416 
C 2285 4416 1997 4416 1651 4416 
C 1299 4416 1018 4416 538 4416 
L 506 4403 
C 512 4011 518 3729 518 3523 
C 518 2977 499 2360 480 2077 
L 608 2038 
C 909 2341 1082 2432 1395 2432 
C 2010 2432 2394 1993 2394 1296 
C 2394 580 1984 160 1286 160 
C 941 160 621 277 531 444 
L 237 973 
L 83 883 
C 230 516 307 310 397 27 
C 576 -71 832 -128 1107 -128 
C 1536 -128 1990 59 2342 368 
C 2733 716 2938 1154 2938 1630 
C 2938 2359 2419 2874 1690 2874 
C 1382 2874 1152 2791 755 2554 
L 813 3877 
z
" transform="scale(0.015625)"/>
       </defs>
       <use xlink:href="#URWPalladioL-Roma-30" transform="scale(0.996264)"/>
       <use xlink:href="#URWPalladioL-Roma-2e" transform="translate(49.8132 0) scale(0.996264)"/>
       <use xlink:href="#URWPalladioL-Roma-35" transform="translate(74.719801 0) scale(0.996264)"/>
      </g>
     </g>
    </g>
    <g id="text_3">
     <!-- $p$ -->
     <g transform="translate(145.10934 284.385886) scale(0.1 -0.1)">
      <defs>
       <path id="URWPalladioL-Ital-70" d="M 736 25 
L 794 6 
C 960 -45 1056 -64 1126 -64 
C 1485 -64 2221 400 2496 801 
C 2758 1189 2976 1888 2976 2365 
C 2976 2792 2829 3072 2598 3072 
C 2330 3072 1990 2906 1658 2608 
C 1395 2385 1267 2219 1037 1844 
L 1190 2601 
C 1210 2710 1222 2804 1222 2881 
C 1222 3002 1171 3072 1082 3072 
C 947 3072 704 2938 230 2600 
L 51 2473 
L 96 2346 
L 301 2480 
C 480 2594 550 2626 608 2626 
C 672 2626 717 2568 717 2480 
C 717 2429 704 2302 691 2238 
L 320 55 
C 256 -327 134 -906 6 -1479 
L -45 -1715 
L 0 -1753 
C 134 -1708 262 -1676 467 -1645 
L 736 25 
z
M 915 1056 
C 1056 1869 1741 2702 2272 2702 
C 2438 2702 2515 2562 2515 2270 
C 2515 1755 2259 998 1920 515 
C 1792 331 1587 235 1325 235 
C 1126 235 966 280 800 381 
L 915 1056 
z
" transform="scale(0.015625)"/>
      </defs>
      <use xlink:href="#URWPalladioL-Ital-70" transform="scale(0.996264)"/>
     </g>
    </g>
   </g>
   <g id="matplotlib.axis_2">
    <g id="ytick_1">
     <g id="line2d_3">
      <defs>
       <path id="m3559e70de8" d="M 0 0 
L -3.5 0 
" style="stroke: #000000; stroke-width: 0.8"/>
      </defs>
      <g>
       <use xlink:href="#m3559e70de8" x="36" y="256.32" style="stroke: #000000; stroke-width: 0.8"/>
      </g>
     </g>
     <g id="text_4">
      <!-- $\mathdefault{0.0}$ -->
      <g transform="translate(16.5467 259.884119) scale(0.1 -0.1)">
       <use xlink:href="#URWPalladioL-Roma-30" transform="scale(0.996264)"/>
       <use xlink:href="#URWPalladioL-Roma-2e" transform="translate(49.8132 0) scale(0.996264)"/>
       <use xlink:href="#URWPalladioL-Roma-30" transform="translate(74.719801 0) scale(0.996264)"/>
      </g>
     </g>
    </g>
    <g id="ytick_2">
     <g id="line2d_4">
      <g>
       <use xlink:href="#m3559e70de8" x="36" y="50.986667" style="stroke: #000000; stroke-width: 0.8"/>
      </g>
     </g>
     <g id="text_5">
      <!-- $\mathdefault{2.5}$ -->
      <g transform="translate(16.5467 54.550785) scale(0.1 -0.1)">
       <defs>
        <path id="URWPalladioL-Roma-32" d="M 102 160 
L 102 0 
C 1299 0 1299 0 1530 0 
C 1760 0 1760 0 2995 0 
C 2982 125 2982 186 2982 269 
C 2982 348 2982 407 2995 539 
C 2259 539 1965 539 781 539 
L 1946 1761 
C 2566 2414 2758 2763 2758 3238 
C 2758 3966 2259 4416 1446 4416 
C 986 4416 672 4288 358 3969 
L 250 3099 
L 435 3099 
L 518 3393 
C 621 3763 851 3923 1280 3923 
C 1830 3923 2182 3577 2182 3035 
C 2182 2555 1914 2083 1190 1316 
L 102 160 
z
" transform="scale(0.015625)"/>
       </defs>
       <use xlink:href="#URWPalladioL-Roma-32" transform="scale(0.996264)"/>
       <use xlink:href="#URWPalladioL-Roma-2e" transform="translate(49.8132 0) scale(0.996264)"/>
       <use xlink:href="#URWPalladioL-Roma-35" transform="translate(74.719801 0) scale(0.996264)"/>
      </g>
     </g>
    </g>
    <g id="text_6">
     <!-- $T$ -->
     <g transform="translate(9.737289 148.483579) rotate(-90) scale(0.1 -0.1)">
      <defs>
       <path id="URWPalladioL-Ital-54" d="M 2496 4136 
L 2963 4136 
C 3462 4136 3693 4104 3712 4028 
C 3731 3977 3744 3855 3738 3791 
L 3712 3383 
L 3891 3383 
L 4064 4416 
L 3482 4416 
C 2918 4416 2483 4416 2259 4416 
C 2022 4416 1613 4416 1062 4416 
L 454 4416 
L 339 3383 
L 525 3383 
L 621 3766 
C 653 3907 698 4009 736 4053 
C 774 4098 1018 4136 1254 4136 
L 1971 4136 
L 1421 801 
C 1318 218 1306 199 1050 179 
L 723 179 
L 698 0 
L 1062 0 
C 1318 0 1504 0 1606 0 
C 1728 0 1926 0 2176 0 
L 2458 0 
L 2477 179 
L 2099 179 
C 1933 179 1869 230 1869 365 
C 1869 423 1875 468 1894 590 
L 2496 4136 
z
" transform="scale(0.015625)"/>
      </defs>
      <use xlink:href="#URWPalladioL-Ital-54" transform="scale(0.996264)"/>
     </g>
    </g>
   </g>
   <g id="line2d_5">
    <path d="M 36 69.653333 
L 259.2 69.653333 
" clip-path="url(#p754dc74123)" style="fill: none; stroke-dasharray: 5.55,2.4; stroke-dashoffset: 0; stroke: #ffa500; stroke-width: 1.5"/>
   </g>
   <g id="line2d_6">
    <path d="M 36 256.32 
L 36.746488 230.620877 
L 37.492977 227.486584 
L 38.239465 225.267401 
L 39.732441 221.924053 
L 41.225418 219.288857 
L 43.464883 216.000671 
L 45.704348 213.167588 
L 48.690301 209.805792 
L 52.422742 206.009621 
L 56.901672 201.808508 
L 62.873579 196.542821 
L 72.577926 188.336657 
L 86.761204 176.321401 
L 94.972575 169.058112 
L 101.69097 162.831237 
L 107.662876 157.020332 
L 113.634783 150.895468 
L 118.860201 145.23398 
L 124.085619 139.246026 
L 129.311037 132.883772 
L 133.789967 127.091348 
L 138.268896 120.944733 
L 142.747826 114.399165 
L 147.226756 107.403171 
L 150.959197 101.186355 
L 154.691639 94.575769 
L 158.42408 87.525957 
L 162.156522 79.984623 
L 165.888963 71.891241 
L 169.621405 63.17533 
L 172.607358 55.699338 
L 175.593311 47.723328 
L 178.579264 39.191072 
L 181.565217 30.037739 
L 184.551171 20.188166 
L 187.537124 9.554708 
L 190.280366 -1 
L 190.280366 -1 
" clip-path="url(#p754dc74123)" style="fill: none; stroke-dasharray: 5.55,2.4; stroke-dashoffset: 0; stroke: #d9d7d7; stroke-width: 1.5"/>
   </g>
   <g id="line2d_7">
    <path d="M 89.1216 256.32 
L 89.451396 228.942222 
L 89.568 174.186667 
L 89.387588 167.87303 
L 88.649099 160.468568 
L 87.722749 154.625013 
L 86.609509 149.344883 
L 85.495621 144.710976 
L 84.009249 139.917297 
L 81.965124 133.570175 
L 80.105945 128.859412 
L 78.060524 123.992084 
L 75.828861 118.960254 
L 73.596551 114.812206 
L 71.7364 111.087344 
L 69.690008 107.271458 
L 68.015451 104.488752 
L 62.61865 97.022371 
L 59.641048 92.854257 
L 56.849041 89.814428 
L 54.057033 86.717612 
L 51.078784 83.563307 
L 47.728051 80.351031 
L 44.56356 77.075704 
L 40.0957 73.065266 
L 38.048012 71.023487 
L 36 69.653333 
" clip-path="url(#p754dc74123)" style="fill: none; stroke: #1f77b4; stroke-width: 1.5; stroke-linecap: square"/>
   </g>
   <g id="patch_3">
    <path d="M 36 256.32 
L 36 34.56 
" style="fill: none; stroke: #000000; stroke-width: 0.8; stroke-linejoin: miter; stroke-linecap: square"/>
   </g>
   <g id="patch_4">
    <path d="M 259.2 256.32 
L 259.2 34.56 
" style="fill: none; stroke: #000000; stroke-width: 0.8; stroke-linejoin: miter; stroke-linecap: square"/>
   </g>
   <g id="patch_5">
    <path d="M 36 256.32 
L 259.2 256.32 
" style="fill: none; stroke: #000000; stroke-width: 0.8; stroke-linejoin: miter; stroke-linecap: square"/>
   </g>
   <g id="patch_6">
    <path d="M 36 34.56 
L 259.2 34.56 
" style="fill: none; stroke: #000000; stroke-width: 0.8; stroke-linejoin: miter; stroke-linecap: square"/>
   </g>
   <g id="text_7">
    <!-- $p_\mathrm{c}\approx 0.12$ -->
    <g style="fill: #0000ff" transform="translate(82.872 268.64) scale(0.11 -0.11)">
     <defs>
      <path id="URWPalladioL-Roma-63" d="M 2554 1994 
C 2554 2289 2586 2552 2643 2783 
C 2387 2937 2163 3008 1901 3008 
C 1594 3008 1235 2886 851 2642 
C 403 2360 166 1911 166 1347 
C 166 481 774 -128 1632 -128 
C 1965 -128 2445 -6 2509 90 
L 2643 295 
L 2579 391 
C 2342 263 2138 205 1907 205 
C 1197 205 730 757 730 1603 
C 730 2289 1050 2674 1626 2674 
C 1907 2674 2214 2546 2330 2386 
L 2374 1994 
L 2554 1994 
z
" transform="scale(0.015625)"/>
      <path id="CMSY10-19" d="M 4622 2890 
C 4622 3023 4577 3081 4533 3081 
C 4507 3081 4449 3055 4443 2909 
C 4417 2469 3969 2208 3553 2208 
C 3182 2208 2862 2405 2529 2628 
C 2183 2858 1837 3087 1421 3087 
C 826 3087 352 2634 352 2047 
C 352 1907 403 1856 442 1856 
C 506 1856 531 1977 531 2002 
C 563 2538 1088 2729 1421 2729 
C 1792 2729 2113 2531 2445 2308 
C 2791 2079 3137 1850 3553 1850 
C 4149 1850 4622 2303 4622 2890 
z
M 4622 1391 
C 4622 1577 4545 1590 4533 1590 
C 4507 1590 4449 1558 4443 1417 
C 4417 975 3969 713 3553 713 
C 3182 713 2862 912 2529 1137 
C 2183 1369 1837 1600 1421 1600 
C 826 1600 352 1145 352 554 
C 352 412 403 361 442 361 
C 506 361 531 483 531 509 
C 563 1049 1088 1242 1421 1242 
C 1792 1242 2113 1042 2445 817 
C 2791 586 3137 354 3553 354 
C 4161 354 4622 828 4622 1391 
z
" transform="scale(0.015625)"/>
      <path id="URWPalladioL-Roma-31" d="M 429 3584 
L 493 3584 
L 1318 3956 
C 1325 3962 1331 3962 1338 3962 
C 1376 3962 1389 3905 1389 3751 
L 1389 613 
C 1389 276 1318 205 973 205 
L 614 205 
L 614 0 
C 1600 0 1600 0 1670 0 
C 1754 0 1894 0 2112 0 
C 2189 0 2413 0 2675 0 
L 2675 205 
L 2342 205 
C 1990 205 1926 276 1926 612 
L 1926 4443 
L 1837 4475 
C 1421 4257 966 4065 384 3860 
L 429 3584 
z
" transform="scale(0.015625)"/>
     </defs>
     <use xlink:href="#URWPalladioL-Ital-70" transform="scale(0.996264)"/>
     <use xlink:href="#URWPalladioL-Roma-63" transform="translate(51.057573 -14.943915) scale(0.757155)"/>
     <use xlink:href="#CMSY10-19" transform="translate(114.092204 0) scale(1.038107)"/>
     <use xlink:href="#URWPalladioL-Roma-30" transform="translate(223.707833 0) scale(0.996264)"/>
     <use xlink:href="#URWPalladioL-Roma-2e" transform="translate(273.521034 0) scale(0.996264)"/>
     <use xlink:href="#URWPalladioL-Roma-31" transform="translate(298.427634 0) scale(0.996264)"/>
     <use xlink:href="#URWPalladioL-Roma-32" transform="translate(348.240835 0) scale(0.996264)"/>
    </g>
   </g>
   <g id="text_8">
    <!-- $T_\mathrm{c}\approx 2.27$ -->
    <g style="fill: #ffa500" transform="translate(39.5712 63.082667) scale(0.11 -0.11)">
     <defs>
      <path id="URWPalladioL-Roma-37" d="M 358 32 
L 416 -51 
C 666 -32 666 -32 710 -32 
C 755 -32 755 -32 1005 -51 
C 1274 649 1587 1317 2010 2087 
L 3181 4199 
L 3181 4372 
C 2490 4372 2266 4372 1747 4372 
C 1280 4372 966 4372 346 4372 
L 282 4359 
C 301 3750 301 3750 301 3685 
C 301 3614 301 3614 282 3031 
L 474 3031 
L 518 3390 
C 570 3789 614 3840 909 3840 
L 2618 3840 
C 2362 3313 2163 2941 1920 2549 
L 358 32 
z
" transform="scale(0.015625)"/>
     </defs>
     <use xlink:href="#URWPalladioL-Ital-54" transform="scale(0.996264)"/>
     <use xlink:href="#URWPalladioL-Roma-63" transform="translate(54.644145 -14.943915) scale(0.757155)"/>
     <use xlink:href="#CMSY10-19" transform="translate(117.678776 0) scale(1.038107)"/>
     <use xlink:href="#URWPalladioL-Roma-32" transform="translate(227.294405 0) scale(0.996264)"/>
     <use xlink:href="#URWPalladioL-Roma-2e" transform="translate(277.107606 0) scale(0.996264)"/>
     <use xlink:href="#URWPalladioL-Roma-32" transform="translate(302.014206 0) scale(0.996264)"/>
     <use xlink:href="#URWPalladioL-Roma-37" transform="translate(351.827406 0) scale(0.996264)"/>
    </g>
   </g>
   <g id="text_9">
    <!-- FM -->
    <g transform="translate(58.32 248.106667) scale(0.15 -0.15)">
     <defs>
      <path id="URWPalladioL-Roma-46" d="M 1382 2100 
C 1562 2112 1754 2112 2042 2112 
C 2515 2112 2688 2094 2803 2040 
L 2854 1890 
L 2886 1536 
L 3078 1536 
C 3059 2132 3059 2132 3059 2247 
C 3059 2350 3059 2350 3078 2991 
L 2886 2991 
L 2854 2642 
C 2848 2581 2829 2521 2803 2467 
C 2688 2414 2509 2394 2086 2394 
C 1818 2394 1600 2394 1382 2394 
L 1382 4117 
C 1574 4160 1690 4160 2067 4160 
C 2374 4160 2733 4124 2931 4076 
C 3085 4039 3104 4008 3104 3868 
L 3104 3465 
L 3328 3465 
C 3328 3843 3360 4146 3430 4423 
C 3117 4423 2925 4423 2650 4423 
L 1965 4423 
C 1651 4423 1427 4423 1267 4423 
C 1082 4423 1082 4423 141 4423 
L 141 4224 
L 448 4224 
C 742 4224 774 4172 774 3663 
L 774 766 
C 774 256 742 205 448 205 
L 141 205 
L 141 0 
C 518 0 742 0 1075 0 
C 1408 0 1638 0 2016 0 
L 2016 205 
L 1709 205 
C 1414 205 1382 256 1382 766 
L 1382 2100 
z
" transform="scale(0.015625)"/>
      <path id="URWPalladioL-Roma-4d" d="M 4685 783 
C 4685 276 4659 231 4358 205 
L 4141 186 
L 4141 0 
C 4435 0 4627 0 4960 0 
C 5318 0 5549 0 5926 0 
L 5926 205 
L 5619 205 
C 5325 205 5293 256 5293 766 
L 5293 3663 
C 5293 4166 5325 4224 5619 4224 
L 5888 4256 
L 5888 4436 
C 5402 4436 5402 4436 5293 4436 
C 5197 4436 5197 4436 4685 4436 
L 3008 884 
L 1318 4436 
C 806 4436 806 4436 710 4436 
C 614 4436 614 4436 102 4436 
L 102 4237 
L 384 4237 
C 678 4237 710 4178 710 3674 
L 710 768 
C 710 263 678 205 384 205 
L 102 205 
L 102 0 
C 736 0 736 0 845 0 
C 941 0 941 0 1613 0 
L 1613 205 
L 1331 205 
C 1037 205 1005 262 1005 766 
L 1005 3718 
L 2790 -64 
L 2918 -64 
C 2963 32 3002 134 3040 230 
C 3142 480 3219 658 3264 748 
L 4403 3167 
C 4493 3353 4570 3500 4685 3718 
L 4685 783 
z
" transform="scale(0.015625)"/>
     </defs>
     <use xlink:href="#URWPalladioL-Roma-46" transform="scale(0.996264)"/>
     <use xlink:href="#URWPalladioL-Roma-4d" transform="translate(55.391677 0) scale(0.996264)"/>
    </g>
   </g>
   <g id="text_10">
    <!-- PM -->
    <g transform="translate(98.496 248.106667) scale(0.15 -0.15)">
     <defs>
      <path id="URWPalladioL-Roma-50" d="M 1382 4116 
C 1606 4166 1792 4192 2010 4192 
C 2701 4192 3072 3875 3072 3273 
C 3072 2703 2682 2304 2125 2304 
C 1990 2304 1894 2317 1728 2367 
L 1792 2137 
C 1946 2105 2035 2099 2163 2099 
C 3040 2099 3712 2692 3712 3459 
C 3712 4071 3213 4448 2400 4448 
C 2368 4448 2304 4448 2221 4423 
C 1984 4423 1498 4423 1312 4423 
C 1171 4423 1171 4423 147 4423 
L 147 4224 
L 435 4224 
C 723 4224 774 4140 774 3663 
L 774 766 
C 774 256 742 205 448 205 
L 141 205 
L 141 0 
C 518 0 742 0 1075 0 
C 1408 0 1638 0 2016 0 
L 2016 205 
L 1709 205 
C 1414 205 1382 256 1382 764 
L 1382 4116 
z
" transform="scale(0.015625)"/>
     </defs>
     <use xlink:href="#URWPalladioL-Roma-50" transform="scale(0.996264)"/>
     <use xlink:href="#URWPalladioL-Roma-4d" transform="translate(60.173595 0) scale(0.996264)"/>
    </g>
   </g>
   <g id="text_11">
    <!-- N -->
    <g style="fill: #808080" transform="translate(115.426465 144.877438) rotate(-48.412784) scale(0.1 -0.1)">
     <defs>
      <path id="URWPalladioL-Roma-4e" d="M 877 4423 
C 518 4423 461 4423 109 4423 
L 109 4224 
L 390 4224 
C 685 4224 717 4166 717 3663 
L 717 766 
C 717 262 685 205 390 205 
L 109 205 
L 109 0 
C 742 0 742 0 851 0 
C 947 0 947 0 1619 0 
L 1619 205 
L 1338 205 
C 1043 205 1011 262 1011 764 
L 1011 3738 
L 4038 -13 
L 4614 -115 
C 4614 -90 4614 -83 4608 -38 
C 4602 32 4595 84 4595 122 
L 4595 3665 
C 4595 4166 4627 4224 4922 4224 
L 5203 4224 
L 5203 4423 
C 4531 4423 4531 4423 4435 4423 
C 4326 4423 4326 4423 3693 4423 
L 3693 4224 
L 3974 4224 
C 4269 4224 4301 4166 4301 3665 
L 4301 639 
L 1222 4423 
L 877 4423 
z
" transform="scale(0.015625)"/>
     </defs>
     <use xlink:href="#URWPalladioL-Roma-4e" transform="scale(0.996264)"/>
    </g>
   </g>
   <g id="text_12">
    <!-- i -->
    <g style="fill: #808080" transform="translate(120.856492 138.70558) rotate(-49.60116) scale(0.1 -0.1)">
     <defs>
      <path id="URWPalladioL-Roma-69" d="M 1203 2993 
L 1146 3019 
C 819 2884 486 2793 147 2755 
L 147 2576 
L 384 2576 
C 640 2576 666 2531 666 2105 
L 666 651 
C 666 244 646 199 429 199 
L 134 199 
L 134 0 
C 774 0 774 0 934 0 
C 1094 0 1094 0 1734 0 
L 1734 199 
L 1440 199 
C 1222 199 1203 244 1203 651 
L 1203 2993 
z
M 909 4416 
C 717 4416 550 4249 550 4056 
C 550 3870 717 3704 902 3704 
C 1088 3704 1261 3870 1261 4056 
C 1261 4236 1088 4416 909 4416 
z
" transform="scale(0.015625)"/>
     </defs>
     <use xlink:href="#URWPalladioL-Roma-69" transform="scale(0.996264)"/>
    </g>
   </g>
   <g id="text_13">
    <!-- s -->
    <g style="fill: #808080" transform="translate(122.711522 136.52518) rotate(-50.341979) scale(0.1 -0.1)">
     <defs>
      <path id="URWPalladioL-Roma-73" d="M 262 917 
C 262 475 243 282 192 26 
C 525 -83 774 -128 1069 -128 
C 1907 -128 2502 321 2502 949 
C 2502 1148 2445 1295 2323 1424 
C 2157 1584 1946 1661 1382 1770 
C 858 1873 685 2001 685 2296 
C 685 2616 909 2796 1299 2796 
C 1728 2796 2054 2572 2054 2270 
L 2054 2123 
L 2234 2123 
C 2240 2495 2246 2648 2266 2847 
C 1926 2963 1696 3008 1434 3008 
C 691 3008 237 2655 237 2078 
C 237 1770 378 1552 672 1417 
C 845 1340 1184 1238 1619 1141 
C 1907 1077 2029 943 2029 699 
C 2029 353 1709 109 1254 109 
C 787 109 454 333 454 654 
L 454 917 
L 262 917 
z
" transform="scale(0.015625)"/>
     </defs>
     <use xlink:href="#URWPalladioL-Roma-73" transform="scale(0.996264)"/>
    </g>
   </g>
   <g id="text_14">
    <!-- h -->
    <g style="fill: #808080" transform="translate(125.375575 133.32778) rotate(-51.620718) scale(0.1 -0.1)">
     <defs>
      <path id="URWPalladioL-Roma-68" d="M 45 4248 
L 403 4248 
C 518 4248 563 4177 563 3984 
L 563 643 
C 563 237 544 192 326 192 
L 38 192 
L 38 -7 
C 474 -7 646 -7 832 -7 
C 1018 -7 1190 -7 1626 -7 
L 1626 192 
L 1338 192 
C 1120 192 1101 237 1101 643 
L 1101 2011 
C 1101 2300 1523 2616 1914 2616 
C 2342 2616 2624 2297 2624 1806 
L 2624 -7 
C 3014 -7 3021 -7 3130 -7 
C 3219 -7 3219 -7 3661 -7 
L 3661 179 
L 3398 205 
C 3181 205 3162 244 3162 654 
L 3162 1892 
C 3162 2642 2810 3008 2093 3008 
C 1856 3008 1722 2963 1587 2847 
L 1101 2424 
L 1101 4613 
L 1043 4665 
C 762 4556 550 4504 45 4427 
L 45 4248 
z
" transform="scale(0.015625)"/>
     </defs>
     <use xlink:href="#URWPalladioL-Roma-68" transform="scale(0.996264)"/>
    </g>
   </g>
   <g id="text_15">
    <!-- i -->
    <g style="fill: #808080" transform="translate(128.945199 128.808057) rotate(-52.413149) scale(0.1 -0.1)">
     <use xlink:href="#URWPalladioL-Roma-69" transform="scale(0.996264)"/>
    </g>
   </g>
   <g id="text_16">
    <!-- m -->
    <g style="fill: #808080" transform="translate(130.700986 126.584437) rotate(-53.773227) scale(0.1 -0.1)">
     <defs>
      <path id="URWPalladioL-Roma-6d" d="M 115 2565 
L 352 2565 
C 608 2565 634 2520 634 2094 
L 634 643 
C 634 237 614 192 397 192 
L 102 192 
L 102 -7 
C 717 -7 736 -7 915 -7 
C 1094 -7 1261 -7 1677 -7 
L 1677 179 
L 1408 205 
C 1190 205 1171 250 1171 654 
L 1171 2014 
C 1171 2302 1594 2616 1978 2616 
C 2323 2616 2560 2287 2560 1798 
L 2560 643 
C 2560 237 2541 192 2323 192 
L 2029 192 
L 2029 -7 
C 2669 -7 2669 -7 2829 -7 
C 2989 -7 2989 -7 3629 -7 
L 3629 192 
L 3334 192 
C 3117 192 3098 237 3098 643 
L 3098 2011 
C 3098 2300 3520 2616 3904 2616 
C 4250 2616 4486 2291 4486 1806 
L 4486 -7 
C 4877 -7 4883 -7 4992 -7 
C 5075 -7 5075 -7 5562 -7 
L 5562 192 
L 5261 192 
C 5043 192 5024 237 5024 643 
L 5024 1970 
C 5024 2608 4653 3008 4064 3008 
C 3840 3008 3654 2950 3539 2847 
L 3053 2412 
C 2848 2834 2586 3008 2144 3008 
C 1907 3008 1728 2950 1613 2847 
L 1171 2437 
L 1171 2982 
L 1114 3008 
C 787 2873 454 2783 115 2745 
L 115 2565 
z
" transform="scale(0.015625)"/>
     </defs>
     <use xlink:href="#URWPalladioL-Roma-6d" transform="scale(0.996264)"/>
    </g>
   </g>
   <g id="text_17">
    <!-- o -->
    <g style="fill: #808080" transform="translate(135.839225 119.529094) rotate(-55.178938) scale(0.1 -0.1)">
     <defs>
      <path id="URWPalladioL-Roma-6f" d="M 1786 3008 
C 851 3008 205 2347 205 1392 
C 205 487 774 -128 1600 -128 
C 2586 -128 3290 558 3290 1520 
C 3290 2386 2662 3008 1786 3008 
z
M 1670 2796 
C 2259 2796 2694 2155 2694 1283 
C 2694 545 2368 83 1850 83 
C 1222 83 800 699 800 1610 
C 800 2379 1107 2796 1670 2796 
z
" transform="scale(0.015625)"/>
     </defs>
     <use xlink:href="#URWPalladioL-Roma-6f" transform="scale(0.996264)"/>
    </g>
   </g>
   <g id="text_18">
    <!-- r -->
    <g style="fill: #808080" transform="translate(138.903289 115.103235) rotate(-56.333358) scale(0.1 -0.1)">
     <defs>
      <path id="URWPalladioL-Roma-72" d="M 147 2565 
L 384 2565 
C 640 2565 666 2520 666 2094 
L 666 643 
C 666 237 646 192 429 192 
L 134 192 
L 134 -7 
C 595 -7 762 -7 922 -7 
C 1050 -7 1050 -7 1837 -7 
L 1837 192 
L 1504 192 
C 1216 192 1203 211 1203 638 
L 1203 1751 
C 1203 2139 1459 2463 1773 2463 
C 1965 2463 2099 2373 2202 2169 
L 2336 2169 
L 2394 2937 
C 2323 2982 2208 3008 2093 3008 
C 1901 3008 1696 2905 1562 2745 
L 1203 2322 
L 1203 2982 
L 1146 3008 
C 819 2873 486 2783 147 2745 
L 147 2565 
z
" transform="scale(0.015625)"/>
     </defs>
     <use xlink:href="#URWPalladioL-Roma-72" transform="scale(0.996264)"/>
    </g>
   </g>
   <g id="text_19">
    <!-- i -->
    <g style="fill: #808080" transform="translate(141.064395 111.849043) rotate(-56.919671) scale(0.1 -0.1)">
     <use xlink:href="#URWPalladioL-Roma-69" transform="scale(0.996264)"/>
    </g>
   </g>
   <g id="text_20">
    <!-- a -->
    <g style="opacity: 0" transform="translate(142.623156 109.456567) rotate(-57.809596) scale(0.1 -0.1)">
     <defs>
      <path id="URWPalladioL-Roma-61" d="M 2074 538 
L 2042 -1 
C 2458 -1 2458 -1 2541 -1 
C 2573 -1 2733 -1 3014 -1 
L 3014 192 
L 2765 192 
C 2611 192 2586 244 2586 558 
L 2586 1731 
C 2586 2668 2317 3008 1574 3008 
C 1299 3008 1043 2937 800 2791 
L 461 2585 
L 461 2171 
L 627 2126 
L 710 2323 
C 845 2623 909 2668 1203 2668 
C 1805 2668 2054 2431 2074 1852 
L 1440 1736 
C 570 1577 205 1277 205 722 
C 205 224 506 -64 1011 -64 
C 1126 -64 1235 -45 1280 -13 
L 2074 538 
z
M 2074 806 
C 1888 544 1485 302 1235 302 
C 979 302 755 538 755 812 
C 755 1048 883 1271 1075 1392 
C 1235 1488 1587 1577 2074 1648 
L 2074 806 
z
" transform="scale(0.015625)"/>
     </defs>
     <use xlink:href="#URWPalladioL-Roma-61" transform="scale(0.996264)"/>
    </g>
   </g>
   <g id="text_21">
    <!-- l -->
    <g style="fill: #808080" transform="translate(145.243187 105.272004) rotate(-58.711032) scale(0.1 -0.1)">
     <defs>
      <path id="URWPalladioL-Roma-6c" d="M 147 4256 
L 506 4256 
C 621 4256 666 4185 666 3992 
L 666 651 
C 666 244 646 199 429 199 
L 134 199 
L 134 0 
C 774 0 774 0 934 0 
C 1094 0 1094 0 1734 0 
L 1734 199 
L 1440 199 
C 1222 199 1203 244 1203 650 
L 1203 4621 
L 1146 4673 
C 864 4564 653 4512 147 4435 
L 147 4256 
z
" transform="scale(0.015625)"/>
     </defs>
     <use xlink:href="#URWPalladioL-Roma-6c" transform="scale(0.996264)"/>
    </g>
   </g>
   <g id="text_22">
    <!-- i -->
    <g style="fill: #808080" transform="translate(146.732582 102.819551) rotate(-59.317785) scale(0.1 -0.1)">
     <use xlink:href="#URWPalladioL-Roma-69" transform="scale(0.996264)"/>
    </g>
   </g>
   <g id="text_23">
    <!-- n -->
    <g style="fill: #808080" transform="translate(148.198547 100.370577) rotate(-60.235673) scale(0.1 -0.1)">
     <defs>
      <path id="URWPalladioL-Roma-6e" d="M 2624 -7 
C 3014 -7 3021 -7 3130 -7 
C 3219 -7 3219 -7 3661 -7 
L 3661 179 
L 3398 205 
C 3181 205 3162 244 3162 654 
L 3162 1892 
C 3162 2642 2810 3008 2093 3008 
C 1856 3008 1722 2963 1587 2847 
L 1101 2424 
L 1101 2982 
L 1043 3008 
C 717 2873 384 2783 45 2745 
L 45 2565 
L 282 2565 
C 538 2565 563 2520 563 2094 
L 563 643 
C 563 237 544 192 326 192 
L 38 192 
L 38 -7 
C 474 -7 646 -7 832 -7 
C 1018 -7 1190 -7 1626 -7 
L 1626 192 
L 1338 192 
C 1120 192 1101 237 1101 643 
L 1101 2011 
C 1101 2300 1523 2616 1914 2616 
C 2342 2616 2624 2297 2624 1806 
L 2624 -7 
z
" transform="scale(0.015625)"/>
     </defs>
     <use xlink:href="#URWPalladioL-Roma-6e" transform="scale(0.996264)"/>
    </g>
   </g>
   <g id="text_24">
    <!-- e -->
    <g style="fill: #808080" transform="translate(151.046097 95.371944) rotate(-61.161704) scale(0.1 -0.1)">
     <defs>
      <path id="URWPalladioL-Roma-65" d="M 2797 447 
L 2714 511 
C 2304 269 2157 212 1882 212 
C 1466 212 1120 398 941 711 
C 819 921 774 1101 762 1472 
L 1696 1472 
C 2138 1472 2413 1472 2854 1544 
C 2861 1634 2867 1693 2867 1771 
C 2867 2520 2394 3008 1677 3008 
C 1440 3008 1165 2924 902 2770 
C 378 2469 166 2071 166 1404 
C 166 1000 262 654 435 410 
C 691 71 1120 -128 1600 -128 
C 1837 -128 2074 -77 2336 37 
C 2509 108 2643 191 2669 230 
L 2797 447 
z
M 2298 1690 
C 1965 1690 1811 1690 1581 1690 
C 1286 1690 1120 1690 774 1722 
C 774 2027 800 2169 883 2337 
C 1018 2622 1293 2796 1600 2796 
C 1811 2796 1978 2711 2093 2534 
C 2234 2319 2278 2129 2298 1690 
z
" transform="scale(0.015625)"/>
     </defs>
     <use xlink:href="#URWPalladioL-Roma-65" transform="scale(0.996264)"/>
    </g>
   </g>
  </g>
 </g>
 <defs>
  <clipPath id="p754dc74123">
   <rect x="36" y="34.56" width="223.2" height="221.76"/>
  </clipPath>
 </defs>
</svg>
