<svg xmlns="http://www.w3.org/2000/svg" xmlns:xlink="http://www.w3.org/1999/xlink" xmlns:inkscape="http://www.inkscape.org/namespaces/inkscape" version="1.1" width="834" height="175" viewBox="0 0 834 175">
<defs>
<clipPath id="clip_0">
<path d="M0 0H834V175H0Z"/>
</clipPath>
<clipPath id="clip_1">
<path d="M0 0H834V175H0Z"/>
</clipPath>
<clipPath id="clip_2">
<path d="M0 0H834V175H0Z"/>
</clipPath>
<clipPath id="clip_3">
<path d="M0 0H834V175H0Z"/>
</clipPath>
<clipPath id="clip_4">
<path d="M0 0H834V175H0Z"/>
</clipPath>
<clipPath id="clip_5">
<path d="M0 0H834V175H0Z"/>
</clipPath>
<clipPath id="clip_6">
<path d="M0 0H834V175H0Z"/>
</clipPath>
<clipPath id="clip_7">
<path d="M0 0H834V175H0Z"/>
</clipPath>
<clipPath id="clip_8">
<path d="M0 0H834V175H0Z"/>
</clipPath>
<clipPath id="clip_9">
<path d="M0 0H834V175H0Z"/>
</clipPath>
<clipPath id="clip_10">
<path d="M0 0H834V175H0Z"/>
</clipPath>
<clipPath id="clip_11">
<path d="M0 0H834V175H0Z"/>
</clipPath>
<clipPath id="clip_12">
<path d="M0 0H834V175H0Z"/>
</clipPath>
<clipPath id="clip_13">
<path d="M0 0H834V175H0Z"/>
</clipPath>
<clipPath id="clip_14">
<path d="M0 0H834V175H0Z"/>
</clipPath>
<clipPath id="clip_15">
<path d="M0 0H834V175H0Z"/>
</clipPath>
<clipPath id="clip_16">
<path d="M0 0H834V175H0Z"/>
</clipPath>
<clipPath id="clip_17">
<path d="M0 0H834V175H0Z"/>
</clipPath>
<clipPath id="clip_18">
<path d="M0 0H834V175H0Z"/>
</clipPath>
<clipPath id="clip_19">
<path d="M0 0H834V175H0Z"/>
</clipPath>
<clipPath id="clip_20">
<path d="M0 0H834V175H0Z"/>
</clipPath>
<clipPath id="clip_21">
<path d="M0 0H834V175H0Z"/>
</clipPath>
<clipPath id="clip_22">
<path d="M0 0H834V175H0Z"/>
</clipPath>
<clipPath id="clip_23">
<path d="M0 0H834V175H0Z"/>
</clipPath>
<clipPath id="clip_24">
<path d="M0 0H834V175H0Z"/>
</clipPath>
<clipPath id="clip_25">
<path d="M0 0H834V175H0Z"/>
</clipPath>
<clipPath id="clip_26">
<path d="M0 0H834V175H0Z"/>
</clipPath>
<clipPath id="clip_27">
<path d="M0 0H834V175H0Z"/>
</clipPath>
<clipPath id="clip_28">
<path d="M0 0H834V175H0Z"/>
</clipPath>
<clipPath id="clip_29">
<path d="M0 0H834V175H0Z"/>
</clipPath>
<clipPath id="clip_30">
<path d="M0 0H834V175H0Z"/>
</clipPath>
<clipPath id="clip_31">
<path d="M0 0H834V175H0Z"/>
</clipPath>
<clipPath id="clip_32">
<path d="M0 0H834V175H0Z"/>
</clipPath>
<clipPath id="clip_33">
<path d="M0 0H834V175H0Z"/>
</clipPath>
<clipPath id="clip_34">
<path d="M0 0H834V175H0Z"/>
</clipPath>
<clipPath id="clip_35">
<path d="M0 0H834V175H0Z"/>
</clipPath>
<clipPath id="clip_36">
<path d="M0 0H834V175H0Z"/>
</clipPath>
<clipPath id="clip_37">
<path d="M0 0H834V175H0Z"/>
</clipPath>
</defs>
<g>
<g clip-path="url(#clip_0)">
<path d="M0 0H834V175H0Z" fill="#ffffff"/>
</g>
<g clip-path="url(#clip_1)">
<path d="M27.898 68.703C28.086 68.305 28.086 68.234 28.086 68.047 28.086 67.648 27.758 67.32 27.348 67.32 27.02 67.32 26.77 67.496 26.512 68.152L20.117 84.91C20.047 85.133 19.93 85.355 19.93 85.566 19.93 85.684 19.93 85.754 20.117 86.188L26.512 102.945C26.652 103.344 26.84 103.824 27.348 103.824 27.758 103.824 28.086 103.496 28.086 103.086 28.086 102.98 28.086 102.91 27.898 102.512L21.434 85.566ZM27.898 68.703"/>
</g>
<g clip-path="url(#clip_2)">
<path d="M43.742 80.902C43.086 79.543 42.031 78.559 40.387 78.559 36.117 78.559 31.586 83.926 31.586 89.258 31.586 92.691 33.594 95.094 36.445 95.094 37.172 95.094 38.992 94.953 41.184 92.363 41.477 93.887 42.758 95.094 44.516 95.094 45.785 95.094 46.629 94.262 47.215 93.09 47.836 91.777 48.309 89.551 48.309 89.48 48.309 89.105 47.977 89.105 47.871 89.105 47.508 89.105 47.473 89.258 47.355 89.762 46.734 92.141 46.078 94.297 44.586 94.297 43.602 94.297 43.484 93.348 43.484 92.609 43.484 91.812 43.566 91.52 43.965 89.914 44.363 88.379 44.434 88.016 44.762 86.633L46.078 81.512C46.336 80.492 46.336 80.422 46.336 80.281 46.336 79.66 45.902 79.285 45.281 79.285 44.398 79.285 43.848 80.094 43.742 80.902ZM41.371 90.348C41.184 91.004 41.184 91.086 40.645 91.707 39.039 93.711 37.535 94.297 36.516 94.297 34.684 94.297 34.18 92.281 34.18 90.863 34.18 89.035 35.344 84.547 36.188 82.871 37.312 80.715 38.957 79.367 40.422 79.367 42.793 79.367 43.309 82.355 43.309 82.578 43.309 82.801 43.238 83.012 43.191 83.199ZM41.371 90.348"/>
</g>
<g clip-path="url(#clip_3)">
<path d="M56.844 67.562C57.043 67.129 57.078 66.93 57.078 66.742 57.078 65.957 56.363 65.336 55.562 65.336 54.59 65.336 54.285 66.133 54.156 66.543L50.777 77.605C50.754 77.652 50.66 77.98 50.66 78.016 50.66 78.32 51.445 78.578 51.656 78.578 51.832 78.578 51.855 78.52 52.031 78.145ZM56.844 67.562"/>
</g>
<g clip-path="url(#clip_4)">
<path d="M67.09 94.66C67.09 92.246 66.172 90.828 64.754 90.828 63.547 90.828 62.816 91.742 62.816 92.762 62.816 93.746 63.547 94.695 64.754 94.695 65.188 94.695 65.668 94.555 66.031 94.227 66.137 94.145 66.172 94.109 66.207 94.109 66.242 94.109 66.277 94.145 66.277 94.66 66.277 97.355 65 99.547 63.805 100.754 63.402 101.152 63.402 101.234 63.402 101.34 63.402 101.598 63.582 101.738 63.77 101.738 64.168 101.738 67.09 98.926 67.09 94.66ZM84.648 69.758C84.648 69.723 84.648 69.359 84.18 69.359 83.336 69.359 80.672 69.652 79.723 69.723 79.43 69.758 79.031 69.805 79.031 70.461 79.031 70.895 79.359 70.895 79.898 70.895 81.656 70.895 81.727 71.152 81.727 71.516 81.727 71.773 81.398 73.016 81.211 73.777L78.219 85.684C77.785 87.5 77.633 88.086 77.633 89.363 77.633 92.832 79.57 95.094 82.281 95.094 86.586 95.094 91.078 89.656 91.078 84.406 91.078 81.078 89.145 78.559 86.223 78.559 84.543 78.559 83.043 79.625 81.949 80.75ZM81.211 83.562C81.434 82.754 81.434 82.684 81.762 82.285 83.559 79.906 85.199 79.367 86.152 79.367 87.465 79.367 88.449 80.457 88.449 82.801 88.449 84.945 87.242 89.152 86.586 90.535 85.375 92.984 83.699 94.297 82.281 94.297 81.035 94.297 79.828 93.312 79.828 90.605 79.828 89.914 79.828 89.223 80.414 86.926ZM81.211 83.562"/>
</g>
<g clip-path="url(#clip_5)">
<path d="M99 67.562C99.199 67.129 99.234 66.93 99.234 66.742 99.234 65.957 98.516 65.336 97.719 65.336 96.746 65.336 96.441 66.133 96.312 66.543L92.934 77.605C92.91 77.652 92.816 77.98 92.816 78.016 92.816 78.32 93.602 78.578 93.812 78.578 93.988 78.578 94.012 78.52 94.188 78.145ZM99 67.562"/>
</g>
<g clip-path="url(#clip_6)">
<path d="M107.641 68.633C107.641 67.977 107.641 67.32 106.914 67.32 106.172 67.32 106.172 67.977 106.172 68.633V102.512C106.172 103.168 106.172 103.824 106.914 103.824 107.641 103.824 107.641 103.168 107.641 102.512ZM107.641 68.633"/>
</g>
<g clip-path="url(#clip_7)">
<path d="M133.949 78.488H131.098V89.07C131.098 91.812 129.059 93.09 126.723 93.09 124.129 93.09 123.871 92.141 123.871 90.57V78.488H121.02V90.711C121.02 93.348 121.867 95.094 124.895 95.094 126.828 95.094 129.422 94.508 131.219 92.938V94.695H133.949ZM133.949 78.488"/>
</g>
<g clip-path="url(#clip_8)">
<path d="M148.828 68.633C148.828 67.977 148.828 67.32 148.102 67.32 147.359 67.32 147.359 67.977 147.359 68.633V102.512C147.359 103.168 147.359 103.824 148.102 103.824 148.828 103.824 148.828 103.168 148.828 102.512ZM148.828 68.633"/>
</g>
<g clip-path="url(#clip_9)">
<path d="M166.789 80.902C166.133 79.543 165.078 78.559 163.434 78.559 159.164 78.559 154.637 83.926 154.637 89.258 154.637 92.691 156.641 95.094 159.492 95.094 160.219 95.094 162.039 94.953 164.234 92.363 164.527 93.887 165.805 95.094 167.566 95.094 168.832 95.094 169.676 94.262 170.266 93.09 170.887 91.777 171.355 89.551 171.355 89.48 171.355 89.105 171.027 89.105 170.922 89.105 170.559 89.105 170.523 89.258 170.406 89.762 169.781 92.141 169.125 94.297 167.637 94.297 166.648 94.297 166.531 93.348 166.531 92.609 166.531 91.812 166.613 91.52 167.016 89.914 167.414 88.379 167.484 88.016 167.812 86.633L169.125 81.512C169.383 80.492 169.383 80.422 169.383 80.281 169.383 79.66 168.949 79.285 168.328 79.285 167.449 79.285 166.895 80.094 166.789 80.902ZM164.422 90.348C164.234 91.004 164.234 91.086 163.691 91.707 162.086 93.711 160.586 94.297 159.562 94.297 157.734 94.297 157.23 92.281 157.23 90.863 157.23 89.035 158.391 84.547 159.234 82.871 160.359 80.715 162.004 79.367 163.469 79.367 165.84 79.367 166.355 82.355 166.355 82.578 166.355 82.801 166.285 83.012 166.238 83.199ZM179.891 94.66C179.891 92.246 178.977 90.828 177.555 90.828 176.348 90.828 175.621 91.742 175.621 92.762 175.621 93.746 176.348 94.695 177.555 94.695 177.988 94.695 178.473 94.555 178.836 94.227 178.941 94.145 178.977 94.109 179.012 94.109 179.047 94.109 179.082 94.145 179.082 94.66 179.082 97.355 177.801 99.547 176.605 100.754 176.207 101.152 176.207 101.234 176.207 101.34 176.207 101.598 176.383 101.738 176.57 101.738 176.969 101.738 179.891 98.926 179.891 94.66ZM197.441 69.758C197.441 69.723 197.441 69.359 196.973 69.359 196.129 69.359 193.465 69.652 192.516 69.723 192.223 69.758 191.824 69.805 191.824 70.461 191.824 70.895 192.152 70.895 192.691 70.895 194.449 70.895 194.52 71.152 194.52 71.516 194.52 71.773 194.191 73.016 194.004 73.777L191.012 85.684C190.578 87.5 190.426 88.086 190.426 89.363 190.426 92.832 192.363 95.094 195.074 95.094 199.379 95.094 203.871 89.656 203.871 84.406 203.871 81.078 201.938 78.559 199.016 78.559 197.336 78.559 195.836 79.625 194.746 80.75ZM194.004 83.562C194.227 82.754 194.227 82.684 194.555 82.285 196.352 79.906 197.996 79.367 198.945 79.367 200.258 79.367 201.246 80.457 201.246 82.801 201.246 84.945 200.035 89.152 199.379 90.535 198.172 92.984 196.492 94.297 195.074 94.297 193.828 94.297 192.621 93.312 192.621 90.605 192.621 89.914 192.621 89.223 193.207 86.926ZM194.004 83.562"/>
</g>
<g clip-path="url(#clip_10)">
<path d="M214.352 86.188C214.527 85.754 214.527 85.684 214.527 85.566 214.527 85.461 214.527 85.391 214.352 84.945L207.957 68.152C207.734 67.531 207.523 67.32 207.113 67.32 206.715 67.32 206.387 67.648 206.387 68.047 206.387 68.152 206.387 68.234 206.574 68.633L213.039 85.566 206.574 102.43C206.387 102.84 206.387 102.91 206.387 103.086 206.387 103.496 206.715 103.824 207.113 103.824 207.594 103.824 207.734 103.461 207.887 103.086ZM214.352 86.188"/>
</g>
<g clip-path="url(#clip_11)">
<path d="M263.973 82.754C264.512 82.754 265.203 82.754 265.203 82.027 265.203 81.301 264.512 81.301 264.008 81.301H242.125C241.609 81.301 240.914 81.301 240.914 82.027 240.914 82.754 241.609 82.754 242.16 82.754ZM264.008 89.844C264.512 89.844 265.203 89.844 265.203 89.105 265.203 88.379 264.512 88.379 263.973 88.379H242.16C241.609 88.379 240.914 88.379 240.914 89.105 240.914 89.844 241.609 89.844 242.125 89.844ZM264.008 89.844"/>
</g>
<g clip-path="url(#clip_12)">
<path transform="matrix(1,0,0,-.99934,0,0)" stroke-width="2.921959" stroke-linecap="butt" stroke-dasharray="2.921959,7.304988" stroke-miterlimit="10" stroke-linejoin="miter" fill="none" stroke="#bfbfbf" d="M346.59-125.161H424.531M346.59-47.219H424.531M346.59-125.161V-47.219M424.531-125.161V-47.219"/>
</g>
<g clip-path="url(#clip_13)">
<path transform="matrix(1,0,0,-.99934,0,0)" d="M366.074-105.675 346.59-125.161M405.047-105.675 424.531-125.161M366.074-66.704 346.59-47.219M405.047-66.704 424.531-47.219M366.074-102.024V-70.359C366.074-68.342 367.711-66.704 369.727-66.704H401.395C403.41-66.704 405.047-68.342 405.047-70.359V-102.024C405.047-104.041 403.41-105.675 401.395-105.675H369.727C367.711-105.675 366.074-104.041 366.074-102.024ZM366.074-102.024" fill="#ffffff"/>
<path transform="matrix(1,0,0,-.99934,0,0)" stroke-width="2.921959" stroke-linecap="butt" stroke-miterlimit="10" stroke-linejoin="miter" fill="none" stroke="#000000" d="M366.074-105.675 346.59-125.161M405.047-105.675 424.531-125.161M366.074-66.704 346.59-47.219M405.047-66.704 424.531-47.219M366.074-102.024V-70.359C366.074-68.342 367.711-66.704 369.727-66.704H401.395C403.41-66.704 405.047-68.342 405.047-70.359V-102.024C405.047-104.041 403.41-105.675 401.395-105.675H369.727C367.711-105.675 366.074-104.041 366.074-102.024ZM366.074-102.024"/>
</g>
<g clip-path="url(#clip_14)">
<path transform="matrix(1,0,0,-.99934,0,0)" stroke-width="2.921959" stroke-linecap="butt" stroke-miterlimit="10" stroke-linejoin="miter" fill="none" stroke="#000000" d="M385.562-71.383H396.719C398.734-71.383 400.371-73.017 400.371-75.034V-86.19"/>
</g>
<g clip-path="url(#clip_15)">
<path d="M326.812 143.043C326.191 141.859 325.168 141.004 323.691 141.004 319.879 141.004 315.641 145.539 315.641 150.566 315.641 154.176 317.941 155.887 320.148 155.887 322.281 155.887 324.02 154.105 324.547 153.484 324.91 155.289 326.555 155.887 327.609 155.887 328.559 155.887 329.383 155.453 330.109 154.082 330.695 152.992 331.152 150.953 331.152 150.824 331.152 150.66 331.059 150.438 330.73 150.438 330.332 150.438 330.297 150.602 330.168 151.223 329.453 154.082 328.723 155.066 327.703 155.066 326.883 155.066 326.684 154.27 326.684 153.555 326.684 152.934 326.848 152.277 327.141 151.117L327.961 147.742C328.195 146.922 328.781 144.449 328.922 143.957 329.051 143.5 329.254 142.715 329.254 142.609 329.254 142.094 328.816 141.66 328.23 141.66 327.797 141.66 326.977 141.93 326.812 143.043ZM324.676 151.516C324.512 152.137 324.512 152.172 323.984 152.793 322.812 154.211 321.461 155.066 320.242 155.066 318.633 155.066 318.07 153.391 318.07 151.973 318.07 150.367 319.02 146.594 319.82 145.012 320.863 143.043 322.375 141.824 323.691 141.824 325.898 141.824 326.391 144.449 326.391 144.684 326.391 144.848 326.32 145.047 326.297 145.176ZM324.676 151.516"/>
</g>
<g clip-path="url(#clip_16)">
<path d="M448.539 138.176C448.668 137.719 448.668 137.648 448.668 137.52 448.668 137.227 448.469 137.062 448.176 137.062 447.719 137.062 444.82 137.32 444.164 137.391 443.836 137.426 443.473 137.449 443.473 138.012 443.473 138.434 443.836 138.434 444.363 138.434 445.91 138.434 445.91 138.668 445.91 138.961 445.91 139.16 445.91 139.23 445.676 140.109L443.93 147.047C443.473 148.887 443.047 150.562 442.684 152.098 442.449 152.93 442.227 153.914 442.227 154.957 442.227 157.781 443.801 160.219 446.629 160.219 450.477 160.219 454.688 155.59 454.688 150.656 454.688 147.305 452.609 145.336 450.148 145.336 448.469 145.336 447.027 146.484 446.262 147.211ZM445.805 149.086C446.734 147.762 448.398 146.156 450.078 146.156 451.625 146.156 452.246 147.703 452.246 149.25 452.246 150.727 451.332 154.793 450.312 156.539 449.09 158.637 447.648 159.398 446.629 159.398 444.984 159.398 444.328 157.758 444.328 156.082 444.328 154.934 444.562 154.043 445.312 151.055ZM445.805 149.086"/>
</g>
<g clip-path="url(#clip_17)">
<path d="M321.895 24.406C321.27 23.223 320.25 22.367 318.773 22.367 314.957 22.367 310.723 26.902 310.723 31.93 310.723 35.539 313.023 37.25 315.23 37.25 317.363 37.25 319.102 35.469 319.629 34.848 319.992 36.652 321.633 37.25 322.691 37.25 323.641 37.25 324.461 36.816 325.191 35.445 325.777 34.355 326.234 32.316 326.234 32.188 326.234 32.023 326.141 31.801 325.812 31.801 325.414 31.801 325.379 31.965 325.25 32.586 324.531 35.445 323.805 36.43 322.785 36.43 321.965 36.43 321.766 35.633 321.766 34.918 321.766 34.297 321.93 33.641 322.223 32.48L323.043 29.105C323.277 28.285 323.863 25.812 324.004 25.32 324.133 24.863 324.332 24.078 324.332 23.973 324.332 23.457 323.898 23.023 323.312 23.023 322.879 23.023 322.059 23.293 321.895 24.406ZM319.758 32.879C319.594 33.5 319.594 33.535 319.066 34.156 317.891 35.574 316.543 36.43 315.324 36.43 313.715 36.43 313.152 34.754 313.152 33.336 313.152 31.73 314.102 27.957 314.898 26.375 315.945 24.406 317.457 23.188 318.773 23.188 320.977 23.188 321.469 25.812 321.469 26.047 321.469 26.211 321.398 26.41 321.375 26.539ZM319.758 32.879"/>
</g>
<g clip-path="url(#clip_18)">
<path d="M334.125 12.641C334.277 12.312 334.312 12.066 334.312 11.938 334.312 11.258 333.703 10.684 332.973 10.684 332.105 10.684 331.836 11.457 331.754 11.762L328.68 21.137C328.645 21.266 328.574 21.441 328.574 21.523 328.574 21.898 329.453 22.074 329.477 22.074 329.664 22.074 329.758 21.875 329.84 21.699ZM334.125 12.641"/>
</g>
<g clip-path="url(#clip_19)">
<path d="M443.613 15.207C443.742 14.75 443.742 14.68 443.742 14.551 443.742 14.258 443.543 14.094 443.25 14.094 442.793 14.094 439.895 14.352 439.238 14.422 438.91 14.457 438.547 14.48 438.547 15.043 438.547 15.465 438.91 15.465 439.438 15.465 440.988 15.465 440.988 15.699 440.988 15.992 440.988 16.191 440.988 16.262 440.754 17.141L439.004 24.078C438.547 25.918 438.125 27.594 437.762 29.129 437.527 29.961 437.301 30.945 437.301 31.988 437.301 34.812 438.875 37.25 441.703 37.25 445.551 37.25 449.762 32.621 449.762 27.688 449.762 24.336 447.688 22.367 445.223 22.367 443.543 22.367 442.102 23.516 441.34 24.242ZM440.883 26.117C441.809 24.793 443.473 23.188 445.152 23.188 446.699 23.188 447.324 24.734 447.324 26.281 447.324 27.758 446.406 31.824 445.387 33.57 444.168 35.668 442.723 36.43 441.703 36.43 440.059 36.43 439.402 34.789 439.402 33.113 439.402 31.965 439.637 31.074 440.387 28.086ZM440.883 26.117"/>
</g>
<g clip-path="url(#clip_20)">
<path d="M457.121 12.641C457.273 12.312 457.309 12.066 457.309 11.938 457.309 11.258 456.695 10.684 455.969 10.684 455.102 10.684 454.832 11.457 454.75 11.762L451.676 21.137C451.641 21.266 451.57 21.441 451.57 21.523 451.57 21.898 452.449 22.074 452.473 22.074 452.66 22.074 452.754 21.875 452.836 21.699ZM457.121 12.641"/>
</g>
<g clip-path="url(#clip_21)">
<path d="M528.938 82.754C529.477 82.754 530.168 82.754 530.168 82.027 530.168 81.301 529.477 81.301 528.973 81.301H507.09C506.574 81.301 505.883 81.301 505.883 82.027 505.883 82.754 506.574 82.754 507.125 82.754ZM528.973 89.844C529.477 89.844 530.168 89.844 530.168 89.105 530.168 88.379 529.477 88.379 528.938 88.379H507.125C506.574 88.379 505.883 88.379 505.883 89.105 505.883 89.844 506.574 89.844 507.09 89.844ZM528.973 89.844"/>
</g>
<g clip-path="url(#clip_22)">
<path d="M562.184 78.746C557.621 79.836 554.078 84.582 554.078 89 554.078 92.504 556.41 95.129 559.848 95.129 564.121 95.129 567.148 89.398 567.148 84.359 567.148 81.043 565.691 79.215 564.449 77.574 563.133 75.934 560.977 73.191 560.977 71.586 560.977 70.789 561.703 69.91 562.98 69.91 564.086 69.91 564.812 70.379 565.574 70.895 566.312 71.328 567.043 71.809 567.594 71.809 568.496 71.809 569.047 70.93 569.047 70.344 569.047 69.547 568.461 69.43 567.148 69.137 565.246 68.738 564.742 68.738 564.156 68.738 561.305 68.738 559.988 70.309 559.988 72.5 559.988 74.469 561.047 76.52 562.184 78.746ZM562.617 79.543C563.531 81.23 564.625 83.199 564.625 85.824 564.625 88.238 563.238 94.332 559.848 94.332 557.832 94.332 556.34 92.797 556.34 90.02 556.34 87.723 557.691 80.855 562.617 79.543ZM562.617 79.543"/>
</g>
<g clip-path="url(#clip_23)">
<path d="M579.57 91.527C579.027 90.684 578.16 90.027 576.93 90.027 573.656 90.027 570.336 93.625 570.336 97.305 570.336 99.777 572 101.547 574.195 101.547 575.578 101.547 576.801 100.75 577.82 99.754 578.312 101.289 579.793 101.547 580.461 101.547 581.375 101.547 582.02 100.984 582.48 100.188 583.043 99.191 583.371 97.738 583.371 97.633 583.371 97.305 583.043 97.305 582.961 97.305 582.609 97.305 582.586 97.41 582.398 98.102 582.09 99.32 581.609 100.832 580.531 100.832 579.875 100.832 579.688 100.27 579.688 99.578 579.688 99.145 579.898 98.219 580.074 97.562 580.25 96.871 580.508 95.816 580.637 95.266L581.152 93.32C581.305 92.652 581.609 91.457 581.609 91.328 581.609 90.766 581.152 90.508 580.742 90.508 580.309 90.508 579.723 90.812 579.57 91.527ZM577.926 98.102C577.75 98.816 577.188 99.32 576.625 99.812 576.391 100.012 575.367 100.832 574.266 100.832 573.328 100.832 572.398 100.164 572.398 98.348 572.398 97 573.152 94.188 573.738 93.168 574.91 91.117 576.215 90.742 576.93 90.742 578.723 90.742 579.207 92.676 579.207 92.957 579.207 93.062 579.16 93.238 579.125 93.32ZM577.926 98.102"/>
</g>
<g clip-path="url(#clip_24)">
<path d="M591.195 85.5C591.207 85.477 591.371 85.137 591.371 84.855 591.371 84.199 590.785 83.789 590.246 83.789 589.496 83.789 589.297 84.352 589.203 84.621L586.387 92.52C586.316 92.742 586.316 92.801 586.316 92.812 586.316 93.105 587.078 93.293 587.102 93.293 587.266 93.293 587.301 93.199 587.406 92.977ZM591.195 85.5"/>
</g>
<g clip-path="url(#clip_25)">
<path d="M599.895 100.879C599.895 102.285 599.637 103.926 597.898 105.555 597.793 105.66 597.723 105.73 597.723 105.859 597.723 106.035 597.922 106.223 598.074 106.223 598.438 106.223 600.609 104.172 600.609 101.137 600.609 99.555 599.988 98.348 598.812 98.348 597.969 98.348 597.359 99.016 597.359 99.812 597.359 100.621 597.945 101.289 598.836 101.289 599.457 101.289 599.871 100.879 599.895 100.879ZM599.895 100.879"/>
<path d="M618.129 92.02C618.562 92.02 618.785 92.02 619.066 91.809 619.406 91.527 619.477 91.176 619.477 90.988 619.477 90.273 618.82 90.273 618.387 90.273H611.84C607.746 90.273 604.684 94.316 604.684 97.375 604.684 99.754 606.441 101.547 609.047 101.547 612.273 101.547 615.957 98.629 615.957 94.727 615.957 94.316 615.957 93.168 615.184 92.02ZM609.07 100.832C607.699 100.832 606.547 99.906 606.547 98.102 606.547 97.328 607.008 92.02 611.406 92.02 612.707 92.02 614.035 92.5 614.035 94.445 614.035 94.902 613.801 97.199 612.555 98.91 611.477 100.316 610.043 100.832 609.07 100.832ZM609.07 100.832"/>
</g>
<g clip-path="url(#clip_26)">
<path d="M627.371 93.332C627.371 92.781 627.312 92.781 626.715 92.781 625.41 93.953 623.383 93.953 623.02 93.953H622.715V94.75H623.02C623.441 94.75 624.625 94.707 625.684 94.246V103.363C625.684 103.926 625.684 104.125 623.746 104.125H622.844V104.934C623.84 104.863 625.469 104.863 626.527 104.863 627.582 104.863 629.215 104.863 630.223 104.934V104.125H629.309C627.371 104.125 627.371 103.926 627.371 103.363ZM627.371 93.332"/>
</g>
<g clip-path="url(#clip_27)">
<path d="M643.43 82.129C638.574 85.551 637.293 90.965 637.293 94.879 637.293 98.477 638.363 104.078 643.43 107.652 643.629 107.652 643.934 107.652 643.934 107.348 643.934 107.195 643.863 107.137 643.676 106.961 640.285 103.891 639.031 99.555 639.031 94.902 639.031 88 641.66 84.637 643.758 82.738 643.863 82.645 643.934 82.562 643.934 82.434 643.934 82.129 643.629 82.129 643.43 82.129ZM643.43 82.129"/>
</g>
<g clip-path="url(#clip_28)">
<path d="M656.559 91.527C656.016 90.684 655.148 90.027 653.918 90.027 650.645 90.027 647.324 93.625 647.324 97.305 647.324 99.777 648.988 101.547 651.184 101.547 652.566 101.547 653.789 100.75 654.809 99.754 655.301 101.289 656.781 101.547 657.449 101.547 658.363 101.547 659.008 100.984 659.465 100.188 660.031 99.191 660.359 97.738 660.359 97.633 660.359 97.305 660.031 97.305 659.949 97.305 659.594 97.305 659.57 97.41 659.383 98.102 659.078 99.32 658.598 100.832 657.52 100.832 656.863 100.832 656.676 100.27 656.676 99.578 656.676 99.145 656.887 98.219 657.062 97.562 657.238 96.871 657.496 95.816 657.625 95.266L658.141 93.32C658.293 92.652 658.598 91.457 658.598 91.328 658.598 90.766 658.141 90.508 657.73 90.508 657.297 90.508 656.711 90.812 656.559 91.527ZM654.914 98.102C654.738 98.816 654.176 99.32 653.613 99.812 653.379 100.012 652.355 100.832 651.254 100.832 650.316 100.832 649.387 100.164 649.387 98.348 649.387 97 650.141 94.188 650.727 93.168 651.898 91.117 653.199 90.742 653.918 90.742 655.711 90.742 656.191 92.676 656.191 92.957 656.191 93.062 656.145 93.238 656.109 93.32ZM667.004 100.879C667.004 102.285 666.746 103.926 665.012 105.555 664.906 105.66 664.836 105.73 664.836 105.859 664.836 106.035 665.035 106.223 665.188 106.223 665.551 106.223 667.719 104.172 667.719 101.137 667.719 99.555 667.098 98.348 665.926 98.348 665.082 98.348 664.469 99.016 664.469 99.812 664.469 100.621 665.059 101.289 665.949 101.289 666.57 101.289 666.98 100.879 667.004 100.879ZM677.039 84.32C677.062 84.273 677.145 83.945 677.145 83.922 677.145 83.793 677.039 83.559 676.734 83.559 676.23 83.559 674.105 83.77 673.461 83.816 673.262 83.84 672.898 83.863 672.898 84.402 672.898 84.766 673.262 84.766 673.566 84.766 674.797 84.766 674.797 84.941 674.797 85.141 674.797 85.328 674.539 86.348 674.387 86.934L673.801 89.277C673.566 90.156 672.16 95.746 672.113 96.074 671.984 96.695 671.984 97.023 671.984 97.328 671.984 99.906 673.613 101.547 675.738 101.547 678.941 101.547 682.332 98.066 682.332 94.293 682.332 91.305 680.266 90.027 678.496 90.027 677.168 90.027 676.043 90.766 675.281 91.434ZM675.762 100.832C674.516 100.832 673.801 99.73 673.801 98.219 673.801 97.281 674.023 96.414 674.738 93.52 674.891 93.039 674.891 92.992 675.387 92.43 676.348 91.305 677.496 90.742 678.422 90.742 679.422 90.742 680.289 91.48 680.289 93.215 680.289 94.27 679.727 96.871 678.965 98.348 678.34 99.602 677.062 100.832 675.762 100.832ZM675.762 100.832"/>
</g>
<g clip-path="url(#clip_29)">
<path d="M685.426 82.129C685.25 82.129 684.945 82.129 684.945 82.434 684.945 82.562 685.016 82.645 685.168 82.82 687.371 84.836 689.824 88.281 689.824 94.879 689.824 100.211 688.16 104.254 685.402 106.762 684.969 107.195 684.945 107.219 684.945 107.348 684.945 107.477 685.016 107.652 685.273 107.652 685.578 107.652 688.008 105.965 689.695 102.766 690.824 100.656 691.562 97.891 691.562 94.902 691.562 91.305 690.492 85.703 685.426 82.129ZM685.426 82.129"/>
</g>
<g clip-path="url(#clip_30)">
<path d="M706.012 78.746C701.445 79.836 697.902 84.582 697.902 89 697.902 92.504 700.238 95.129 703.676 95.129 707.945 95.129 710.973 89.398 710.973 84.359 710.973 81.043 709.52 79.215 708.273 77.574 706.961 75.934 704.801 73.191 704.801 71.586 704.801 70.789 705.531 69.91 706.809 69.91 707.91 69.91 708.641 70.379 709.402 70.895 710.141 71.328 710.867 71.809 711.418 71.809 712.324 71.809 712.875 70.93 712.875 70.344 712.875 69.547 712.289 69.43 710.973 69.137 709.074 68.738 708.566 68.738 707.98 68.738 705.129 68.738 703.816 70.309 703.816 72.5 703.816 74.469 704.871 76.52 706.012 78.746ZM706.445 79.543C707.359 81.23 708.449 83.199 708.449 85.824 708.449 88.238 707.066 94.332 703.676 94.332 701.656 94.332 700.168 92.797 700.168 90.02 700.168 87.723 701.516 80.855 706.445 79.543ZM706.445 79.543"/>
</g>
<g clip-path="url(#clip_31)">
<path d="M719.348 84.32C719.371 84.273 719.453 83.945 719.453 83.922 719.453 83.793 719.348 83.559 719.043 83.559 718.539 83.559 716.414 83.77 715.77 83.816 715.57 83.84 715.207 83.863 715.207 84.402 715.207 84.766 715.57 84.766 715.875 84.766 717.105 84.766 717.105 84.941 717.105 85.141 717.105 85.328 716.848 86.348 716.695 86.934L716.109 89.277C715.875 90.156 714.469 95.746 714.422 96.074 714.289 96.695 714.289 97.023 714.289 97.328 714.289 99.906 715.922 101.547 718.047 101.547 721.25 101.547 724.641 98.066 724.641 94.293 724.641 91.305 722.574 90.027 720.801 90.027 719.477 90.027 718.352 90.766 717.59 91.434ZM718.07 100.832C716.824 100.832 716.109 99.73 716.109 98.219 716.109 97.281 716.332 96.414 717.047 93.52 717.199 93.039 717.199 92.992 717.695 92.43 718.656 91.305 719.805 90.742 720.73 90.742 721.73 90.742 722.598 91.48 722.598 93.215 722.598 94.27 722.035 96.871 721.273 98.348 720.648 99.602 719.371 100.832 718.07 100.832ZM718.07 100.832"/>
</g>
<g clip-path="url(#clip_32)">
<path d="M732.023 85.5C732.035 85.477 732.199 85.137 732.199 84.855 732.199 84.199 731.613 83.789 731.074 83.789 730.324 83.789 730.125 84.352 730.031 84.621L727.215 92.52C727.145 92.742 727.145 92.801 727.145 92.812 727.145 93.105 727.906 93.293 727.93 93.293 728.094 93.293 728.129 93.199 728.234 92.977ZM732.023 85.5"/>
</g>
<g clip-path="url(#clip_33)">
<path d="M740.719 100.879C740.719 102.285 740.461 103.926 738.723 105.555 738.617 105.66 738.547 105.73 738.547 105.859 738.547 106.035 738.746 106.223 738.902 106.223 739.266 106.223 741.434 104.172 741.434 101.137 741.434 99.555 740.812 98.348 739.641 98.348 738.797 98.348 738.184 99.016 738.184 99.812 738.184 100.621 738.773 101.289 739.664 101.289 740.285 101.289 740.695 100.879 740.719 100.879ZM740.719 100.879"/>
<path d="M758.957 92.02C759.391 92.02 759.613 92.02 759.895 91.809 760.238 91.527 760.309 91.176 760.309 90.988 760.309 90.273 759.648 90.273 759.215 90.273H752.668C748.574 90.273 745.512 94.316 745.512 97.375 745.512 99.754 747.273 101.547 749.875 101.547 753.102 101.547 756.789 98.629 756.789 94.727 756.789 94.316 756.789 93.168 756.012 92.02ZM749.898 100.832C748.527 100.832 747.379 99.906 747.379 98.102 747.379 97.328 747.836 92.02 752.234 92.02 753.539 92.02 754.863 92.5 754.863 94.445 754.863 94.902 754.629 97.199 753.383 98.91 752.305 100.316 750.875 100.832 749.898 100.832ZM749.898 100.832"/>
</g>
<g clip-path="url(#clip_34)">
<path d="M771.684 101.406H770.918C770.859 101.758 770.672 102.895 770.391 103.07 770.238 103.188 768.703 103.188 768.434 103.188H764.855C766.062 102.285 767.41 101.266 768.504 100.539 770.145 99.402 771.684 98.348 771.684 96.414 771.684 94.082 769.477 92.781 766.859 92.781 764.395 92.781 762.59 94.199 762.59 95.992 762.59 96.941 763.387 97.105 763.645 97.105 764.137 97.105 764.723 96.781 764.723 96.027 764.723 95.371 764.242 95.008 763.68 94.949 764.195 94.129 765.254 93.59 766.473 93.59 768.246 93.59 769.723 94.645 769.723 96.426 769.723 97.961 768.668 99.133 767.258 100.316L762.801 104.09C762.625 104.254 762.602 104.254 762.59 104.383V104.934H771.082ZM771.684 101.406"/>
</g>
<g clip-path="url(#clip_35)">
<path d="M784.258 82.129C779.402 85.551 778.125 90.965 778.125 94.879 778.125 98.477 779.191 104.078 784.258 107.652 784.461 107.652 784.766 107.652 784.766 107.348 784.766 107.195 784.695 107.137 784.508 106.961 781.117 103.891 779.859 99.555 779.859 94.902 779.859 88 782.488 84.637 784.59 82.738 784.695 82.645 784.766 82.562 784.766 82.434 784.766 82.129 784.461 82.129 784.258 82.129ZM784.258 82.129"/>
</g>
<g clip-path="url(#clip_36)">
<path d="M797.387 91.527C796.848 90.684 795.977 90.027 794.746 90.027 791.473 90.027 788.152 93.625 788.152 97.305 788.152 99.777 789.816 101.547 792.012 101.547 793.398 101.547 794.617 100.75 795.637 99.754 796.129 101.289 797.609 101.547 798.277 101.547 799.191 101.547 799.84 100.984 800.297 100.188 800.859 99.191 801.188 97.738 801.188 97.633 801.188 97.305 800.859 97.305 800.777 97.305 800.426 97.305 800.402 97.41 800.215 98.102 799.91 99.32 799.426 100.832 798.348 100.832 797.691 100.832 797.504 100.27 797.504 99.578 797.504 99.145 797.715 98.219 797.891 97.562 798.066 96.871 798.324 95.816 798.453 95.266L798.969 93.32C799.121 92.652 799.426 91.457 799.426 91.328 799.426 90.766 798.969 90.508 798.559 90.508 798.125 90.508 797.539 90.812 797.387 91.527ZM795.742 98.102C795.566 98.816 795.004 99.32 794.441 99.812 794.207 100.012 793.184 100.832 792.082 100.832 791.145 100.832 790.219 100.164 790.219 98.348 790.219 97 790.969 94.188 791.555 93.168 792.727 91.117 794.031 90.742 794.746 90.742 796.539 90.742 797.023 92.676 797.023 92.957 797.023 93.062 796.977 93.238 796.941 93.32ZM807.832 100.879C807.832 102.285 807.574 103.926 805.836 105.555 805.73 105.66 805.66 105.73 805.66 105.859 805.66 106.035 805.859 106.223 806.012 106.223 806.375 106.223 808.547 104.172 808.547 101.137 808.547 99.555 807.926 98.348 806.75 98.348 805.906 98.348 805.297 99.016 805.297 99.812 805.297 100.621 805.883 101.289 806.773 101.289 807.398 101.289 807.809 100.879 807.832 100.879ZM817.867 84.32C817.891 84.273 817.973 83.945 817.973 83.922 817.973 83.793 817.867 83.559 817.559 83.559 817.055 83.559 814.934 83.77 814.285 83.816 814.086 83.84 813.723 83.863 813.723 84.402 813.723 84.766 814.086 84.766 814.391 84.766 815.625 84.766 815.625 84.941 815.625 85.141 815.625 85.328 815.367 86.348 815.215 86.934L814.629 89.277C814.391 90.156 812.984 95.746 812.938 96.074 812.809 96.695 812.809 97.023 812.809 97.328 812.809 99.906 814.438 101.547 816.562 101.547 819.766 101.547 823.156 98.066 823.156 94.293 823.156 91.305 821.094 90.027 819.32 90.027 817.996 90.027 816.867 90.766 816.105 91.434ZM816.586 100.832C815.344 100.832 814.629 99.73 814.629 98.219 814.629 97.281 814.852 96.414 815.566 93.52 815.719 93.039 815.719 92.992 816.211 92.43 817.172 91.305 818.324 90.742 819.25 90.742 820.246 90.742 821.117 91.48 821.117 93.215 821.117 94.27 820.551 96.871 819.789 98.348 819.168 99.602 817.891 100.832 816.586 100.832ZM816.586 100.832"/>
</g>
<g clip-path="url(#clip_37)">
<path d="M826.25 82.129C826.074 82.129 825.77 82.129 825.77 82.434 825.77 82.562 825.84 82.645 825.992 82.82 828.199 84.836 830.652 88.281 830.652 94.879 830.652 100.211 828.984 104.254 826.227 106.762 825.793 107.195 825.77 107.219 825.77 107.348 825.77 107.477 825.84 107.652 826.098 107.652 826.402 107.652 828.832 105.965 830.523 102.766 831.648 100.656 832.387 97.891 832.387 94.902 832.387 91.305 831.32 85.703 826.25 82.129ZM826.25 82.129"/>
</g>
</g>
</svg>
