<svg width="715" height="990" xmlns="http://www.w3.org/2000/svg" xmlns:xlink="http://www.w3.org/1999/xlink" xml:space="preserve" overflow="hidden"><g transform="translate(-3322 -655)"><g><rect x="3324" y="656" width="712" height="988" fill="#DCEAF7" fill-opacity="1"/><path d="M3349.5 879.5C3349.5 871.768 3355.77 865.5 3363.5 865.5L3519.5 865.5C3527.23 865.5 3533.5 871.768 3533.5 879.5L3533.5 935.5C3533.5 943.232 3527.23 949.5 3519.5 949.5L3363.5 949.5C3355.77 949.5 3349.5 943.232 3349.5 935.5Z" stroke="#042433" stroke-width="6.875" stroke-linecap="butt" stroke-linejoin="miter" stroke-miterlimit="8" stroke-opacity="1" fill="#FFFFFF" fill-rule="evenodd" fill-opacity="1"/><rect x="3365.5" y="881.5" width="50.9998" height="51.0002" stroke="#000000" stroke-width="6.875" stroke-linecap="butt" stroke-linejoin="miter" stroke-miterlimit="8" stroke-opacity="1" fill="#460157" fill-opacity="1"/><rect x="3461.5" y="881.5" width="50.9998" height="51.0002" stroke="#000000" stroke-width="6.875" stroke-linecap="butt" stroke-linejoin="miter" stroke-miterlimit="8" stroke-opacity="1" fill="#460157" fill-opacity="1"/><path d="M0 18.4133 12.2501 18.4133 12.2501 0 36.7501 0 36.7501 18.4133 49.0002 18.4133 24.5001 71.9998Z" stroke="#000000" stroke-width="6.875" stroke-linecap="butt" stroke-linejoin="miter" stroke-miterlimit="8" stroke-opacity="1" fill="#FFFFFF" fill-rule="evenodd" fill-opacity="1" transform="matrix(1 0 0 -1 3413.5 848.5)"/><path d="M3349.5 688.5C3349.5 680.768 3355.77 674.5 3363.5 674.5L3519.5 674.5C3527.23 674.5 3533.5 680.768 3533.5 688.5L3533.5 744.5C3533.5 752.232 3527.23 758.5 3519.5 758.5L3363.5 758.5C3355.77 758.5 3349.5 752.232 3349.5 744.5Z" stroke="#042433" stroke-width="6.875" stroke-linecap="butt" stroke-linejoin="miter" stroke-miterlimit="8" stroke-opacity="1" fill="#FFFFFF" fill-rule="evenodd" fill-opacity="1"/><rect x="3365.5" y="690.5" width="50.9998" height="50.9999" stroke="#000000" stroke-width="6.875" stroke-linecap="butt" stroke-linejoin="miter" stroke-miterlimit="8" stroke-opacity="1" fill="#460157" fill-opacity="1"/><rect x="3461.5" y="690.5" width="50.9998" height="50.9999" stroke="#000000" stroke-width="6.875" stroke-linecap="butt" stroke-linejoin="miter" stroke-miterlimit="8" stroke-opacity="1" fill="#460157" fill-opacity="1"/><path d="M3591.5 879.5C3591.5 871.768 3597.77 865.5 3605.5 865.5L3761.5 865.5C3769.23 865.5 3775.5 871.768 3775.5 879.5L3775.5 935.5C3775.5 943.232 3769.23 949.5 3761.5 949.5L3605.5 949.5C3597.77 949.5 3591.5 943.232 3591.5 935.5Z" stroke="#042433" stroke-width="6.875" stroke-linecap="butt" stroke-linejoin="miter" stroke-miterlimit="8" stroke-opacity="1" fill="#FFFFFF" fill-rule="evenodd" fill-opacity="1"/><rect x="3607.5" y="881.5" width="50.9998" height="51.0002" stroke="#000000" stroke-width="6.875" stroke-linecap="butt" stroke-linejoin="miter" stroke-miterlimit="8" stroke-opacity="1" fill="#460157" fill-opacity="1"/><rect x="3703.5" y="881.5" width="50.9998" height="51.0002" stroke="#000000" stroke-width="6.875" stroke-linecap="butt" stroke-linejoin="miter" stroke-miterlimit="8" stroke-opacity="1" fill="#209691" fill-opacity="1"/><path d="M0 17.3197 12.5001 17.3197 12.5001 0 37.5001 0 37.5001 17.3197 50.0002 17.3197 25.0001 71.9998Z" stroke="#000000" stroke-width="6.875" stroke-linecap="butt" stroke-linejoin="miter" stroke-miterlimit="8" stroke-opacity="1" fill="#FFFFFF" fill-rule="evenodd" fill-opacity="1" transform="matrix(1 0 0 -1 3655.5 848.5)"/><path d="M3591.5 688.5C3591.5 680.768 3597.77 674.5 3605.5 674.5L3761.5 674.5C3769.23 674.5 3775.5 680.768 3775.5 688.5L3775.5 744.5C3775.5 752.232 3769.23 758.5 3761.5 758.5L3605.5 758.5C3597.77 758.5 3591.5 752.232 3591.5 744.5Z" stroke="#042433" stroke-width="6.875" stroke-linecap="butt" stroke-linejoin="miter" stroke-miterlimit="8" stroke-opacity="1" fill="#FFFFFF" fill-rule="evenodd" fill-opacity="1"/><rect x="3607.5" y="690.5" width="50.9998" height="50.9999" stroke="#000000" stroke-width="6.875" stroke-linecap="butt" stroke-linejoin="miter" stroke-miterlimit="8" stroke-opacity="1" fill="#460157" fill-opacity="1"/><rect x="3703.5" y="690.5" width="50.9998" height="50.9999" stroke="#000000" stroke-width="6.875" stroke-linecap="butt" stroke-linejoin="miter" stroke-miterlimit="8" stroke-opacity="1" fill="#209691" fill-opacity="1"/><path d="M3831.5 879.5C3831.5 871.768 3837.77 865.5 3845.5 865.5L4002.5 865.5C4010.23 865.5 4016.5 871.768 4016.5 879.5L4016.5 935.5C4016.5 943.232 4010.23 949.5 4002.5 949.5L3845.5 949.5C3837.77 949.5 3831.5 943.232 3831.5 935.5Z" stroke="#042433" stroke-width="6.875" stroke-linecap="butt" stroke-linejoin="miter" stroke-miterlimit="8" stroke-opacity="1" fill="#FFFFFF" fill-rule="evenodd" fill-opacity="1"/><rect x="3848.5" y="881.5" width="50.9998" height="51.0002" stroke="#000000" stroke-width="6.875" stroke-linecap="butt" stroke-linejoin="miter" stroke-miterlimit="8" stroke-opacity="1" fill="#460157" fill-opacity="1"/><rect x="3944.5" y="881.5" width="50.9998" height="51.0002" stroke="#000000" stroke-width="6.875" stroke-linecap="butt" stroke-linejoin="miter" stroke-miterlimit="8" stroke-opacity="1" fill="#FFF125" fill-opacity="1"/><path d="M0 18.4133 12.2501 18.4133 12.2501 0 36.7501 0 36.7501 18.4133 49.0002 18.4133 24.5001 71.9998Z" stroke="#000000" stroke-width="6.875" stroke-linecap="butt" stroke-linejoin="miter" stroke-miterlimit="8" stroke-opacity="1" fill="#FFFFFF" fill-rule="evenodd" fill-opacity="1" transform="matrix(1 0 0 -1 3896.5 848.5)"/><path d="M3831.5 688.5C3831.5 680.768 3837.77 674.5 3845.5 674.5L4002.5 674.5C4010.23 674.5 4016.5 680.768 4016.5 688.5L4016.5 744.5C4016.5 752.232 4010.23 758.5 4002.5 758.5L3845.5 758.5C3837.77 758.5 3831.5 752.232 3831.5 744.5Z" stroke="#042433" stroke-width="6.875" stroke-linecap="butt" stroke-linejoin="miter" stroke-miterlimit="8" stroke-opacity="1" fill="#FFFFFF" fill-rule="evenodd" fill-opacity="1"/><rect x="3848.5" y="690.5" width="50.9998" height="50.9999" stroke="#000000" stroke-width="6.875" stroke-linecap="butt" stroke-linejoin="miter" stroke-miterlimit="8" stroke-opacity="1" fill="#209691" fill-opacity="1"/><rect x="3944.5" y="690.5" width="50.9998" height="50.9999" stroke="#000000" stroke-width="6.875" stroke-linecap="butt" stroke-linejoin="miter" stroke-miterlimit="8" stroke-opacity="1" fill="#460157" fill-opacity="1"/><path d="M3349.5 1217.5C3349.5 1209.77 3355.77 1203.5 3363.5 1203.5L3519.5 1203.5C3527.23 1203.5 3533.5 1209.77 3533.5 1217.5L3533.5 1273.5C3533.5 1281.23 3527.23 1287.5 3519.5 1287.5L3363.5 1287.5C3355.77 1287.5 3349.5 1281.23 3349.5 1273.5Z" stroke="#042433" stroke-width="6.875" stroke-linecap="butt" stroke-linejoin="miter" stroke-miterlimit="8" stroke-opacity="1" fill="#FFFFFF" fill-rule="evenodd" fill-opacity="1"/><rect x="3365.5" y="1219.5" width="50.9998" height="50.9999" stroke="#000000" stroke-width="6.875" stroke-linecap="butt" stroke-linejoin="miter" stroke-miterlimit="8" stroke-opacity="1" fill="#209691" fill-opacity="1"/><rect x="3461.5" y="1219.5" width="50.9998" height="50.9999" stroke="#000000" stroke-width="6.875" stroke-linecap="butt" stroke-linejoin="miter" stroke-miterlimit="8" stroke-opacity="1" fill="#460157" fill-opacity="1"/><path d="M0 18.4134 12.2501 18.4134 12.2501 0 36.7503 0 36.7503 18.4134 49.0004 18.4134 24.5002 72.0002Z" stroke="#000000" stroke-width="6.875" stroke-linecap="butt" stroke-linejoin="miter" stroke-miterlimit="8" stroke-opacity="1" fill="#FFFFFF" fill-rule="evenodd" fill-opacity="1" transform="matrix(1 0 0 -1 3413.5 1186.5)"/><path d="M3349.5 1026.5C3349.5 1018.77 3355.77 1012.5 3363.5 1012.5L3519.5 1012.5C3527.23 1012.5 3533.5 1018.77 3533.5 1026.5L3533.5 1082.5C3533.5 1090.23 3527.23 1096.5 3519.5 1096.5L3363.5 1096.5C3355.77 1096.5 3349.5 1090.23 3349.5 1082.5Z" stroke="#042433" stroke-width="6.875" stroke-linecap="butt" stroke-linejoin="miter" stroke-miterlimit="8" stroke-opacity="1" fill="#FFFFFF" fill-rule="evenodd" fill-opacity="1"/><rect x="3365.5" y="1028.5" width="50.9998" height="50.9999" stroke="#000000" stroke-width="6.875" stroke-linecap="butt" stroke-linejoin="miter" stroke-miterlimit="8" stroke-opacity="1" fill="#209691" fill-opacity="1"/><rect x="3461.5" y="1028.5" width="50.9998" height="50.9999" stroke="#000000" stroke-width="6.875" stroke-linecap="butt" stroke-linejoin="miter" stroke-miterlimit="8" stroke-opacity="1" fill="#FFF125" fill-opacity="1"/><path d="M3591.5 1217.5C3591.5 1209.77 3597.77 1203.5 3605.5 1203.5L3761.5 1203.5C3769.23 1203.5 3775.5 1209.77 3775.5 1217.5L3775.5 1273.5C3775.5 1281.23 3769.23 1287.5 3761.5 1287.5L3605.5 1287.5C3597.77 1287.5 3591.5 1281.23 3591.5 1273.5Z" stroke="#042433" stroke-width="6.875" stroke-linecap="butt" stroke-linejoin="miter" stroke-miterlimit="8" stroke-opacity="1" fill="#FFFFFF" fill-rule="evenodd" fill-opacity="1"/><rect x="3607.5" y="1219.5" width="50.9998" height="50.9999" stroke="#000000" stroke-width="6.875" stroke-linecap="butt" stroke-linejoin="miter" stroke-miterlimit="8" stroke-opacity="1" fill="#209691" fill-opacity="1"/><rect x="3703.5" y="1219.5" width="50.9998" height="50.9999" stroke="#000000" stroke-width="6.875" stroke-linecap="butt" stroke-linejoin="miter" stroke-miterlimit="8" stroke-opacity="1" fill="#209691" fill-opacity="1"/><path d="M0 17.3198 12.5001 17.3198 12.5001 0 37.5003 0 37.5003 17.3198 50.0004 17.3198 25.0003 72.0002Z" stroke="#000000" stroke-width="6.875" stroke-linecap="butt" stroke-linejoin="miter" stroke-miterlimit="8" stroke-opacity="1" fill="#FFFFFF" fill-rule="evenodd" fill-opacity="1" transform="matrix(1 0 0 -1 3655.5 1186.5)"/><path d="M3591.5 1026.5C3591.5 1018.77 3597.77 1012.5 3605.5 1012.5L3761.5 1012.5C3769.23 1012.5 3775.5 1018.77 3775.5 1026.5L3775.5 1082.5C3775.5 1090.23 3769.23 1096.5 3761.5 1096.5L3605.5 1096.5C3597.77 1096.5 3591.5 1090.23 3591.5 1082.5Z" stroke="#042433" stroke-width="6.875" stroke-linecap="butt" stroke-linejoin="miter" stroke-miterlimit="8" stroke-opacity="1" fill="#FFFFFF" fill-rule="evenodd" fill-opacity="1"/><rect x="3607.5" y="1028.5" width="50.9998" height="50.9999" stroke="#000000" stroke-width="6.875" stroke-linecap="butt" stroke-linejoin="miter" stroke-miterlimit="8" stroke-opacity="1" fill="#209691" fill-opacity="1"/><rect x="3703.5" y="1028.5" width="50.9998" height="50.9999" stroke="#000000" stroke-width="6.875" stroke-linecap="butt" stroke-linejoin="miter" stroke-miterlimit="8" stroke-opacity="1" fill="#209691" fill-opacity="1"/><path d="M3831.5 1217.5C3831.5 1209.77 3837.77 1203.5 3845.5 1203.5L4002.5 1203.5C4010.23 1203.5 4016.5 1209.77 4016.5 1217.5L4016.5 1273.5C4016.5 1281.23 4010.23 1287.5 4002.5 1287.5L3845.5 1287.5C3837.77 1287.5 3831.5 1281.23 3831.5 1273.5Z" stroke="#042433" stroke-width="6.875" stroke-linecap="butt" stroke-linejoin="miter" stroke-miterlimit="8" stroke-opacity="1" fill="#FFFFFF" fill-rule="evenodd" fill-opacity="1"/><rect x="3848.5" y="1219.5" width="50.9998" height="50.9999" stroke="#000000" stroke-width="6.875" stroke-linecap="butt" stroke-linejoin="miter" stroke-miterlimit="8" stroke-opacity="1" fill="#209691" fill-opacity="1"/><rect x="3944.5" y="1219.5" width="50.9998" height="50.9999" stroke="#000000" stroke-width="6.875" stroke-linecap="butt" stroke-linejoin="miter" stroke-miterlimit="8" stroke-opacity="1" fill="#FFF125" fill-opacity="1"/><path d="M0 18.4134 12.2501 18.4134 12.2501 0 36.7503 0 36.7503 18.4134 49.0004 18.4134 24.5002 72.0002Z" stroke="#000000" stroke-width="6.875" stroke-linecap="butt" stroke-linejoin="miter" stroke-miterlimit="8" stroke-opacity="1" fill="#FFFFFF" fill-rule="evenodd" fill-opacity="1" transform="matrix(1 0 0 -1 3896.5 1186.5)"/><path d="M3831.5 1026.5C3831.5 1018.77 3837.77 1012.5 3845.5 1012.5L4002.5 1012.5C4010.23 1012.5 4016.5 1018.77 4016.5 1026.5L4016.5 1082.5C4016.5 1090.23 4010.23 1096.5 4002.5 1096.5L3845.5 1096.5C3837.77 1096.5 3831.5 1090.23 3831.5 1082.5Z" stroke="#042433" stroke-width="6.875" stroke-linecap="butt" stroke-linejoin="miter" stroke-miterlimit="8" stroke-opacity="1" fill="#FFFFFF" fill-rule="evenodd" fill-opacity="1"/><rect x="3848.5" y="1028.5" width="50.9998" height="50.9999" stroke="#000000" stroke-width="6.875" stroke-linecap="butt" stroke-linejoin="miter" stroke-miterlimit="8" stroke-opacity="1" fill="#FFF125" fill-opacity="1"/><rect x="3944.5" y="1028.5" width="50.9998" height="50.9999" stroke="#000000" stroke-width="6.875" stroke-linecap="butt" stroke-linejoin="miter" stroke-miterlimit="8" stroke-opacity="1" fill="#209691" fill-opacity="1"/><path d="M3349.5 1555.5C3349.5 1547.77 3355.77 1541.5 3363.5 1541.5L3519.5 1541.5C3527.23 1541.5 3533.5 1547.77 3533.5 1555.5L3533.5 1611.5C3533.5 1619.23 3527.23 1625.5 3519.5 1625.5L3363.5 1625.5C3355.77 1625.5 3349.5 1619.23 3349.5 1611.5Z" stroke="#042433" stroke-width="6.875" stroke-linecap="butt" stroke-linejoin="miter" stroke-miterlimit="8" stroke-opacity="1" fill="#FFFFFF" fill-rule="evenodd" fill-opacity="1"/><rect x="3365.5" y="1557.5" width="50.9998" height="50.9999" stroke="#000000" stroke-width="6.875" stroke-linecap="butt" stroke-linejoin="miter" stroke-miterlimit="8" stroke-opacity="1" fill="#FFF125" fill-opacity="1"/><rect x="3461.5" y="1557.5" width="50.9998" height="50.9999" stroke="#000000" stroke-width="6.875" stroke-linecap="butt" stroke-linejoin="miter" stroke-miterlimit="8" stroke-opacity="1" fill="#460157" fill-opacity="1"/><path d="M0 18.4134 12.2501 18.4134 12.2501 0 36.7503 0 36.7503 18.4134 49.0004 18.4134 24.5002 72.0002Z" stroke="#000000" stroke-width="6.875" stroke-linecap="butt" stroke-linejoin="miter" stroke-miterlimit="8" stroke-opacity="1" fill="#FFFFFF" fill-rule="evenodd" fill-opacity="1" transform="matrix(1 0 0 -1 3413.5 1524.5)"/><path d="M3349.5 1364.5C3349.5 1356.77 3355.77 1350.5 3363.5 1350.5L3519.5 1350.5C3527.23 1350.5 3533.5 1356.77 3533.5 1364.5L3533.5 1420.5C3533.5 1428.23 3527.23 1434.5 3519.5 1434.5L3363.5 1434.5C3355.77 1434.5 3349.5 1428.23 3349.5 1420.5Z" stroke="#042433" stroke-width="6.875" stroke-linecap="butt" stroke-linejoin="miter" stroke-miterlimit="8" stroke-opacity="1" fill="#FFFFFF" fill-rule="evenodd" fill-opacity="1"/><rect x="3365.5" y="1366.5" width="50.9998" height="51.0002" stroke="#000000" stroke-width="6.875" stroke-linecap="butt" stroke-linejoin="miter" stroke-miterlimit="8" stroke-opacity="1" fill="#460157" fill-opacity="1"/><rect x="3461.5" y="1366.5" width="50.9998" height="51.0002" stroke="#000000" stroke-width="6.875" stroke-linecap="butt" stroke-linejoin="miter" stroke-miterlimit="8" stroke-opacity="1" fill="#FFF125" fill-opacity="1"/><path d="M3591.5 1555.5C3591.5 1547.77 3597.77 1541.5 3605.5 1541.5L3761.5 1541.5C3769.23 1541.5 3775.5 1547.77 3775.5 1555.5L3775.5 1611.5C3775.5 1619.23 3769.23 1625.5 3761.5 1625.5L3605.5 1625.5C3597.77 1625.5 3591.5 1619.23 3591.5 1611.5Z" stroke="#042433" stroke-width="6.875" stroke-linecap="butt" stroke-linejoin="miter" stroke-miterlimit="8" stroke-opacity="1" fill="#FFFFFF" fill-rule="evenodd" fill-opacity="1"/><rect x="3607.5" y="1557.5" width="50.9998" height="50.9999" stroke="#000000" stroke-width="6.875" stroke-linecap="butt" stroke-linejoin="miter" stroke-miterlimit="8" stroke-opacity="1" fill="#FFF125" fill-opacity="1"/><rect x="3703.5" y="1557.5" width="50.9998" height="50.9999" stroke="#000000" stroke-width="6.875" stroke-linecap="butt" stroke-linejoin="miter" stroke-miterlimit="8" stroke-opacity="1" fill="#209691" fill-opacity="1"/><path d="M0 17.3198 12.5001 17.3198 12.5001 0 37.5003 0 37.5003 17.3198 50.0004 17.3198 25.0003 72.0002Z" stroke="#000000" stroke-width="6.875" stroke-linecap="butt" stroke-linejoin="miter" stroke-miterlimit="8" stroke-opacity="1" fill="#FFFFFF" fill-rule="evenodd" fill-opacity="1" transform="matrix(1 0 0 -1 3655.5 1524.5)"/><path d="M3591.5 1364.5C3591.5 1356.77 3597.77 1350.5 3605.5 1350.5L3761.5 1350.5C3769.23 1350.5 3775.5 1356.77 3775.5 1364.5L3775.5 1420.5C3775.5 1428.23 3769.23 1434.5 3761.5 1434.5L3605.5 1434.5C3597.77 1434.5 3591.5 1428.23 3591.5 1420.5Z" stroke="#042433" stroke-width="6.875" stroke-linecap="butt" stroke-linejoin="miter" stroke-miterlimit="8" stroke-opacity="1" fill="#FFFFFF" fill-rule="evenodd" fill-opacity="1"/><rect x="3607.5" y="1366.5" width="50.9998" height="51.0002" stroke="#000000" stroke-width="6.875" stroke-linecap="butt" stroke-linejoin="miter" stroke-miterlimit="8" stroke-opacity="1" fill="#FFF125" fill-opacity="1"/><rect x="3703.5" y="1366.5" width="50.9998" height="51.0002" stroke="#000000" stroke-width="6.875" stroke-linecap="butt" stroke-linejoin="miter" stroke-miterlimit="8" stroke-opacity="1" fill="#460157" fill-opacity="1"/><path d="M3831.5 1555.5C3831.5 1547.77 3837.77 1541.5 3845.5 1541.5L4002.5 1541.5C4010.23 1541.5 4016.5 1547.77 4016.5 1555.5L4016.5 1611.5C4016.5 1619.23 4010.23 1625.5 4002.5 1625.5L3845.5 1625.5C3837.77 1625.5 3831.5 1619.23 3831.5 1611.5Z" stroke="#042433" stroke-width="6.875" stroke-linecap="butt" stroke-linejoin="miter" stroke-miterlimit="8" stroke-opacity="1" fill="#FFFFFF" fill-rule="evenodd" fill-opacity="1"/><rect x="3848.5" y="1557.5" width="50.9998" height="50.9999" stroke="#000000" stroke-width="6.875" stroke-linecap="butt" stroke-linejoin="miter" stroke-miterlimit="8" stroke-opacity="1" fill="#FFF125" fill-opacity="1"/><rect x="3944.5" y="1557.5" width="50.9998" height="50.9999" stroke="#000000" stroke-width="6.875" stroke-linecap="butt" stroke-linejoin="miter" stroke-miterlimit="8" stroke-opacity="1" fill="#FFF125" fill-opacity="1"/><path d="M0 18.4134 12.2501 18.4134 12.2501 0 36.7503 0 36.7503 18.4134 49.0004 18.4134 24.5002 72.0002Z" stroke="#000000" stroke-width="6.875" stroke-linecap="butt" stroke-linejoin="miter" stroke-miterlimit="8" stroke-opacity="1" fill="#FFFFFF" fill-rule="evenodd" fill-opacity="1" transform="matrix(1 0 0 -1 3896.5 1524.5)"/><path d="M3831.5 1364.5C3831.5 1356.77 3837.77 1350.5 3845.5 1350.5L4002.5 1350.5C4010.23 1350.5 4016.5 1356.77 4016.5 1364.5L4016.5 1420.5C4016.5 1428.23 4010.23 1434.5 4002.5 1434.5L3845.5 1434.5C3837.77 1434.5 3831.5 1428.23 3831.5 1420.5Z" stroke="#042433" stroke-width="6.875" stroke-linecap="butt" stroke-linejoin="miter" stroke-miterlimit="8" stroke-opacity="1" fill="#FFFFFF" fill-rule="evenodd" fill-opacity="1"/><rect x="3848.5" y="1366.5" width="50.9998" height="51.0002" stroke="#000000" stroke-width="6.875" stroke-linecap="butt" stroke-linejoin="miter" stroke-miterlimit="8" stroke-opacity="1" fill="#FFF125" fill-opacity="1"/><rect x="3944.5" y="1366.5" width="50.9998" height="51.0002" stroke="#000000" stroke-width="6.875" stroke-linecap="butt" stroke-linejoin="miter" stroke-miterlimit="8" stroke-opacity="1" fill="#FFF125" fill-opacity="1"/></g></g></svg>