<?xml version="1.0" encoding="UTF-8"?>
<svg xmlns="http://www.w3.org/2000/svg" xmlns:xlink="http://www.w3.org/1999/xlink" width="222pt" height="64pt" viewBox="0 0 222 64">
<path fill-rule="nonzero" fill="rgb(0%, 0%, 0%)" fill-opacity="1" d="M 7.367188 19.261719 C 7.367188 18.941406 7.296875 18.777344 6.882812 18.777344 L 6.484375 18.777344 C 6.109375 18.777344 6.011719 18.90625 6.011719 19.261719 L 6.011719 23.441406 C 6.011719 24.417969 5.71875 25.078125 4.496094 25.078125 C 3.34375 25.078125 3.027344 24.476562 3.027344 23.453125 L 3.027344 19.261719 C 3.027344 18.941406 2.957031 18.777344 2.554688 18.777344 L 2.039062 18.777344 C 1.683594 18.777344 1.554688 18.882812 1.554688 19.261719 L 1.554688 23.40625 C 1.554688 25.523438 3.214844 25.933594 4.484375 25.933594 C 5.625 25.933594 7.367188 25.59375 7.367188 23.417969 Z M 7.367188 19.261719 "/>
<path fill-rule="nonzero" fill="rgb(0%, 0%, 0%)" fill-opacity="1" d="M 12.980469 21.9375 C 12.980469 21.644531 12.746094 21.410156 12.453125 21.410156 C 12.171875 21.410156 11.921875 21.644531 11.921875 21.9375 C 11.921875 22.222656 12.171875 22.46875 12.453125 22.46875 C 12.746094 22.46875 12.980469 22.222656 12.980469 21.9375 Z M 12.980469 25.183594 C 12.980469 24.886719 12.746094 24.652344 12.453125 24.652344 C 12.171875 24.652344 11.921875 24.886719 11.921875 25.183594 C 11.921875 25.476562 12.171875 25.710938 12.453125 25.710938 C 12.746094 25.710938 12.980469 25.476562 12.980469 25.183594 Z M 20.714844 22.445312 C 20.867188 22.445312 21.054688 22.445312 21.054688 22.246094 C 21.054688 22.042969 20.867188 22.042969 20.726562 22.042969 L 14.738281 22.042969 C 14.597656 22.042969 14.410156 22.042969 14.410156 22.246094 C 14.410156 22.445312 14.597656 22.445312 14.75 22.445312 Z M 20.726562 24.382812 C 20.867188 24.382812 21.054688 24.382812 21.054688 24.183594 C 21.054688 23.984375 20.867188 23.984375 20.714844 23.984375 L 14.75 23.984375 C 14.597656 23.984375 14.410156 23.984375 14.410156 24.183594 C 14.410156 24.382812 14.597656 24.382812 14.738281 24.382812 Z M 20.726562 24.382812 "/>
<path fill-rule="nonzero" fill="rgb(0%, 0%, 0%)" fill-opacity="1" d="M 29.394531 21.609375 C 29.394531 21.292969 29.324219 21.140625 28.914062 21.140625 L 28.515625 21.140625 C 28.136719 21.140625 28.03125 21.269531 28.03125 21.609375 L 28.03125 23.984375 C 28.03125 24.640625 27.691406 25.207031 26.972656 25.207031 C 26.421875 25.207031 26.363281 25.078125 26.363281 24.546875 L 26.363281 21.609375 C 26.363281 21.292969 26.292969 21.140625 25.878906 21.140625 L 25.480469 21.140625 C 25.113281 21.140625 24.996094 21.246094 24.996094 21.609375 L 24.996094 24.453125 C 24.996094 25.523438 25.574219 25.816406 26.621094 25.816406 C 26.890625 25.816406 27.597656 25.816406 28.066406 24.96875 L 28.066406 25.230469 C 28.066406 25.546875 28.136719 25.710938 28.550781 25.710938 L 28.914062 25.710938 C 29.300781 25.710938 29.394531 25.582031 29.394531 25.230469 Z M 29.394531 21.609375 "/>
<path fill-rule="nonzero" fill="rgb(0%, 0%, 0%)" fill-opacity="1" d="M 32.347656 22.765625 C 32.347656 22.578125 32.335938 22.566406 32.136719 22.566406 C 31.691406 23.003906 31.054688 23.015625 30.773438 23.015625 L 30.773438 23.261719 C 30.9375 23.261719 31.394531 23.261719 31.785156 23.074219 L 31.785156 26.632812 C 31.785156 26.867188 31.785156 26.960938 31.089844 26.960938 L 30.820312 26.960938 L 30.820312 27.207031 C 30.949219 27.195312 31.808594 27.183594 32.066406 27.183594 C 32.277344 27.183594 33.160156 27.195312 33.3125 27.207031 L 33.3125 26.960938 L 33.054688 26.960938 C 32.347656 26.960938 32.347656 26.867188 32.347656 26.632812 Z M 32.347656 22.765625 "/>
<path fill-rule="nonzero" fill="rgb(0%, 0%, 0%)" fill-opacity="1" d="M 37.425781 19.847656 L 37.425781 25.230469 C 37.425781 25.59375 37.53125 25.710938 37.90625 25.710938 L 38.410156 25.710938 C 38.800781 25.710938 38.894531 25.582031 38.894531 25.230469 L 38.894531 19.847656 C 39.328125 19.847656 40.457031 19.882812 40.894531 19.882812 C 41.175781 19.882812 41.410156 19.882812 41.410156 19.402344 L 41.410156 19.320312 C 41.410156 19 41.339844 18.835938 40.929688 18.835938 L 35.378906 18.835938 C 35.011719 18.835938 34.894531 18.953125 34.894531 19.320312 L 34.894531 19.402344 C 34.894531 19.882812 35.128906 19.882812 35.414062 19.882812 Z M 46.828125 21.609375 C 46.828125 21.292969 46.757812 21.140625 46.34375 21.140625 L 45.945312 21.140625 C 45.570312 21.140625 45.464844 21.269531 45.464844 21.609375 L 45.464844 23.984375 C 45.464844 24.640625 45.121094 25.207031 44.40625 25.207031 C 43.851562 25.207031 43.792969 25.078125 43.792969 24.546875 L 43.792969 21.609375 C 43.792969 21.292969 43.722656 21.140625 43.3125 21.140625 L 42.910156 21.140625 C 42.546875 21.140625 42.429688 21.246094 42.429688 21.609375 L 42.429688 24.453125 C 42.429688 25.523438 43.003906 25.816406 44.050781 25.816406 C 44.324219 25.816406 45.027344 25.816406 45.5 24.96875 L 45.5 25.230469 C 45.5 25.546875 45.570312 25.710938 45.980469 25.710938 L 46.34375 25.710938 C 46.734375 25.710938 46.828125 25.582031 46.828125 25.230469 Z M 46.828125 21.609375 "/>
<path fill-rule="nonzero" fill="rgb(0%, 0%, 0%)" fill-opacity="1" d="M 49.78125 22.765625 C 49.78125 22.578125 49.769531 22.566406 49.570312 22.566406 C 49.121094 23.003906 48.484375 23.015625 48.203125 23.015625 L 48.203125 23.261719 C 48.367188 23.261719 48.828125 23.261719 49.214844 23.074219 L 49.214844 26.632812 C 49.214844 26.867188 49.214844 26.960938 48.523438 26.960938 L 48.25 26.960938 L 48.25 27.207031 C 48.378906 27.195312 49.238281 27.183594 49.496094 27.183594 C 49.710938 27.183594 50.589844 27.195312 50.746094 27.207031 L 50.746094 26.960938 L 50.484375 26.960938 C 49.78125 26.960938 49.78125 26.867188 49.78125 26.632812 Z M 49.78125 22.765625 "/>
<path fill-rule="nonzero" fill="rgb(0%, 0%, 0%)" fill-opacity="1" d="M 54.851562 19.847656 L 54.851562 25.230469 C 54.851562 25.59375 54.957031 25.710938 55.335938 25.710938 L 55.839844 25.710938 C 56.230469 25.710938 56.324219 25.582031 56.324219 25.230469 L 56.324219 19.847656 C 56.757812 19.847656 57.886719 19.882812 58.324219 19.882812 C 58.605469 19.882812 58.839844 19.882812 58.839844 19.402344 L 58.839844 19.320312 C 58.839844 19 58.769531 18.835938 58.359375 18.835938 L 52.804688 18.835938 C 52.441406 18.835938 52.324219 18.953125 52.324219 19.320312 L 52.324219 19.402344 C 52.324219 19.882812 52.558594 19.882812 52.839844 19.882812 Z M 54.851562 19.847656 "/>
<path fill-rule="nonzero" fill="rgb(0%, 0%, 0%)" fill-opacity="1" d="M 64.46875 19.671875 C 64.574219 19.671875 64.738281 19.671875 64.738281 19.496094 C 64.738281 19.320312 64.585938 19.320312 64.46875 19.320312 L 60.292969 19.320312 C 60.1875 19.320312 60.011719 19.320312 60.011719 19.496094 C 60.011719 19.671875 60.175781 19.671875 60.292969 19.671875 Z M 64.46875 19.671875 "/>
<path fill-rule="nonzero" fill="rgb(0%, 0%, 0%)" fill-opacity="1" d="M 67.847656 16.804688 C 67.847656 16.617188 67.835938 16.605469 67.636719 16.605469 C 67.1875 17.039062 66.554688 17.050781 66.269531 17.050781 L 66.269531 17.296875 C 66.433594 17.296875 66.894531 17.296875 67.28125 17.109375 L 67.28125 20.671875 C 67.28125 20.90625 67.28125 21 66.589844 21 L 66.316406 21 L 66.316406 21.246094 C 66.445312 21.234375 67.304688 21.222656 67.5625 21.222656 C 67.777344 21.222656 68.660156 21.234375 68.8125 21.246094 L 68.8125 21 L 68.550781 21 C 67.847656 21 67.847656 20.90625 67.847656 20.671875 Z M 67.847656 16.804688 "/>
<path fill-rule="nonzero" fill="rgb(0%, 0%, 0%)" fill-opacity="1" d="M 79.640625 22.445312 C 79.792969 22.445312 79.980469 22.445312 79.980469 22.246094 C 79.980469 22.042969 79.792969 22.042969 79.652344 22.042969 L 73.664062 22.042969 C 73.523438 22.042969 73.335938 22.042969 73.335938 22.246094 C 73.335938 22.445312 73.523438 22.445312 73.675781 22.445312 Z M 79.652344 24.382812 C 79.792969 24.382812 79.980469 24.382812 79.980469 24.183594 C 79.980469 23.984375 79.792969 23.984375 79.640625 23.984375 L 73.675781 23.984375 C 73.523438 23.984375 73.335938 23.984375 73.335938 24.183594 C 73.335938 24.382812 73.523438 24.382812 73.664062 24.382812 Z M 79.652344 24.382812 "/>
<path fill="none" stroke-width="0.799958" stroke-linecap="butt" stroke-linejoin="miter" stroke="rgb(74.900818%, 74.900818%, 74.900818%)" stroke-opacity="1" stroke-dasharray="0.799958 1.999919" stroke-miterlimit="10" d="M 92.261719 -44.731815 L 220.292969 -44.731815 M 92.261719 -23.392405 L 220.292969 -23.392405 M 92.261719 -2.056905 L 220.292969 -2.056905 M 92.261719 -44.731815 L 92.261719 -2.056905 M 113.601562 -44.731815 L 113.601562 -2.056905 M 134.9375 -44.731815 L 134.9375 -2.056905 M 156.277344 -44.731815 L 156.277344 -2.056905 M 177.617188 -44.731815 L 177.617188 -2.056905 M 198.953125 -44.731815 L 198.953125 -2.056905 M 220.292969 -44.731815 L 220.292969 -2.056905 " transform="matrix(1, 0, 0, -0.998922, 0, 0)"/>
<path fill-rule="nonzero" fill="rgb(0%, 0%, 0%)" fill-opacity="1" d="M 98.179688 33.746094 C 98.179688 33.460938 97.945312 33.214844 97.652344 33.214844 C 97.371094 33.214844 97.121094 33.460938 97.121094 33.746094 C 97.121094 34.039062 97.371094 34.285156 97.652344 34.285156 C 97.945312 34.285156 98.179688 34.039062 98.179688 33.746094 Z M 102.628906 33.746094 C 102.628906 33.460938 102.394531 33.214844 102.101562 33.214844 C 101.820312 33.214844 101.570312 33.460938 101.570312 33.746094 C 101.570312 34.039062 101.820312 34.285156 102.101562 34.285156 C 102.394531 34.285156 102.628906 34.039062 102.628906 33.746094 Z M 107.066406 33.746094 C 107.066406 33.460938 106.832031 33.214844 106.539062 33.214844 C 106.253906 33.214844 106.007812 33.460938 106.007812 33.746094 C 106.007812 34.039062 106.253906 34.285156 106.539062 34.285156 C 106.832031 34.285156 107.066406 34.039062 107.066406 33.746094 Z M 107.066406 33.746094 "/>
<path fill-rule="nonzero" fill="rgb(0%, 0%, 0%)" fill-opacity="1" d="M 98.179688 12.429688 C 98.179688 12.144531 97.945312 11.898438 97.652344 11.898438 C 97.371094 11.898438 97.121094 12.144531 97.121094 12.429688 C 97.121094 12.722656 97.371094 12.96875 97.652344 12.96875 C 97.945312 12.96875 98.179688 12.722656 98.179688 12.429688 Z M 102.628906 12.429688 C 102.628906 12.144531 102.394531 11.898438 102.101562 11.898438 C 101.820312 11.898438 101.570312 12.144531 101.570312 12.429688 C 101.570312 12.722656 101.820312 12.96875 102.101562 12.96875 C 102.394531 12.96875 102.628906 12.722656 102.628906 12.429688 Z M 107.066406 12.429688 C 107.066406 12.144531 106.832031 11.898438 106.539062 11.898438 C 106.253906 11.898438 106.007812 12.144531 106.007812 12.429688 C 106.007812 12.722656 106.253906 12.96875 106.539062 12.96875 C 106.832031 12.96875 107.066406 12.722656 107.066406 12.429688 Z M 107.066406 12.429688 "/>
<path fill-rule="nonzero" fill="rgb(100%, 100%, 100%)" fill-opacity="1" stroke-width="0.799958" stroke-linecap="butt" stroke-linejoin="miter" stroke="rgb(0%, 0%, 0%)" stroke-opacity="1" stroke-miterlimit="10" d="M 118.933594 -39.39794 L 113.601562 -44.731815 M 129.605469 -39.39794 L 134.9375 -44.731815 M 118.933594 -28.73019 L 113.601562 -23.392405 M 129.605469 -28.73019 L 134.9375 -23.392405 M 118.933594 -38.396861 L 118.933594 -29.727359 C 118.933594 -29.175983 119.382812 -28.73019 119.933594 -28.73019 L 128.605469 -28.73019 C 129.15625 -28.73019 129.605469 -29.175983 129.605469 -29.727359 L 129.605469 -38.396861 C 129.605469 -38.952147 129.15625 -39.39794 128.605469 -39.39794 L 119.933594 -39.39794 C 119.382812 -39.39794 118.933594 -38.952147 118.933594 -38.396861 Z M 118.933594 -38.396861 " transform="matrix(1, 0, 0, -0.998922, 0, 0)"/>
<path fill="none" stroke-width="0.799958" stroke-linecap="butt" stroke-linejoin="miter" stroke="rgb(0%, 0%, 0%)" stroke-opacity="1" stroke-miterlimit="10" d="M 124.269531 -30.008912 L 127.324219 -30.008912 C 127.875 -30.008912 128.324219 -30.458616 128.324219 -31.009991 L 128.324219 -34.064065 " transform="matrix(1, 0, 0, -0.998922, 0, 0)"/>
<path fill-rule="nonzero" fill="rgb(100%, 100%, 100%)" fill-opacity="1" stroke-width="0.799958" stroke-linecap="butt" stroke-linejoin="miter" stroke="rgb(0%, 0%, 0%)" stroke-opacity="1" stroke-miterlimit="10" d="M 161.613281 -39.39794 L 156.277344 -44.731815 M 172.28125 -39.39794 L 177.617188 -44.731815 M 161.613281 -28.73019 L 156.277344 -23.392405 M 172.28125 -28.73019 L 177.617188 -23.392405 M 161.613281 -38.396861 L 161.613281 -29.727359 C 161.613281 -29.175983 162.058594 -28.73019 162.613281 -28.73019 L 171.28125 -28.73019 C 171.832031 -28.73019 172.28125 -29.175983 172.28125 -29.727359 L 172.28125 -38.396861 C 172.28125 -38.952147 171.832031 -39.39794 171.28125 -39.39794 L 162.613281 -39.39794 C 162.058594 -39.39794 161.613281 -38.952147 161.613281 -38.396861 Z M 161.613281 -38.396861 " transform="matrix(1, 0, 0, -0.998922, 0, 0)"/>
<path fill="none" stroke-width="0.799958" stroke-linecap="butt" stroke-linejoin="miter" stroke="rgb(0%, 0%, 0%)" stroke-opacity="1" stroke-miterlimit="10" d="M 166.945312 -30.008912 L 170 -30.008912 C 170.554688 -30.008912 171 -30.458616 171 -31.009991 L 171 -34.064065 " transform="matrix(1, 0, 0, -0.998922, 0, 0)"/>
<path fill-rule="nonzero" fill="rgb(0%, 0%, 0%)" fill-opacity="1" d="M 113.804688 48.609375 C 114.039062 48.996094 114.320312 49.269531 114.570312 49.457031 C 115.179688 49.925781 115.792969 50.019531 115.804688 50.019531 C 115.933594 50.019531 115.933594 49.914062 115.933594 49.832031 C 115.933594 49.667969 115.921875 49.65625 115.699219 49.597656 C 115.015625 49.398438 114.628906 49.046875 114.402344 48.796875 C 113.886719 48.246094 113.769531 47.648438 113.710938 47.328125 C 113.699219 47.269531 113.664062 47.234375 113.605469 47.234375 C 113.511719 47.234375 113.5 47.292969 113.476562 47.410156 C 113.25 48.527344 112.535156 49.304688 111.441406 49.609375 C 111.285156 49.65625 111.261719 49.65625 111.261719 49.832031 C 111.261719 49.914062 111.261719 50.019531 111.394531 50.019531 C 111.417969 50.019531 112.003906 49.914062 112.582031 49.503906 C 112.910156 49.257812 113.179688 48.949219 113.402344 48.609375 L 113.402344 55.730469 C 113.402344 55.917969 113.402344 56.09375 113.605469 56.09375 C 113.804688 56.09375 113.804688 55.917969 113.804688 55.730469 Z M 113.804688 48.609375 "/>
<path fill-rule="nonzero" fill="rgb(0%, 0%, 0%)" fill-opacity="1" d="M 101.730469 60.867188 C 101.871094 60.867188 101.917969 60.867188 101.917969 60.714844 C 101.917969 60.105469 101.578125 59.351562 100.542969 59.351562 C 99.625 59.351562 98.917969 60.082031 98.917969 60.9375 C 98.917969 61.820312 99.695312 62.535156 100.625 62.535156 C 101.578125 62.535156 101.917969 61.785156 101.917969 61.632812 C 101.917969 61.597656 101.90625 61.527344 101.800781 61.527344 C 101.71875 61.527344 101.695312 61.574219 101.683594 61.644531 C 101.460938 62.207031 100.929688 62.3125 100.683594 62.3125 C 100.355469 62.3125 100.035156 62.160156 99.824219 61.902344 C 99.566406 61.574219 99.554688 61.148438 99.554688 60.867188 Z M 99.566406 60.691406 C 99.636719 59.703125 100.273438 59.539062 100.542969 59.539062 C 101.402344 59.539062 101.425781 60.515625 101.4375 60.691406 Z M 105.519531 60.140625 C 105.71875 59.714844 106.0625 59.703125 106.179688 59.703125 L 106.179688 59.457031 C 106.003906 59.46875 105.828125 59.480469 105.648438 59.480469 C 105.460938 59.480469 105.203125 59.46875 105.015625 59.457031 L 105.015625 59.703125 C 105.308594 59.714844 105.308594 59.953125 105.308594 59.976562 C 105.308594 60.011719 105.296875 60.082031 105.25 60.175781 L 104.460938 61.902344 L 103.589844 60 C 103.589844 59.988281 103.542969 59.917969 103.542969 59.867188 C 103.542969 59.703125 103.78125 59.703125 103.910156 59.703125 L 103.910156 59.457031 C 103.886719 59.457031 103.390625 59.480469 103.109375 59.480469 C 102.898438 59.480469 102.628906 59.46875 102.414062 59.457031 L 102.414062 59.703125 C 102.804688 59.703125 102.886719 59.714844 102.992188 59.953125 L 104.097656 62.382812 C 104.132812 62.476562 104.179688 62.535156 104.296875 62.535156 C 104.425781 62.535156 104.460938 62.476562 104.496094 62.394531 Z M 109.269531 60.867188 C 109.410156 60.867188 109.457031 60.867188 109.457031 60.714844 C 109.457031 60.105469 109.117188 59.351562 108.082031 59.351562 C 107.164062 59.351562 106.457031 60.082031 106.457031 60.9375 C 106.457031 61.820312 107.234375 62.535156 108.164062 62.535156 C 109.117188 62.535156 109.457031 61.785156 109.457031 61.632812 C 109.457031 61.597656 109.445312 61.527344 109.339844 61.527344 C 109.257812 61.527344 109.234375 61.574219 109.222656 61.644531 C 109 62.207031 108.46875 62.3125 108.222656 62.3125 C 107.894531 62.3125 107.574219 62.160156 107.363281 61.902344 C 107.105469 61.574219 107.09375 61.148438 107.09375 60.867188 Z M 107.105469 60.691406 C 107.175781 59.703125 107.8125 59.539062 108.082031 59.539062 C 108.941406 59.539062 108.964844 60.515625 108.976562 60.691406 Z M 113.34375 60.351562 C 113.34375 59.738281 113.046875 59.386719 112.296875 59.386719 C 111.71875 59.386719 111.355469 59.691406 111.15625 60.058594 L 111.15625 59.386719 L 110.121094 59.457031 L 110.121094 59.714844 C 110.589844 59.714844 110.648438 59.761719 110.648438 60.105469 L 110.648438 61.914062 C 110.648438 62.21875 110.578125 62.21875 110.121094 62.21875 L 110.121094 62.464844 C 110.132812 62.464844 110.625 62.441406 110.917969 62.441406 C 111.179688 62.441406 111.660156 62.453125 111.71875 62.464844 L 111.71875 62.21875 C 111.273438 62.21875 111.203125 62.21875 111.203125 61.914062 L 111.203125 60.65625 C 111.203125 59.917969 111.777344 59.574219 112.238281 59.574219 C 112.730469 59.574219 112.789062 59.964844 112.789062 60.316406 L 112.789062 61.914062 C 112.789062 62.21875 112.71875 62.21875 112.273438 62.21875 L 112.273438 62.464844 C 112.285156 62.464844 112.777344 62.441406 113.070312 62.441406 C 113.332031 62.441406 113.8125 62.453125 113.871094 62.464844 L 113.871094 62.21875 C 113.414062 62.21875 113.34375 62.21875 113.34375 61.914062 Z M 119.101562 59.527344 C 119.101562 59.410156 119.101562 59.351562 118.992188 59.351562 C 118.957031 59.351562 118.945312 59.351562 118.851562 59.433594 C 118.839844 59.433594 118.769531 59.503906 118.734375 59.539062 C 118.523438 59.386719 118.253906 59.351562 117.996094 59.351562 C 116.996094 59.351562 116.757812 59.867188 116.757812 60.222656 C 116.757812 60.445312 116.851562 60.632812 117.019531 60.761719 C 117.289062 60.996094 117.558594 61.042969 117.984375 61.113281 C 118.335938 61.183594 118.898438 61.277344 118.898438 61.75 C 118.898438 62.019531 118.710938 62.335938 118.042969 62.335938 C 117.371094 62.335938 117.125 61.902344 117.007812 61.421875 C 116.984375 61.335938 116.972656 61.300781 116.875 61.300781 C 116.757812 61.300781 116.757812 61.347656 116.757812 61.492188 L 116.757812 62.347656 C 116.757812 62.476562 116.757812 62.535156 116.851562 62.535156 C 116.914062 62.535156 117.054688 62.382812 117.195312 62.230469 C 117.5 62.523438 117.875 62.535156 118.042969 62.535156 C 118.957031 62.535156 119.289062 62.042969 119.289062 61.550781 C 119.289062 61.277344 119.171875 61.078125 118.992188 60.902344 C 118.722656 60.65625 118.40625 60.609375 118.160156 60.5625 C 117.59375 60.46875 117.148438 60.386719 117.148438 60.011719 C 117.148438 59.785156 117.335938 59.515625 117.996094 59.515625 C 118.804688 59.515625 118.839844 60.082031 118.851562 60.28125 C 118.863281 60.363281 118.945312 60.363281 118.96875 60.363281 C 119.101562 60.363281 119.101562 60.316406 119.101562 60.175781 Z M 121.089844 58.152344 C 121.089844 57.953125 120.914062 57.753906 120.679688 57.753906 C 120.46875 57.753906 120.277344 57.917969 120.277344 58.152344 C 120.277344 58.402344 120.480469 58.554688 120.679688 58.554688 C 120.902344 58.554688 121.089844 58.390625 121.089844 58.152344 Z M 120.019531 59.457031 L 120.019531 59.714844 C 120.46875 59.714844 120.527344 59.75 120.527344 60.09375 L 120.527344 61.914062 C 120.527344 62.21875 120.457031 62.21875 119.996094 62.21875 L 119.996094 62.464844 C 120.019531 62.464844 120.503906 62.441406 120.785156 62.441406 C 121.03125 62.441406 121.277344 62.441406 121.527344 62.464844 L 121.527344 62.21875 C 121.125 62.21875 121.054688 62.21875 121.054688 61.925781 L 121.054688 59.386719 Z M 123.285156 59.703125 L 124.367188 59.703125 L 124.367188 59.457031 L 123.285156 59.457031 L 123.285156 58.164062 L 123.039062 58.164062 C 123.039062 58.800781 122.742188 59.492188 122.074219 59.503906 L 122.074219 59.703125 L 122.730469 59.703125 L 122.730469 61.597656 C 122.730469 62.371094 123.320312 62.535156 123.707031 62.535156 C 124.179688 62.535156 124.496094 62.136719 124.496094 61.585938 L 124.496094 61.195312 L 124.261719 61.195312 L 124.261719 61.574219 C 124.261719 62.054688 124.039062 62.3125 123.765625 62.3125 C 123.285156 62.3125 123.285156 61.726562 123.285156 61.597656 Z M 128.082031 60.867188 C 128.222656 60.867188 128.269531 60.867188 128.269531 60.714844 C 128.269531 60.105469 127.925781 59.351562 126.890625 59.351562 C 125.976562 59.351562 125.269531 60.082031 125.269531 60.9375 C 125.269531 61.820312 126.046875 62.535156 126.976562 62.535156 C 127.925781 62.535156 128.269531 61.785156 128.269531 61.632812 C 128.269531 61.597656 128.257812 61.527344 128.152344 61.527344 C 128.070312 61.527344 128.046875 61.574219 128.035156 61.644531 C 127.808594 62.207031 127.28125 62.3125 127.035156 62.3125 C 126.703125 62.3125 126.386719 62.160156 126.175781 61.902344 C 125.917969 61.574219 125.90625 61.148438 125.90625 60.867188 Z M 125.917969 60.691406 C 125.988281 59.703125 126.621094 59.539062 126.890625 59.539062 C 127.75 59.539062 127.773438 60.515625 127.785156 60.691406 Z M 125.917969 60.691406 "/>
<path fill-rule="nonzero" fill="rgb(100%, 100%, 100%)" fill-opacity="1" stroke-width="0.799958" stroke-linecap="butt" stroke-linejoin="miter" stroke="rgb(0%, 0%, 0%)" stroke-opacity="1" stroke-miterlimit="10" d="M 140.273438 -18.05853 L 134.9375 -23.392405 M 150.941406 -18.05853 L 156.277344 -23.392405 M 140.273438 -7.39078 L 134.9375 -2.056905 M 150.941406 -7.39078 L 156.277344 -2.056905 M 140.273438 -17.061361 L 140.273438 -8.391859 C 140.273438 -7.836573 140.722656 -7.39078 141.273438 -7.39078 L 149.941406 -7.39078 C 150.496094 -7.39078 150.941406 -7.836573 150.941406 -8.391859 L 150.941406 -17.061361 C 150.941406 -17.612737 150.496094 -18.05853 149.941406 -18.05853 L 141.273438 -18.05853 C 140.722656 -18.05853 140.273438 -17.612737 140.273438 -17.061361 Z M 140.273438 -17.061361 " transform="matrix(1, 0, 0, -0.998922, 0, 0)"/>
<path fill="none" stroke-width="0.799958" stroke-linecap="butt" stroke-linejoin="miter" stroke="rgb(0%, 0%, 0%)" stroke-opacity="1" stroke-miterlimit="10" d="M 145.609375 -8.669502 L 148.664062 -8.669502 C 149.214844 -8.669502 149.664062 -9.119206 149.664062 -9.670581 L 149.664062 -12.724655 " transform="matrix(1, 0, 0, -0.998922, 0, 0)"/>
<path fill-rule="nonzero" fill="rgb(100%, 100%, 100%)" fill-opacity="1" stroke-width="0.799958" stroke-linecap="butt" stroke-linejoin="miter" stroke="rgb(0%, 0%, 0%)" stroke-opacity="1" stroke-miterlimit="10" d="M 182.949219 -18.05853 L 177.617188 -23.392405 M 193.621094 -18.05853 L 198.953125 -23.392405 M 182.949219 -7.39078 L 177.617188 -2.056905 M 193.621094 -7.39078 L 198.953125 -2.056905 M 182.949219 -17.061361 L 182.949219 -8.391859 C 182.949219 -7.836573 183.398438 -7.39078 183.949219 -7.39078 L 192.621094 -7.39078 C 193.171875 -7.39078 193.621094 -7.836573 193.621094 -8.391859 L 193.621094 -17.061361 C 193.621094 -17.612737 193.171875 -18.05853 192.621094 -18.05853 L 183.949219 -18.05853 C 183.398438 -18.05853 182.949219 -17.612737 182.949219 -17.061361 Z M 182.949219 -17.061361 " transform="matrix(1, 0, 0, -0.998922, 0, 0)"/>
<path fill="none" stroke-width="0.799958" stroke-linecap="butt" stroke-linejoin="miter" stroke="rgb(0%, 0%, 0%)" stroke-opacity="1" stroke-miterlimit="10" d="M 188.285156 -8.669502 L 191.339844 -8.669502 C 191.890625 -8.669502 192.339844 -9.119206 192.339844 -9.670581 L 192.339844 -12.724655 " transform="matrix(1, 0, 0, -0.998922, 0, 0)"/>
<path fill-rule="nonzero" fill="rgb(0%, 0%, 0%)" fill-opacity="1" d="M 204.871094 33.746094 C 204.871094 33.460938 204.636719 33.214844 204.34375 33.214844 C 204.058594 33.214844 203.8125 33.460938 203.8125 33.746094 C 203.8125 34.039062 204.058594 34.285156 204.34375 34.285156 C 204.636719 34.285156 204.871094 34.039062 204.871094 33.746094 Z M 209.320312 33.746094 C 209.320312 33.460938 209.085938 33.214844 208.792969 33.214844 C 208.507812 33.214844 208.261719 33.460938 208.261719 33.746094 C 208.261719 34.039062 208.507812 34.285156 208.792969 34.285156 C 209.085938 34.285156 209.320312 34.039062 209.320312 33.746094 Z M 213.757812 33.746094 C 213.757812 33.460938 213.523438 33.214844 213.230469 33.214844 C 212.945312 33.214844 212.699219 33.460938 212.699219 33.746094 C 212.699219 34.039062 212.945312 34.285156 213.230469 34.285156 C 213.523438 34.285156 213.757812 34.039062 213.757812 33.746094 Z M 213.757812 33.746094 "/>
<path fill-rule="nonzero" fill="rgb(0%, 0%, 0%)" fill-opacity="1" d="M 204.871094 12.429688 C 204.871094 12.144531 204.636719 11.898438 204.34375 11.898438 C 204.058594 11.898438 203.8125 12.144531 203.8125 12.429688 C 203.8125 12.722656 204.058594 12.96875 204.34375 12.96875 C 204.636719 12.96875 204.871094 12.722656 204.871094 12.429688 Z M 209.320312 12.429688 C 209.320312 12.144531 209.085938 11.898438 208.792969 11.898438 C 208.507812 11.898438 208.261719 12.144531 208.261719 12.429688 C 208.261719 12.722656 208.507812 12.96875 208.792969 12.96875 C 209.085938 12.96875 209.320312 12.722656 209.320312 12.429688 Z M 213.757812 12.429688 C 213.757812 12.144531 213.523438 11.898438 213.230469 11.898438 C 212.945312 11.898438 212.699219 12.144531 212.699219 12.429688 C 212.699219 12.722656 212.945312 12.96875 213.230469 12.96875 C 213.523438 12.96875 213.757812 12.722656 213.757812 12.429688 Z M 213.757812 12.429688 "/>
</svg>
